<?xml version="1.0" encoding="UTF-8" standalone="no"?><svg xmlns="http://www.w3.org/2000/svg" xmlns:xlink="http://www.w3.org/1999/xlink" contentScriptType="application/ecmascript" contentStyleType="text/css" height="844.5px" preserveAspectRatio="none" style="width:882px;height:844px;" version="1.1" viewBox="0 0 882 844" width="882px" zoomAndPan="magnify"><defs><filter height="300%" id="f8g9dr0ksmcb5" width="300%" x="-1" y="-1"><feGaussianBlur result="blurOut" stdDeviation="3.0"/><feColorMatrix in="blurOut" result="blurOut2" type="matrix" values="0 0 0 0 0 0 0 0 0 0 0 0 0 0 0 0 0 0 .4 0"/><feOffset dx="6.0" dy="6.0" in="blurOut2" result="blurOut3"/><feBlend in="SourceGraphic" in2="blurOut3" mode="normal"/></filter></defs><g><text fill="#000000" font-family="sans-serif" font-size="27" lengthAdjust="spacingAndGlyphs" text-decoration="underline" textLength="370.5" x="264.75" y="28.0283">INTERFACES's Class Diagram</text><text fill="#000000" font-family="sans-serif" font-size="27" lengthAdjust="spacingAndGlyphs" textLength="0" x="453.75" y="61.9893"/><!--MD5=[0b89f7d34c26fffbb81ea7301eb9df33]
cluster Interfaces--><polygon fill="#FFFFFF" filter="url(#f8g9dr0ksmcb5)" points="33,103.9219,148.5,103.9219,159,139.3359,849,139.3359,849,826.9219,33,826.9219,33,103.9219" style="stroke: #000000; stroke-width: 2.25;"/><line style="stroke: #000000; stroke-width: 2.25;" x1="33" x2="159" y1="139.3359" y2="139.3359"/><text fill="#000000" font-family="sans-serif" font-size="21" font-weight="bold" lengthAdjust="spacingAndGlyphs" textLength="106.5" x="39" y="128.7217">Interfaces</text><!--MD5=[c3ffee4a2a5f1cf06a036b273f44fafe]
class Interfaces.AllDevices--><rect fill="#FEFECE" filter="url(#f8g9dr0ksmcb5)" height="196.5234" id="Interfaces.AllDevices" style="stroke: #A80036; stroke-width: 2.25;" width="208.5" x="57.75" y="157.9219"/><ellipse cx="113.325" cy="181.9219" fill="#B4A7E5" rx="16.5" ry="16.5" style="stroke: #A80036; stroke-width: 1.5;"/><path d="M114.825,177.4219 L114.825,186.4219 L117.825,186.4219 L118.5516,186.4219 L119.325,187.3594 L119.325,187.9219 L119.325,188.4844 L118.5516,189.4219 L117.825,189.4219 L108.825,189.4219 L108.0984,189.4219 L107.325,188.4844 L107.325,187.9219 L107.325,187.3594 L108.0984,186.4219 L108.825,186.4219 L111.825,186.4219 L111.825,177.4219 L108.825,177.4219 L108.0984,177.4219 L107.325,176.4844 L107.325,175.9219 L107.325,175.3594 L108.0984,174.4219 L108.825,174.4219 L117.825,174.4219 L118.5516,174.4219 L119.325,175.3594 L119.325,175.9219 L119.325,176.4844 L118.5516,177.4219 L117.825,177.4219 L114.825,177.4219 Z "/><text fill="#000000" font-family="sans-serif" font-size="18" font-style="italic" lengthAdjust="spacingAndGlyphs" textLength="87" x="141.675" y="189.2871">AllDevices</text><line style="stroke: #A80036; stroke-width: 2.25;" x1="59.25" x2="264.75" y1="205.9219" y2="205.9219"/><line style="stroke: #A80036; stroke-width: 2.25;" x1="59.25" x2="264.75" y1="217.9219" y2="217.9219"/><ellipse cx="74.25" cy="234.4219" fill="#84BE84" rx="4.5" ry="4.5" style="stroke: #038048; stroke-width: 1.5;"/><text fill="#000000" font-family="sans-serif" font-size="16.5" font-style="italic" lengthAdjust="spacingAndGlyphs" textLength="117" x="87.75" y="241.0503">calculateTime()</text><ellipse cx="74.25" cy="255.1758" fill="#84BE84" rx="4.5" ry="4.5" style="stroke: #038048; stroke-width: 1.5;"/><text fill="#000000" font-family="sans-serif" font-size="16.5" font-style="italic" lengthAdjust="spacingAndGlyphs" textLength="169.5" x="87.75" y="261.8042">displayFunctionMenu()</text><ellipse cx="74.25" cy="275.9297" fill="#84BE84" rx="4.5" ry="4.5" style="stroke: #038048; stroke-width: 1.5;"/><text fill="#000000" font-family="sans-serif" font-size="16.5" font-style="italic" lengthAdjust="spacingAndGlyphs" textLength="103.5" x="87.75" y="282.5581">getDeviceNr()</text><ellipse cx="74.25" cy="296.6836" fill="#84BE84" rx="4.5" ry="4.5" style="stroke: #038048; stroke-width: 1.5;"/><text fill="#000000" font-family="sans-serif" font-size="16.5" font-style="italic" lengthAdjust="spacingAndGlyphs" textLength="70.5" x="87.75" y="303.312">getIsOn()</text><ellipse cx="74.25" cy="317.4375" fill="#84BE84" rx="4.5" ry="4.5" style="stroke: #038048; stroke-width: 1.5;"/><text fill="#000000" font-family="sans-serif" font-size="16.5" font-style="italic" lengthAdjust="spacingAndGlyphs" textLength="73.5" x="87.75" y="324.0659">interrupt()</text><ellipse cx="74.25" cy="338.1914" fill="#84BE84" rx="4.5" ry="4.5" style="stroke: #038048; stroke-width: 1.5;"/><text fill="#000000" font-family="sans-serif" font-size="16.5" font-style="italic" lengthAdjust="spacingAndGlyphs" textLength="45" x="87.75" y="344.8198">start()</text><!--MD5=[c8c80dd510139023e1f329a0050487e7]
class Interfaces.Command--><rect fill="#FEFECE" filter="url(#f8g9dr0ksmcb5)" height="113.5078" id="Interfaces.Command" style="stroke: #A80036; stroke-width: 2.25;" width="136.5" x="318.75" y="199.1719"/><ellipse cx="341.25" cy="223.1719" fill="#B4A7E5" rx="16.5" ry="16.5" style="stroke: #A80036; stroke-width: 1.5;"/><path d="M342.75,218.6719 L342.75,227.6719 L345.75,227.6719 L346.4766,227.6719 L347.25,228.6094 L347.25,229.1719 L347.25,229.7344 L346.4766,230.6719 L345.75,230.6719 L336.75,230.6719 L336.0234,230.6719 L335.25,229.7344 L335.25,229.1719 L335.25,228.6094 L336.0234,227.6719 L336.75,227.6719 L339.75,227.6719 L339.75,218.6719 L336.75,218.6719 L336.0234,218.6719 L335.25,217.7344 L335.25,217.1719 L335.25,216.6094 L336.0234,215.6719 L336.75,215.6719 L345.75,215.6719 L346.4766,215.6719 L347.25,216.6094 L347.25,217.1719 L347.25,217.7344 L346.4766,218.6719 L345.75,218.6719 L342.75,218.6719 Z "/><text fill="#000000" font-family="sans-serif" font-size="18" font-style="italic" lengthAdjust="spacingAndGlyphs" textLength="88.5" x="362.25" y="230.5371">Command</text><line style="stroke: #A80036; stroke-width: 2.25;" x1="320.25" x2="453.75" y1="247.1719" y2="247.1719"/><line style="stroke: #A80036; stroke-width: 2.25;" x1="320.25" x2="453.75" y1="259.1719" y2="259.1719"/><ellipse cx="335.25" cy="275.6719" fill="#84BE84" rx="4.5" ry="4.5" style="stroke: #038048; stroke-width: 1.5;"/><text fill="#000000" font-family="sans-serif" font-size="16.5" font-style="italic" lengthAdjust="spacingAndGlyphs" textLength="70.5" x="348.75" y="282.3003">execute()</text><ellipse cx="335.25" cy="296.4258" fill="#84BE84" rx="4.5" ry="4.5" style="stroke: #038048; stroke-width: 1.5;"/><text fill="#000000" font-family="sans-serif" font-size="16.5" font-style="italic" lengthAdjust="spacingAndGlyphs" textLength="48" x="348.75" y="303.0542">undo()</text><!--MD5=[d58e423c88cd9da34e906221f3e3e38a]
class Interfaces.DegreeSelectionDevices--><rect fill="#FEFECE" filter="url(#f8g9dr0ksmcb5)" height="113.5078" id="Interfaces.DegreeSelectionDevices" style="stroke: #A80036; stroke-width: 2.25;" width="252" x="508.5" y="199.1719"/><ellipse cx="531" cy="223.1719" fill="#B4A7E5" rx="16.5" ry="16.5" style="stroke: #A80036; stroke-width: 1.5;"/><path d="M532.5,218.6719 L532.5,227.6719 L535.5,227.6719 L536.2266,227.6719 L537,228.6094 L537,229.1719 L537,229.7344 L536.2266,230.6719 L535.5,230.6719 L526.5,230.6719 L525.7734,230.6719 L525,229.7344 L525,229.1719 L525,228.6094 L525.7734,227.6719 L526.5,227.6719 L529.5,227.6719 L529.5,218.6719 L526.5,218.6719 L525.7734,218.6719 L525,217.7344 L525,217.1719 L525,216.6094 L525.7734,215.6719 L526.5,215.6719 L535.5,215.6719 L536.2266,215.6719 L537,216.6094 L537,217.1719 L537,217.7344 L536.2266,218.6719 L535.5,218.6719 L532.5,218.6719 Z "/><text fill="#000000" font-family="sans-serif" font-size="18" font-style="italic" lengthAdjust="spacingAndGlyphs" textLength="204" x="552" y="230.5371">DegreeSelectionDevices</text><line style="stroke: #A80036; stroke-width: 2.25;" x1="510" x2="759" y1="247.1719" y2="247.1719"/><line style="stroke: #A80036; stroke-width: 2.25;" x1="510" x2="759" y1="259.1719" y2="259.1719"/><ellipse cx="525" cy="275.6719" fill="#84BE84" rx="4.5" ry="4.5" style="stroke: #038048; stroke-width: 1.5;"/><text fill="#000000" font-family="sans-serif" font-size="16.5" font-style="italic" lengthAdjust="spacingAndGlyphs" textLength="187.5" x="538.5" y="282.3003">displayDegreeSelection()</text><ellipse cx="525" cy="296.4258" fill="#84BE84" rx="4.5" ry="4.5" style="stroke: #038048; stroke-width: 1.5;"/><text fill="#000000" font-family="sans-serif" font-size="16.5" font-style="italic" lengthAdjust="spacingAndGlyphs" textLength="111" x="538.5" y="303.0542">selectDegree()</text><!--MD5=[75d754cee9ddd28707d7529d688e88bc]
class Interfaces.HeatBasedDevices--><rect fill="#FEFECE" filter="url(#f8g9dr0ksmcb5)" height="92.7539" id="Interfaces.HeatBasedDevices" style="stroke: #A80036; stroke-width: 2.25;" width="205.5" x="57.75" y="475.1719"/><ellipse cx="80.25" cy="499.1719" fill="#B4A7E5" rx="16.5" ry="16.5" style="stroke: #A80036; stroke-width: 1.5;"/><path d="M81.75,494.6719 L81.75,503.6719 L84.75,503.6719 L85.4766,503.6719 L86.25,504.6094 L86.25,505.1719 L86.25,505.7344 L85.4766,506.6719 L84.75,506.6719 L75.75,506.6719 L75.0234,506.6719 L74.25,505.7344 L74.25,505.1719 L74.25,504.6094 L75.0234,503.6719 L75.75,503.6719 L78.75,503.6719 L78.75,494.6719 L75.75,494.6719 L75.0234,494.6719 L74.25,493.7344 L74.25,493.1719 L74.25,492.6094 L75.0234,491.6719 L75.75,491.6719 L84.75,491.6719 L85.4766,491.6719 L86.25,492.6094 L86.25,493.1719 L86.25,493.7344 L85.4766,494.6719 L84.75,494.6719 L81.75,494.6719 Z "/><text fill="#000000" font-family="sans-serif" font-size="18" font-style="italic" lengthAdjust="spacingAndGlyphs" textLength="157.5" x="101.25" y="506.5371">HeatBasedDevices</text><line style="stroke: #A80036; stroke-width: 2.25;" x1="59.25" x2="261.75" y1="523.1719" y2="523.1719"/><line style="stroke: #A80036; stroke-width: 2.25;" x1="59.25" x2="261.75" y1="535.1719" y2="535.1719"/><ellipse cx="74.25" cy="551.6719" fill="#84BE84" rx="4.5" ry="4.5" style="stroke: #038048; stroke-width: 1.5;"/><text fill="#000000" font-family="sans-serif" font-size="16.5" font-style="italic" lengthAdjust="spacingAndGlyphs" textLength="129" x="87.75" y="558.3003">setTemperature()</text><!--MD5=[16b8e881aebc6b84c9f15433e0a22fd2]
class Interfaces.ProgrammableDevices--><rect fill="#FEFECE" filter="url(#f8g9dr0ksmcb5)" height="113.5078" id="Interfaces.ProgrammableDevices" style="stroke: #A80036; stroke-width: 2.25;" width="240" x="316.5" y="464.6719"/><ellipse cx="339" cy="488.6719" fill="#B4A7E5" rx="16.5" ry="16.5" style="stroke: #A80036; stroke-width: 1.5;"/><path d="M340.5,484.1719 L340.5,493.1719 L343.5,493.1719 L344.2266,493.1719 L345,494.1094 L345,494.6719 L345,495.2344 L344.2266,496.1719 L343.5,496.1719 L334.5,496.1719 L333.7734,496.1719 L333,495.2344 L333,494.6719 L333,494.1094 L333.7734,493.1719 L334.5,493.1719 L337.5,493.1719 L337.5,484.1719 L334.5,484.1719 L333.7734,484.1719 L333,483.2344 L333,482.6719 L333,482.1094 L333.7734,481.1719 L334.5,481.1719 L343.5,481.1719 L344.2266,481.1719 L345,482.1094 L345,482.6719 L345,483.2344 L344.2266,484.1719 L343.5,484.1719 L340.5,484.1719 Z "/><text fill="#000000" font-family="sans-serif" font-size="18" font-style="italic" lengthAdjust="spacingAndGlyphs" textLength="192" x="360" y="496.0371">ProgrammableDevices</text><line style="stroke: #A80036; stroke-width: 2.25;" x1="318" x2="555" y1="512.6719" y2="512.6719"/><line style="stroke: #A80036; stroke-width: 2.25;" x1="318" x2="555" y1="524.6719" y2="524.6719"/><ellipse cx="333" cy="541.1719" fill="#84BE84" rx="4.5" ry="4.5" style="stroke: #038048; stroke-width: 1.5;"/><text fill="#000000" font-family="sans-serif" font-size="16.5" font-style="italic" lengthAdjust="spacingAndGlyphs" textLength="136.5" x="346.5" y="547.8003">displayPrograms()</text><ellipse cx="333" cy="561.9258" fill="#84BE84" rx="4.5" ry="4.5" style="stroke: #038048; stroke-width: 1.5;"/><text fill="#000000" font-family="sans-serif" font-size="16.5" font-style="italic" lengthAdjust="spacingAndGlyphs" textLength="120" x="346.5" y="568.5542">selectProgram()</text><!--MD5=[ef34e4c09b648cfd22d49a7d933b4101]
class Interfaces.RoboticDevices--><rect fill="#FEFECE" filter="url(#f8g9dr0ksmcb5)" height="155.0156" id="Interfaces.RoboticDevices" style="stroke: #A80036; stroke-width: 2.25;" width="214.5" x="609.75" y="444.4219"/><ellipse cx="648.45" cy="468.4219" fill="#B4A7E5" rx="16.5" ry="16.5" style="stroke: #A80036; stroke-width: 1.5;"/><path d="M649.95,463.9219 L649.95,472.9219 L652.95,472.9219 L653.6766,472.9219 L654.45,473.8594 L654.45,474.4219 L654.45,474.9844 L653.6766,475.9219 L652.95,475.9219 L643.95,475.9219 L643.2234,475.9219 L642.45,474.9844 L642.45,474.4219 L642.45,473.8594 L643.2234,472.9219 L643.95,472.9219 L646.95,472.9219 L646.95,463.9219 L643.95,463.9219 L643.2234,463.9219 L642.45,462.9844 L642.45,462.4219 L642.45,461.8594 L643.2234,460.9219 L643.95,460.9219 L652.95,460.9219 L653.6766,460.9219 L654.45,461.8594 L654.45,462.4219 L654.45,462.9844 L653.6766,463.9219 L652.95,463.9219 L649.95,463.9219 Z "/><text fill="#000000" font-family="sans-serif" font-size="18" font-style="italic" lengthAdjust="spacingAndGlyphs" textLength="130.5" x="673.05" y="475.7871">RoboticDevices</text><line style="stroke: #A80036; stroke-width: 2.25;" x1="611.25" x2="822.75" y1="492.4219" y2="492.4219"/><line style="stroke: #A80036; stroke-width: 2.25;" x1="611.25" x2="822.75" y1="504.4219" y2="504.4219"/><ellipse cx="626.25" cy="520.9219" fill="#84BE84" rx="4.5" ry="4.5" style="stroke: #038048; stroke-width: 1.5;"/><text fill="#000000" font-family="sans-serif" font-size="16.5" font-style="italic" lengthAdjust="spacingAndGlyphs" textLength="175.5" x="639.75" y="527.5503">checkBatteryCharging()</text><ellipse cx="626.25" cy="541.6758" fill="#84BE84" rx="4.5" ry="4.5" style="stroke: #038048; stroke-width: 1.5;"/><text fill="#000000" font-family="sans-serif" font-size="16.5" font-style="italic" lengthAdjust="spacingAndGlyphs" textLength="154.5" x="639.75" y="548.3042">checkBatteryStatus()</text><ellipse cx="626.25" cy="562.4297" fill="#84BE84" rx="4.5" ry="4.5" style="stroke: #038048; stroke-width: 1.5;"/><text fill="#000000" font-family="sans-serif" font-size="16.5" font-style="italic" lengthAdjust="spacingAndGlyphs" textLength="141" x="639.75" y="569.0581">checkCompletion()</text><ellipse cx="626.25" cy="583.1836" fill="#84BE84" rx="4.5" ry="4.5" style="stroke: #038048; stroke-width: 1.5;"/><text fill="#000000" font-family="sans-serif" font-size="16.5" font-style="italic" lengthAdjust="spacingAndGlyphs" textLength="115.5" x="639.75" y="589.812">continueWork()</text><!--MD5=[4d9d4ce80598be00a1bc562db8c2f307]
class Interfaces.StationaryDevices--><rect fill="#FEFECE" filter="url(#f8g9dr0ksmcb5)" height="113.5078" id="Interfaces.StationaryDevices" style="stroke: #A80036; stroke-width: 2.25;" width="196.5" x="62.25" y="688.9219"/><ellipse cx="84.75" cy="712.9219" fill="#B4A7E5" rx="16.5" ry="16.5" style="stroke: #A80036; stroke-width: 1.5;"/><path d="M86.25,708.4219 L86.25,717.4219 L89.25,717.4219 L89.9766,717.4219 L90.75,718.3594 L90.75,718.9219 L90.75,719.4844 L89.9766,720.4219 L89.25,720.4219 L80.25,720.4219 L79.5234,720.4219 L78.75,719.4844 L78.75,718.9219 L78.75,718.3594 L79.5234,717.4219 L80.25,717.4219 L83.25,717.4219 L83.25,708.4219 L80.25,708.4219 L79.5234,708.4219 L78.75,707.4844 L78.75,706.9219 L78.75,706.3594 L79.5234,705.4219 L80.25,705.4219 L89.25,705.4219 L89.9766,705.4219 L90.75,706.3594 L90.75,706.9219 L90.75,707.4844 L89.9766,708.4219 L89.25,708.4219 L86.25,708.4219 Z "/><text fill="#000000" font-family="sans-serif" font-size="18" font-style="italic" lengthAdjust="spacingAndGlyphs" textLength="148.5" x="105.75" y="720.2871">StationaryDevices</text><line style="stroke: #A80036; stroke-width: 2.25;" x1="63.75" x2="257.25" y1="736.9219" y2="736.9219"/><line style="stroke: #A80036; stroke-width: 2.25;" x1="63.75" x2="257.25" y1="748.9219" y2="748.9219"/><ellipse cx="78.75" cy="765.4219" fill="#84BE84" rx="4.5" ry="4.5" style="stroke: #038048; stroke-width: 1.5;"/><text fill="#000000" font-family="sans-serif" font-size="16.5" font-style="italic" lengthAdjust="spacingAndGlyphs" textLength="81" x="92.25" y="772.0503">switchOff()</text><ellipse cx="78.75" cy="786.1758" fill="#84BE84" rx="4.5" ry="4.5" style="stroke: #038048; stroke-width: 1.5;"/><text fill="#000000" font-family="sans-serif" font-size="16.5" font-style="italic" lengthAdjust="spacingAndGlyphs" textLength="81" x="92.25" y="792.8042">switchOn()</text><!--MD5=[09bbc053ba00f507a3ccea4e581bf5f7]
class Interfaces.TimeableDevices--><rect fill="#FEFECE" filter="url(#f8g9dr0ksmcb5)" height="113.5078" id="Interfaces.TimeableDevices" style="stroke: #A80036; stroke-width: 2.25;" width="193.5" x="311.25" y="688.9219"/><ellipse cx="333.75" cy="712.9219" fill="#B4A7E5" rx="16.5" ry="16.5" style="stroke: #A80036; stroke-width: 1.5;"/><path d="M335.25,708.4219 L335.25,717.4219 L338.25,717.4219 L338.9766,717.4219 L339.75,718.3594 L339.75,718.9219 L339.75,719.4844 L338.9766,720.4219 L338.25,720.4219 L329.25,720.4219 L328.5234,720.4219 L327.75,719.4844 L327.75,718.9219 L327.75,718.3594 L328.5234,717.4219 L329.25,717.4219 L332.25,717.4219 L332.25,708.4219 L329.25,708.4219 L328.5234,708.4219 L327.75,707.4844 L327.75,706.9219 L327.75,706.3594 L328.5234,705.4219 L329.25,705.4219 L338.25,705.4219 L338.9766,705.4219 L339.75,706.3594 L339.75,706.9219 L339.75,707.4844 L338.9766,708.4219 L338.25,708.4219 L335.25,708.4219 Z "/><text fill="#000000" font-family="sans-serif" font-size="18" font-style="italic" lengthAdjust="spacingAndGlyphs" textLength="145.5" x="354.75" y="720.2871">TimeableDevices</text><line style="stroke: #A80036; stroke-width: 2.25;" x1="312.75" x2="503.25" y1="736.9219" y2="736.9219"/><line style="stroke: #A80036; stroke-width: 2.25;" x1="312.75" x2="503.25" y1="748.9219" y2="748.9219"/><ellipse cx="327.75" cy="765.4219" fill="#84BE84" rx="4.5" ry="4.5" style="stroke: #038048; stroke-width: 1.5;"/><text fill="#000000" font-family="sans-serif" font-size="16.5" font-style="italic" lengthAdjust="spacingAndGlyphs" textLength="100.5" x="341.25" y="772.0503">checkTimer()</text><ellipse cx="327.75" cy="786.1758" fill="#84BE84" rx="4.5" ry="4.5" style="stroke: #038048; stroke-width: 1.5;"/><text fill="#000000" font-family="sans-serif" font-size="16.5" font-style="italic" lengthAdjust="spacingAndGlyphs" textLength="78" x="341.25" y="792.8042">setTimer()</text><!--MD5=[267a24947de27645ddfdbafe7cd86d8e]
link Interfaces.AllDevices to Interfaces.Command--><!--MD5=[849c785dbe0226f3febe4c8fd691096a]
link Interfaces.Command to Interfaces.DegreeSelectionDevices--><!--MD5=[ba21f299c81dbf377a8abfe8af43cb59]
link Interfaces.AllDevices to Interfaces.HeatBasedDevices--><!--MD5=[d2152e4ba4a3da82ec16a237a3550555]
link Interfaces.HeatBasedDevices to Interfaces.ProgrammableDevices--><!--MD5=[0ff628345c826327075edbf80c9e4c73]
link Interfaces.ProgrammableDevices to Interfaces.RoboticDevices--><!--MD5=[13fa8c69833e4ff34a3c4cb13827b05b]
link Interfaces.HeatBasedDevices to Interfaces.StationaryDevices--><!--MD5=[f7b539a301132be471f7de7b29363e42]
link Interfaces.StationaryDevices to Interfaces.TimeableDevices--><!--MD5=[21549c13b1b3f4213eb3c44c894c17c1]
@startuml

title __INTERFACES's Class Diagram__\n

  namespace Interfaces {
    interface Interfaces.AllDevices {
        {abstract} + calculateTime()
        {abstract} + displayFunctionMenu()
        {abstract} + getDeviceNr()
        {abstract} + getIsOn()
        {abstract} + interrupt()
        {abstract} + start()
    }
  }
  

  namespace Interfaces {
    interface Interfaces.Command {
        {abstract} + execute()
        {abstract} + undo()
    }
  }
  

  namespace Interfaces {
    interface Interfaces.DegreeSelectionDevices {
        {abstract} + displayDegreeSelection()
        {abstract} + selectDegree()
    }
  }
  

  namespace Interfaces {
    interface Interfaces.HeatBasedDevices {
        {abstract} + setTemperature()
    }
  }
  

  namespace Interfaces {
    interface Interfaces.ProgrammableDevices {
        {abstract} + displayPrograms()
        {abstract} + selectProgram()
    }
  }
  

  namespace Interfaces {
    interface Interfaces.RoboticDevices {
        {abstract} + checkBatteryCharging()
        {abstract} + checkBatteryStatus()
        {abstract} + checkCompletion()
        {abstract} + continueWork()
    }
  }
  

  namespace Interfaces {
    interface Interfaces.StationaryDevices {
        {abstract} + switchOff()
        {abstract} + switchOn()
    }
  }
  

  namespace Interfaces {
    interface Interfaces.TimeableDevices {
        {abstract} + checkTimer()
        {abstract} + setTimer()
    }
  }
  


@enduml

PlantUML version 1.2019.11(Sun Sep 22 12:02:15 CEST 2019)
(GPL source distribution)
Java Runtime: OpenJDK Runtime Environment
JVM: OpenJDK 64-Bit Server VM
Java Version: 11.0.4+10-b304.77
Operating System: Windows 10
Default Encoding: Cp1252
Language: de
Country: CH
--></g></svg>