<?xml version="1.0" encoding="UTF-8" standalone="no"?><svg xmlns="http://www.w3.org/2000/svg" xmlns:xlink="http://www.w3.org/1999/xlink" contentScriptType="application/ecmascript" contentStyleType="text/css" height="337.8px" preserveAspectRatio="none" style="width:352px;height:337px;" version="1.1" viewBox="0 0 352 337" width="352.8px" zoomAndPan="magnify"><defs><filter height="300%" id="f8g9dr0ksmcb5" width="300%" x="-1" y="-1"><feGaussianBlur result="blurOut" stdDeviation="1.2"/><feColorMatrix in="blurOut" result="blurOut2" type="matrix" values="0 0 0 0 0 0 0 0 0 0 0 0 0 0 0 0 0 0 .4 0"/><feOffset dx="2.4" dy="2.4" in="blurOut2" result="blurOut3"/><feBlend in="SourceGraphic" in2="blurOut3" mode="normal"/></filter></defs><g><text fill="#000000" font-family="sans-serif" font-size="10.8" lengthAdjust="spacingAndGlyphs" text-decoration="underline" textLength="148.2" x="105.9" y="11.2113">INTERFACES's Class Diagram</text><text fill="#000000" font-family="sans-serif" font-size="10.8" lengthAdjust="spacingAndGlyphs" textLength="0" x="181.5" y="24.7957"/><!--MD5=[0b89f7d34c26fffbb81ea7301eb9df33]
cluster Interfaces--><polygon fill="#FFFFFF" filter="url(#f8g9dr0ksmcb5)" points="13.2,41.5688,59.4,41.5688,63.6,55.7344,339.6,55.7344,339.6,330.7688,13.2,330.7688,13.2,41.5688" style="stroke: #000000; stroke-width: 0.8999999999999999;"/><line style="stroke: #000000; stroke-width: 0.8999999999999999;" x1="13.2" x2="63.6" y1="55.7344" y2="55.7344"/><text fill="#000000" font-family="sans-serif" font-size="8.4" font-weight="bold" lengthAdjust="spacingAndGlyphs" textLength="42.6" x="15.6" y="51.4887">Interfaces</text><!--MD5=[c3ffee4a2a5f1cf06a036b273f44fafe]
class Interfaces.AllDevices--><rect fill="#FEFECE" filter="url(#f8g9dr0ksmcb5)" height="78.6094" id="Interfaces.AllDevices" style="stroke: #A80036; stroke-width: 0.8999999999999999;" width="83.4" x="23.1" y="63.1687"/><ellipse cx="45.33" cy="72.7688" fill="#B4A7E5" rx="6.6" ry="6.6" style="stroke: #A80036; stroke-width: 0.6;"/><path d="M45.93,70.9688 L45.93,74.5688 L47.13,74.5688 L47.4206,74.5688 L47.73,74.9438 L47.73,75.1688 L47.73,75.3938 L47.4206,75.7688 L47.13,75.7688 L43.53,75.7688 L43.2394,75.7688 L42.93,75.3938 L42.93,75.1688 L42.93,74.9438 L43.2394,74.5688 L43.53,74.5688 L44.73,74.5688 L44.73,70.9688 L43.53,70.9688 L43.2394,70.9688 L42.93,70.5938 L42.93,70.3687 L42.93,70.1438 L43.2394,69.7688 L43.53,69.7688 L47.13,69.7688 L47.4206,69.7688 L47.73,70.1438 L47.73,70.3687 L47.73,70.5938 L47.4206,70.9688 L47.13,70.9688 L45.93,70.9688 Z "/><text fill="#000000" font-family="sans-serif" font-size="7.2" font-style="italic" lengthAdjust="spacingAndGlyphs" textLength="34.8" x="56.67" y="75.7148">AllDevices</text><line style="stroke: #A80036; stroke-width: 0.8999999999999999;" x1="23.7" x2="105.9" y1="82.3687" y2="82.3687"/><line style="stroke: #A80036; stroke-width: 0.8999999999999999;" x1="23.7" x2="105.9" y1="87.1688" y2="87.1688"/><ellipse cx="29.7" cy="93.7688" fill="#84BE84" rx="1.8" ry="1.8" style="stroke: #038048; stroke-width: 0.6;"/><text fill="#000000" font-family="sans-serif" font-size="6.6" font-style="italic" lengthAdjust="spacingAndGlyphs" textLength="46.8" x="35.1" y="96.4201">calculateTime()</text><ellipse cx="29.7" cy="102.0703" fill="#84BE84" rx="1.8" ry="1.8" style="stroke: #038048; stroke-width: 0.6;"/><text fill="#000000" font-family="sans-serif" font-size="6.6" font-style="italic" lengthAdjust="spacingAndGlyphs" textLength="67.8" x="35.1" y="104.7217">displayFunctionMenu()</text><ellipse cx="29.7" cy="110.3719" fill="#84BE84" rx="1.8" ry="1.8" style="stroke: #038048; stroke-width: 0.6;"/><text fill="#000000" font-family="sans-serif" font-size="6.6" font-style="italic" lengthAdjust="spacingAndGlyphs" textLength="41.4" x="35.1" y="113.0232">getDeviceNr()</text><ellipse cx="29.7" cy="118.6734" fill="#84BE84" rx="1.8" ry="1.8" style="stroke: #038048; stroke-width: 0.6;"/><text fill="#000000" font-family="sans-serif" font-size="6.6" font-style="italic" lengthAdjust="spacingAndGlyphs" textLength="28.2" x="35.1" y="121.3248">getIsOn()</text><ellipse cx="29.7" cy="126.975" fill="#84BE84" rx="1.8" ry="1.8" style="stroke: #038048; stroke-width: 0.6;"/><text fill="#000000" font-family="sans-serif" font-size="6.6" font-style="italic" lengthAdjust="spacingAndGlyphs" textLength="29.4" x="35.1" y="129.6264">interrupt()</text><ellipse cx="29.7" cy="135.2766" fill="#84BE84" rx="1.8" ry="1.8" style="stroke: #038048; stroke-width: 0.6;"/><text fill="#000000" font-family="sans-serif" font-size="6.6" font-style="italic" lengthAdjust="spacingAndGlyphs" textLength="18" x="35.1" y="137.9279">start()</text><!--MD5=[c8c80dd510139023e1f329a0050487e7]
class Interfaces.Command--><rect fill="#FEFECE" filter="url(#f8g9dr0ksmcb5)" height="45.4031" id="Interfaces.Command" style="stroke: #A80036; stroke-width: 0.8999999999999999;" width="54.6" x="127.5" y="79.6688"/><ellipse cx="136.5" cy="89.2688" fill="#B4A7E5" rx="6.6" ry="6.6" style="stroke: #A80036; stroke-width: 0.6;"/><path d="M137.1,87.4688 L137.1,91.0688 L138.3,91.0688 L138.5906,91.0688 L138.9,91.4438 L138.9,91.6688 L138.9,91.8938 L138.5906,92.2688 L138.3,92.2688 L134.7,92.2688 L134.4094,92.2688 L134.1,91.8938 L134.1,91.6688 L134.1,91.4438 L134.4094,91.0688 L134.7,91.0688 L135.9,91.0688 L135.9,87.4688 L134.7,87.4688 L134.4094,87.4688 L134.1,87.0938 L134.1,86.8687 L134.1,86.6438 L134.4094,86.2688 L134.7,86.2688 L138.3,86.2688 L138.5906,86.2688 L138.9,86.6438 L138.9,86.8687 L138.9,87.0938 L138.5906,87.4688 L138.3,87.4688 L137.1,87.4688 Z "/><text fill="#000000" font-family="sans-serif" font-size="7.2" font-style="italic" lengthAdjust="spacingAndGlyphs" textLength="35.4" x="144.9" y="92.2148">Command</text><line style="stroke: #A80036; stroke-width: 0.8999999999999999;" x1="128.1" x2="181.5" y1="98.8687" y2="98.8687"/><line style="stroke: #A80036; stroke-width: 0.8999999999999999;" x1="128.1" x2="181.5" y1="103.6688" y2="103.6688"/><ellipse cx="134.1" cy="110.2688" fill="#84BE84" rx="1.8" ry="1.8" style="stroke: #038048; stroke-width: 0.6;"/><text fill="#000000" font-family="sans-serif" font-size="6.6" font-style="italic" lengthAdjust="spacingAndGlyphs" textLength="28.2" x="139.5" y="112.9201">execute()</text><ellipse cx="134.1" cy="118.5703" fill="#84BE84" rx="1.8" ry="1.8" style="stroke: #038048; stroke-width: 0.6;"/><text fill="#000000" font-family="sans-serif" font-size="6.6" font-style="italic" lengthAdjust="spacingAndGlyphs" textLength="19.2" x="139.5" y="121.2217">undo()</text><!--MD5=[d58e423c88cd9da34e906221f3e3e38a]
class Interfaces.DegreeSelectionDevices--><rect fill="#FEFECE" filter="url(#f8g9dr0ksmcb5)" height="45.4031" id="Interfaces.DegreeSelectionDevices" style="stroke: #A80036; stroke-width: 0.8999999999999999;" width="100.8" x="203.4" y="79.6688"/><ellipse cx="212.4" cy="89.2688" fill="#B4A7E5" rx="6.6" ry="6.6" style="stroke: #A80036; stroke-width: 0.6;"/><path d="M213,87.4688 L213,91.0688 L214.2,91.0688 L214.4906,91.0688 L214.8,91.4438 L214.8,91.6688 L214.8,91.8938 L214.4906,92.2688 L214.2,92.2688 L210.6,92.2688 L210.3094,92.2688 L210,91.8938 L210,91.6688 L210,91.4438 L210.3094,91.0688 L210.6,91.0688 L211.8,91.0688 L211.8,87.4688 L210.6,87.4688 L210.3094,87.4688 L210,87.0938 L210,86.8687 L210,86.6438 L210.3094,86.2688 L210.6,86.2688 L214.2,86.2688 L214.4906,86.2688 L214.8,86.6438 L214.8,86.8687 L214.8,87.0938 L214.4906,87.4688 L214.2,87.4688 L213,87.4688 Z "/><text fill="#000000" font-family="sans-serif" font-size="7.2" font-style="italic" lengthAdjust="spacingAndGlyphs" textLength="81.6" x="220.8" y="92.2148">DegreeSelectionDevices</text><line style="stroke: #A80036; stroke-width: 0.8999999999999999;" x1="204" x2="303.6" y1="98.8687" y2="98.8687"/><line style="stroke: #A80036; stroke-width: 0.8999999999999999;" x1="204" x2="303.6" y1="103.6688" y2="103.6688"/><ellipse cx="210" cy="110.2688" fill="#84BE84" rx="1.8" ry="1.8" style="stroke: #038048; stroke-width: 0.6;"/><text fill="#000000" font-family="sans-serif" font-size="6.6" font-style="italic" lengthAdjust="spacingAndGlyphs" textLength="75" x="215.4" y="112.9201">displayDegreeSelection()</text><ellipse cx="210" cy="118.5703" fill="#84BE84" rx="1.8" ry="1.8" style="stroke: #038048; stroke-width: 0.6;"/><text fill="#000000" font-family="sans-serif" font-size="6.6" font-style="italic" lengthAdjust="spacingAndGlyphs" textLength="44.4" x="215.4" y="121.2217">selectDegree()</text><!--MD5=[75d754cee9ddd28707d7529d688e88bc]
class Interfaces.HeatBasedDevices--><rect fill="#FEFECE" filter="url(#f8g9dr0ksmcb5)" height="37.1016" id="Interfaces.HeatBasedDevices" style="stroke: #A80036; stroke-width: 0.8999999999999999;" width="82.2" x="23.1" y="190.0688"/><ellipse cx="32.1" cy="199.6688" fill="#B4A7E5" rx="6.6" ry="6.6" style="stroke: #A80036; stroke-width: 0.6;"/><path d="M32.7,197.8688 L32.7,201.4688 L33.9,201.4688 L34.1906,201.4688 L34.5,201.8438 L34.5,202.0688 L34.5,202.2938 L34.1906,202.6688 L33.9,202.6688 L30.3,202.6688 L30.0094,202.6688 L29.7,202.2938 L29.7,202.0688 L29.7,201.8438 L30.0094,201.4688 L30.3,201.4688 L31.5,201.4688 L31.5,197.8688 L30.3,197.8688 L30.0094,197.8688 L29.7,197.4938 L29.7,197.2687 L29.7,197.0438 L30.0094,196.6688 L30.3,196.6688 L33.9,196.6688 L34.1906,196.6688 L34.5,197.0438 L34.5,197.2687 L34.5,197.4938 L34.1906,197.8688 L33.9,197.8688 L32.7,197.8688 Z "/><text fill="#000000" font-family="sans-serif" font-size="7.2" font-style="italic" lengthAdjust="spacingAndGlyphs" textLength="63" x="40.5" y="202.6148">HeatBasedDevices</text><line style="stroke: #A80036; stroke-width: 0.8999999999999999;" x1="23.7" x2="104.7" y1="209.2687" y2="209.2687"/><line style="stroke: #A80036; stroke-width: 0.8999999999999999;" x1="23.7" x2="104.7" y1="214.0688" y2="214.0688"/><ellipse cx="29.7" cy="220.6688" fill="#84BE84" rx="1.8" ry="1.8" style="stroke: #038048; stroke-width: 0.6;"/><text fill="#000000" font-family="sans-serif" font-size="6.6" font-style="italic" lengthAdjust="spacingAndGlyphs" textLength="51.6" x="35.1" y="223.3201">setTemperature()</text><!--MD5=[16b8e881aebc6b84c9f15433e0a22fd2]
class Interfaces.ProgrammableDevices--><rect fill="#FEFECE" filter="url(#f8g9dr0ksmcb5)" height="45.4031" id="Interfaces.ProgrammableDevices" style="stroke: #A80036; stroke-width: 0.8999999999999999;" width="96" x="126.6" y="185.8688"/><ellipse cx="135.6" cy="195.4688" fill="#B4A7E5" rx="6.6" ry="6.6" style="stroke: #A80036; stroke-width: 0.6;"/><path d="M136.2,193.6688 L136.2,197.2687 L137.4,197.2687 L137.6906,197.2687 L138,197.6437 L138,197.8688 L138,198.0938 L137.6906,198.4688 L137.4,198.4688 L133.8,198.4688 L133.5094,198.4688 L133.2,198.0938 L133.2,197.8688 L133.2,197.6437 L133.5094,197.2687 L133.8,197.2687 L135,197.2687 L135,193.6688 L133.8,193.6688 L133.5094,193.6688 L133.2,193.2938 L133.2,193.0688 L133.2,192.8438 L133.5094,192.4688 L133.8,192.4688 L137.4,192.4688 L137.6906,192.4688 L138,192.8438 L138,193.0688 L138,193.2938 L137.6906,193.6688 L137.4,193.6688 L136.2,193.6688 Z "/><text fill="#000000" font-family="sans-serif" font-size="7.2" font-style="italic" lengthAdjust="spacingAndGlyphs" textLength="76.8" x="144" y="198.4148">ProgrammableDevices</text><line style="stroke: #A80036; stroke-width: 0.8999999999999999;" x1="127.2" x2="222" y1="205.0688" y2="205.0688"/><line style="stroke: #A80036; stroke-width: 0.8999999999999999;" x1="127.2" x2="222" y1="209.8688" y2="209.8688"/><ellipse cx="133.2" cy="216.4688" fill="#84BE84" rx="1.8" ry="1.8" style="stroke: #038048; stroke-width: 0.6;"/><text fill="#000000" font-family="sans-serif" font-size="6.6" font-style="italic" lengthAdjust="spacingAndGlyphs" textLength="54.6" x="138.6" y="219.1201">displayPrograms()</text><ellipse cx="133.2" cy="224.7703" fill="#84BE84" rx="1.8" ry="1.8" style="stroke: #038048; stroke-width: 0.6;"/><text fill="#000000" font-family="sans-serif" font-size="6.6" font-style="italic" lengthAdjust="spacingAndGlyphs" textLength="48" x="138.6" y="227.4217">selectProgram()</text><!--MD5=[ef34e4c09b648cfd22d49a7d933b4101]
class Interfaces.RoboticDevices--><rect fill="#FEFECE" filter="url(#f8g9dr0ksmcb5)" height="62.0062" id="Interfaces.RoboticDevices" style="stroke: #A80036; stroke-width: 0.8999999999999999;" width="85.8" x="243.9" y="177.7687"/><ellipse cx="259.38" cy="187.3688" fill="#B4A7E5" rx="6.6" ry="6.6" style="stroke: #A80036; stroke-width: 0.6;"/><path d="M259.98,185.5688 L259.98,189.1688 L261.18,189.1688 L261.4706,189.1688 L261.78,189.5438 L261.78,189.7687 L261.78,189.9938 L261.4706,190.3688 L261.18,190.3688 L257.58,190.3688 L257.2894,190.3688 L256.98,189.9938 L256.98,189.7687 L256.98,189.5438 L257.2894,189.1688 L257.58,189.1688 L258.78,189.1688 L258.78,185.5688 L257.58,185.5688 L257.2894,185.5688 L256.98,185.1938 L256.98,184.9688 L256.98,184.7438 L257.2894,184.3688 L257.58,184.3688 L261.18,184.3688 L261.4706,184.3688 L261.78,184.7438 L261.78,184.9688 L261.78,185.1938 L261.4706,185.5688 L261.18,185.5688 L259.98,185.5688 Z "/><text fill="#000000" font-family="sans-serif" font-size="7.2" font-style="italic" lengthAdjust="spacingAndGlyphs" textLength="52.2" x="269.22" y="190.3148">RoboticDevices</text><line style="stroke: #A80036; stroke-width: 0.8999999999999999;" x1="244.5" x2="329.1" y1="196.9688" y2="196.9688"/><line style="stroke: #A80036; stroke-width: 0.8999999999999999;" x1="244.5" x2="329.1" y1="201.7687" y2="201.7687"/><ellipse cx="250.5" cy="208.3688" fill="#84BE84" rx="1.8" ry="1.8" style="stroke: #038048; stroke-width: 0.6;"/><text fill="#000000" font-family="sans-serif" font-size="6.6" font-style="italic" lengthAdjust="spacingAndGlyphs" textLength="70.2" x="255.9" y="211.0201">checkBatteryCharging()</text><ellipse cx="250.5" cy="216.6703" fill="#84BE84" rx="1.8" ry="1.8" style="stroke: #038048; stroke-width: 0.6;"/><text fill="#000000" font-family="sans-serif" font-size="6.6" font-style="italic" lengthAdjust="spacingAndGlyphs" textLength="61.8" x="255.9" y="219.3217">checkBatteryStatus()</text><ellipse cx="250.5" cy="224.9719" fill="#84BE84" rx="1.8" ry="1.8" style="stroke: #038048; stroke-width: 0.6;"/><text fill="#000000" font-family="sans-serif" font-size="6.6" font-style="italic" lengthAdjust="spacingAndGlyphs" textLength="56.4" x="255.9" y="227.6232">checkCompletion()</text><ellipse cx="250.5" cy="233.2734" fill="#84BE84" rx="1.8" ry="1.8" style="stroke: #038048; stroke-width: 0.6;"/><text fill="#000000" font-family="sans-serif" font-size="6.6" font-style="italic" lengthAdjust="spacingAndGlyphs" textLength="46.2" x="255.9" y="235.9248">continueWork()</text><!--MD5=[4d9d4ce80598be00a1bc562db8c2f307]
class Interfaces.StationaryDevices--><rect fill="#FEFECE" filter="url(#f8g9dr0ksmcb5)" height="45.4031" id="Interfaces.StationaryDevices" style="stroke: #A80036; stroke-width: 0.8999999999999999;" width="78.6" x="24.9" y="275.5687"/><ellipse cx="33.9" cy="285.1688" fill="#B4A7E5" rx="6.6" ry="6.6" style="stroke: #A80036; stroke-width: 0.6;"/><path d="M34.5,283.3688 L34.5,286.9688 L35.7,286.9688 L35.9906,286.9688 L36.3,287.3438 L36.3,287.5687 L36.3,287.7938 L35.9906,288.1688 L35.7,288.1688 L32.1,288.1688 L31.8094,288.1688 L31.5,287.7938 L31.5,287.5687 L31.5,287.3438 L31.8094,286.9688 L32.1,286.9688 L33.3,286.9688 L33.3,283.3688 L32.1,283.3688 L31.8094,283.3688 L31.5,282.9938 L31.5,282.7688 L31.5,282.5438 L31.8094,282.1688 L32.1,282.1688 L35.7,282.1688 L35.9906,282.1688 L36.3,282.5438 L36.3,282.7688 L36.3,282.9938 L35.9906,283.3688 L35.7,283.3688 L34.5,283.3688 Z "/><text fill="#000000" font-family="sans-serif" font-size="7.2" font-style="italic" lengthAdjust="spacingAndGlyphs" textLength="59.4" x="42.3" y="288.1148">StationaryDevices</text><line style="stroke: #A80036; stroke-width: 0.8999999999999999;" x1="25.5" x2="102.9" y1="294.7688" y2="294.7688"/><line style="stroke: #A80036; stroke-width: 0.8999999999999999;" x1="25.5" x2="102.9" y1="299.5687" y2="299.5687"/><ellipse cx="31.5" cy="306.1688" fill="#84BE84" rx="1.8" ry="1.8" style="stroke: #038048; stroke-width: 0.6;"/><text fill="#000000" font-family="sans-serif" font-size="6.6" font-style="italic" lengthAdjust="spacingAndGlyphs" textLength="32.4" x="36.9" y="308.8201">switchOff()</text><ellipse cx="31.5" cy="314.4703" fill="#84BE84" rx="1.8" ry="1.8" style="stroke: #038048; stroke-width: 0.6;"/><text fill="#000000" font-family="sans-serif" font-size="6.6" font-style="italic" lengthAdjust="spacingAndGlyphs" textLength="32.4" x="36.9" y="317.1217">switchOn()</text><!--MD5=[09bbc053ba00f507a3ccea4e581bf5f7]
class Interfaces.TimeableDevices--><rect fill="#FEFECE" filter="url(#f8g9dr0ksmcb5)" height="45.4031" id="Interfaces.TimeableDevices" style="stroke: #A80036; stroke-width: 0.8999999999999999;" width="77.4" x="124.5" y="275.5687"/><ellipse cx="133.5" cy="285.1688" fill="#B4A7E5" rx="6.6" ry="6.6" style="stroke: #A80036; stroke-width: 0.6;"/><path d="M134.1,283.3688 L134.1,286.9688 L135.3,286.9688 L135.5906,286.9688 L135.9,287.3438 L135.9,287.5687 L135.9,287.7938 L135.5906,288.1688 L135.3,288.1688 L131.7,288.1688 L131.4094,288.1688 L131.1,287.7938 L131.1,287.5687 L131.1,287.3438 L131.4094,286.9688 L131.7,286.9688 L132.9,286.9688 L132.9,283.3688 L131.7,283.3688 L131.4094,283.3688 L131.1,282.9938 L131.1,282.7688 L131.1,282.5438 L131.4094,282.1688 L131.7,282.1688 L135.3,282.1688 L135.5906,282.1688 L135.9,282.5438 L135.9,282.7688 L135.9,282.9938 L135.5906,283.3688 L135.3,283.3688 L134.1,283.3688 Z "/><text fill="#000000" font-family="sans-serif" font-size="7.2" font-style="italic" lengthAdjust="spacingAndGlyphs" textLength="58.2" x="141.9" y="288.1148">TimeableDevices</text><line style="stroke: #A80036; stroke-width: 0.8999999999999999;" x1="125.1" x2="201.3" y1="294.7688" y2="294.7688"/><line style="stroke: #A80036; stroke-width: 0.8999999999999999;" x1="125.1" x2="201.3" y1="299.5687" y2="299.5687"/><ellipse cx="131.1" cy="306.1688" fill="#84BE84" rx="1.8" ry="1.8" style="stroke: #038048; stroke-width: 0.6;"/><text fill="#000000" font-family="sans-serif" font-size="6.6" font-style="italic" lengthAdjust="spacingAndGlyphs" textLength="40.2" x="136.5" y="308.8201">checkTimer()</text><ellipse cx="131.1" cy="314.4703" fill="#84BE84" rx="1.8" ry="1.8" style="stroke: #038048; stroke-width: 0.6;"/><text fill="#000000" font-family="sans-serif" font-size="6.6" font-style="italic" lengthAdjust="spacingAndGlyphs" textLength="31.2" x="136.5" y="317.1217">setTimer()</text><!--MD5=[267a24947de27645ddfdbafe7cd86d8e]
link Interfaces.AllDevices to Interfaces.Command--><!--MD5=[849c785dbe0226f3febe4c8fd691096a]
link Interfaces.Command to Interfaces.DegreeSelectionDevices--><!--MD5=[ba21f299c81dbf377a8abfe8af43cb59]
link Interfaces.AllDevices to Interfaces.HeatBasedDevices--><!--MD5=[d2152e4ba4a3da82ec16a237a3550555]
link Interfaces.HeatBasedDevices to Interfaces.ProgrammableDevices--><!--MD5=[0ff628345c826327075edbf80c9e4c73]
link Interfaces.ProgrammableDevices to Interfaces.RoboticDevices--><!--MD5=[13fa8c69833e4ff34a3c4cb13827b05b]
link Interfaces.HeatBasedDevices to Interfaces.StationaryDevices--><!--MD5=[f7b539a301132be471f7de7b29363e42]
link Interfaces.StationaryDevices to Interfaces.TimeableDevices--><!--MD5=[f1ec286d94d52f705ebd05d31a686704]
@startuml

title __INTERFACES's Class Diagram__\n

  namespace Interfaces {
    interface Interfaces.AllDevices {
        {abstract} + calculateTime()
        {abstract} + displayFunctionMenu()
        {abstract} + getDeviceNr()
        {abstract} + getIsOn()
        {abstract} + interrupt()
        {abstract} + start()
    }
  }
  

  namespace Interfaces {
    interface Interfaces.Command {
        {abstract} + execute()
        {abstract} + undo()
    }
  }
  

  namespace Interfaces {
    interface Interfaces.DegreeSelectionDevices {
        {abstract} + displayDegreeSelection()
        {abstract} + selectDegree()
    }
  }
  

  namespace Interfaces {
    interface Interfaces.HeatBasedDevices {
        {abstract} + setTemperature()
    }
  }
  

  namespace Interfaces {
    interface Interfaces.ProgrammableDevices {
        {abstract} + displayPrograms()
        {abstract} + selectProgram()
    }
  }
  

  namespace Interfaces {
    interface Interfaces.RoboticDevices {
        {abstract} + checkBatteryCharging()
        {abstract} + checkBatteryStatus()
        {abstract} + checkCompletion()
        {abstract} + continueWork()
    }
  }
  

  namespace Interfaces {
    interface Interfaces.StationaryDevices {
        {abstract} + switchOff()
        {abstract} + switchOn()
    }
  }
  

  namespace Interfaces {
    interface Interfaces.TimeableDevices {
        {abstract} + checkTimer()
        {abstract} + setTimer()
    }
  }
  


@enduml

PlantUML version 1.2019.11(Sun Sep 22 12:02:15 CEST 2019)
(GPL source distribution)
Java Runtime: OpenJDK Runtime Environment
JVM: OpenJDK 64-Bit Server VM
Java Version: 11.0.4+10-b304.77
Operating System: Windows 10
Default Encoding: Cp1252
Language: de
Country: DE
--></g></svg>