<?xml version="1.0" encoding="UTF-8" standalone="no"?><svg xmlns="http://www.w3.org/2000/svg" xmlns:xlink="http://www.w3.org/1999/xlink" contentScriptType="application/ecmascript" contentStyleType="text/css" height="679.47px" preserveAspectRatio="none" style="width:651px;height:679px;" version="1.1" viewBox="0 0 651 679" width="651.78px" zoomAndPan="magnify"><defs><filter height="300%" id="fvgj4cx6k8ljx" width="300%" x="-1" y="-1"><feGaussianBlur result="blurOut" stdDeviation="2.13"/><feColorMatrix in="blurOut" result="blurOut2" type="matrix" values="0 0 0 0 0 0 0 0 0 0 0 0 0 0 0 0 0 0 .4 0"/><feOffset dx="4.26" dy="4.26" in="blurOut2" result="blurOut3"/><feBlend in="SourceGraphic" in2="blurOut3" mode="normal"/></filter></defs><g><text fill="#000000" font-family="sans-serif" font-size="19.17" lengthAdjust="spacingAndGlyphs" text-decoration="underline" textLength="263.055" x="187.9725" y="19.9001">INTERFACES's Class Diagram</text><text fill="#000000" font-family="sans-serif" font-size="19.17" lengthAdjust="spacingAndGlyphs" textLength="0" x="322.1625" y="44.0124"/><!--MD5=[0b89f7d34c26fffbb81ea7301eb9df33]
cluster Interfaces--><polygon fill="#FFFFFF" filter="url(#fvgj4cx6k8ljx)" points="23.43,73.7845,105.435,73.7845,112.89,98.9285,602.79,98.9285,602.79,587.1145,23.43,587.1145,23.43,73.7845" style="stroke: #000000; stroke-width: 1.5975;"/><line style="stroke: #000000; stroke-width: 1.5975;" x1="23.43" x2="112.89" y1="98.9285" y2="98.9285"/><text fill="#000000" font-family="sans-serif" font-size="14.91" font-weight="bold" lengthAdjust="spacingAndGlyphs" textLength="75.615" x="27.69" y="91.3924">Interfaces</text><!--MD5=[c3ffee4a2a5f1cf06a036b273f44fafe]
class Interfaces.AllDevices--><rect fill="#FEFECE" filter="url(#fvgj4cx6k8ljx)" height="139.5316" id="Interfaces.AllDevices" style="stroke: #A80036; stroke-width: 1.5975;" width="148.035" x="41.0025" y="112.1245"/><ellipse cx="80.4607" cy="129.1645" fill="#B4A7E5" rx="11.715" ry="11.715" style="stroke: #A80036; stroke-width: 1.065;"/><path d="M81.5257,125.9695 L81.5257,132.3595 L83.6558,132.3595 L84.1716,132.3595 L84.7208,133.0252 L84.7208,133.4245 L84.7208,133.8239 L84.1716,134.4895 L83.6558,134.4895 L77.2658,134.4895 L76.7499,134.4895 L76.2008,133.8239 L76.2008,133.4245 L76.2008,133.0252 L76.7499,132.3595 L77.2658,132.3595 L79.3957,132.3595 L79.3957,125.9695 L77.2658,125.9695 L76.7499,125.9695 L76.2008,125.3039 L76.2008,124.9045 L76.2008,124.5052 L76.7499,123.8395 L77.2658,123.8395 L83.6558,123.8395 L84.1716,123.8395 L84.7208,124.5052 L84.7208,124.9045 L84.7208,125.3039 L84.1716,125.9695 L83.6558,125.9695 L81.5257,125.9695 Z "/><text fill="#000000" font-family="sans-serif" font-size="12.78" font-style="italic" lengthAdjust="spacingAndGlyphs" textLength="61.77" x="100.5892" y="134.3938">AllDevices</text><line style="stroke: #A80036; stroke-width: 1.5975;" x1="42.0675" x2="187.9725" y1="146.2045" y2="146.2045"/><line style="stroke: #A80036; stroke-width: 1.5975;" x1="42.0675" x2="187.9725" y1="154.7245" y2="154.7245"/><ellipse cx="52.7175" cy="166.4395" fill="#84BE84" rx="3.195" ry="3.195" style="stroke: #038048; stroke-width: 1.065;"/><text fill="#000000" font-family="sans-serif" font-size="11.715" font-style="italic" lengthAdjust="spacingAndGlyphs" textLength="83.07" x="62.3025" y="171.1457">calculateTime()</text><ellipse cx="52.7175" cy="181.1748" fill="#84BE84" rx="3.195" ry="3.195" style="stroke: #038048; stroke-width: 1.065;"/><text fill="#000000" font-family="sans-serif" font-size="11.715" font-style="italic" lengthAdjust="spacingAndGlyphs" textLength="120.345" x="62.3025" y="185.881">displayFunctionMenu()</text><ellipse cx="52.7175" cy="195.9101" fill="#84BE84" rx="3.195" ry="3.195" style="stroke: #038048; stroke-width: 1.065;"/><text fill="#000000" font-family="sans-serif" font-size="11.715" font-style="italic" lengthAdjust="spacingAndGlyphs" textLength="73.485" x="62.3025" y="200.6163">getDeviceNr()</text><ellipse cx="52.7175" cy="210.6454" fill="#84BE84" rx="3.195" ry="3.195" style="stroke: #038048; stroke-width: 1.065;"/><text fill="#000000" font-family="sans-serif" font-size="11.715" font-style="italic" lengthAdjust="spacingAndGlyphs" textLength="50.055" x="62.3025" y="215.3515">getIsOn()</text><ellipse cx="52.7175" cy="225.3806" fill="#84BE84" rx="3.195" ry="3.195" style="stroke: #038048; stroke-width: 1.065;"/><text fill="#000000" font-family="sans-serif" font-size="11.715" font-style="italic" lengthAdjust="spacingAndGlyphs" textLength="52.185" x="62.3025" y="230.0868">interrupt()</text><ellipse cx="52.7175" cy="240.1159" fill="#84BE84" rx="3.195" ry="3.195" style="stroke: #038048; stroke-width: 1.065;"/><text fill="#000000" font-family="sans-serif" font-size="11.715" font-style="italic" lengthAdjust="spacingAndGlyphs" textLength="31.95" x="62.3025" y="244.8221">start()</text><!--MD5=[c8c80dd510139023e1f329a0050487e7]
class Interfaces.Command--><rect fill="#FEFECE" filter="url(#fvgj4cx6k8ljx)" height="80.5905" id="Interfaces.Command" style="stroke: #A80036; stroke-width: 1.5975;" width="96.915" x="226.3125" y="141.412"/><ellipse cx="242.2875" cy="158.452" fill="#B4A7E5" rx="11.715" ry="11.715" style="stroke: #A80036; stroke-width: 1.065;"/><path d="M243.3525,155.257 L243.3525,161.647 L245.4825,161.647 L245.9984,161.647 L246.5475,162.3127 L246.5475,162.712 L246.5475,163.1114 L245.9984,163.777 L245.4825,163.777 L239.0925,163.777 L238.5766,163.777 L238.0275,163.1114 L238.0275,162.712 L238.0275,162.3127 L238.5766,161.647 L239.0925,161.647 L241.2225,161.647 L241.2225,155.257 L239.0925,155.257 L238.5766,155.257 L238.0275,154.5914 L238.0275,154.192 L238.0275,153.7927 L238.5766,153.127 L239.0925,153.127 L245.4825,153.127 L245.9984,153.127 L246.5475,153.7927 L246.5475,154.192 L246.5475,154.5914 L245.9984,155.257 L245.4825,155.257 L243.3525,155.257 Z "/><text fill="#000000" font-family="sans-serif" font-size="12.78" font-style="italic" lengthAdjust="spacingAndGlyphs" textLength="62.835" x="257.1975" y="163.6813">Command</text><line style="stroke: #A80036; stroke-width: 1.5975;" x1="227.3775" x2="322.1625" y1="175.492" y2="175.492"/><line style="stroke: #A80036; stroke-width: 1.5975;" x1="227.3775" x2="322.1625" y1="184.012" y2="184.012"/><ellipse cx="238.0275" cy="195.727" fill="#84BE84" rx="3.195" ry="3.195" style="stroke: #038048; stroke-width: 1.065;"/><text fill="#000000" font-family="sans-serif" font-size="11.715" font-style="italic" lengthAdjust="spacingAndGlyphs" textLength="50.055" x="247.6125" y="200.4332">execute()</text><ellipse cx="238.0275" cy="210.4623" fill="#84BE84" rx="3.195" ry="3.195" style="stroke: #038048; stroke-width: 1.065;"/><text fill="#000000" font-family="sans-serif" font-size="11.715" font-style="italic" lengthAdjust="spacingAndGlyphs" textLength="34.08" x="247.6125" y="215.1685">undo()</text><!--MD5=[d58e423c88cd9da34e906221f3e3e38a]
class Interfaces.DegreeSelectionDevices--><rect fill="#FEFECE" filter="url(#fvgj4cx6k8ljx)" height="80.5905" id="Interfaces.DegreeSelectionDevices" style="stroke: #A80036; stroke-width: 1.5975;" width="178.92" x="361.035" y="141.412"/><ellipse cx="377.01" cy="158.452" fill="#B4A7E5" rx="11.715" ry="11.715" style="stroke: #A80036; stroke-width: 1.065;"/><path d="M378.075,155.257 L378.075,161.647 L380.205,161.647 L380.7209,161.647 L381.27,162.3127 L381.27,162.712 L381.27,163.1114 L380.7209,163.777 L380.205,163.777 L373.815,163.777 L373.2991,163.777 L372.75,163.1114 L372.75,162.712 L372.75,162.3127 L373.2991,161.647 L373.815,161.647 L375.945,161.647 L375.945,155.257 L373.815,155.257 L373.2991,155.257 L372.75,154.5914 L372.75,154.192 L372.75,153.7927 L373.2991,153.127 L373.815,153.127 L380.205,153.127 L380.7209,153.127 L381.27,153.7927 L381.27,154.192 L381.27,154.5914 L380.7209,155.257 L380.205,155.257 L378.075,155.257 Z "/><text fill="#000000" font-family="sans-serif" font-size="12.78" font-style="italic" lengthAdjust="spacingAndGlyphs" textLength="144.84" x="391.92" y="163.6813">DegreeSelectionDevices</text><line style="stroke: #A80036; stroke-width: 1.5975;" x1="362.1" x2="538.89" y1="175.492" y2="175.492"/><line style="stroke: #A80036; stroke-width: 1.5975;" x1="362.1" x2="538.89" y1="184.012" y2="184.012"/><ellipse cx="372.75" cy="195.727" fill="#84BE84" rx="3.195" ry="3.195" style="stroke: #038048; stroke-width: 1.065;"/><text fill="#000000" font-family="sans-serif" font-size="11.715" font-style="italic" lengthAdjust="spacingAndGlyphs" textLength="133.125" x="382.335" y="200.4332">displayDegreeSelection()</text><ellipse cx="372.75" cy="210.4623" fill="#84BE84" rx="3.195" ry="3.195" style="stroke: #038048; stroke-width: 1.065;"/><text fill="#000000" font-family="sans-serif" font-size="11.715" font-style="italic" lengthAdjust="spacingAndGlyphs" textLength="78.81" x="382.335" y="215.1685">selectDegree()</text><!--MD5=[75d754cee9ddd28707d7529d688e88bc]
class Interfaces.HeatBasedDevices--><rect fill="#FEFECE" filter="url(#fvgj4cx6k8ljx)" height="65.8553" id="Interfaces.HeatBasedDevices" style="stroke: #A80036; stroke-width: 1.5975;" width="145.905" x="41.0025" y="337.372"/><ellipse cx="56.9775" cy="354.412" fill="#B4A7E5" rx="11.715" ry="11.715" style="stroke: #A80036; stroke-width: 1.065;"/><path d="M58.0425,351.217 L58.0425,357.607 L60.1725,357.607 L60.6884,357.607 L61.2375,358.2727 L61.2375,358.672 L61.2375,359.0714 L60.6884,359.737 L60.1725,359.737 L53.7825,359.737 L53.2666,359.737 L52.7175,359.0714 L52.7175,358.672 L52.7175,358.2727 L53.2666,357.607 L53.7825,357.607 L55.9125,357.607 L55.9125,351.217 L53.7825,351.217 L53.2666,351.217 L52.7175,350.5514 L52.7175,350.152 L52.7175,349.7527 L53.2666,349.087 L53.7825,349.087 L60.1725,349.087 L60.6884,349.087 L61.2375,349.7527 L61.2375,350.152 L61.2375,350.5514 L60.6884,351.217 L60.1725,351.217 L58.0425,351.217 Z "/><text fill="#000000" font-family="sans-serif" font-size="12.78" font-style="italic" lengthAdjust="spacingAndGlyphs" textLength="111.825" x="71.8875" y="359.6413">HeatBasedDevices</text><line style="stroke: #A80036; stroke-width: 1.5975;" x1="42.0675" x2="185.8425" y1="371.452" y2="371.452"/><line style="stroke: #A80036; stroke-width: 1.5975;" x1="42.0675" x2="185.8425" y1="379.972" y2="379.972"/><ellipse cx="52.7175" cy="391.687" fill="#84BE84" rx="3.195" ry="3.195" style="stroke: #038048; stroke-width: 1.065;"/><text fill="#000000" font-family="sans-serif" font-size="11.715" font-style="italic" lengthAdjust="spacingAndGlyphs" textLength="91.59" x="62.3025" y="396.3932">setTemperature()</text><!--MD5=[16b8e881aebc6b84c9f15433e0a22fd2]
class Interfaces.ProgrammableDevices--><rect fill="#FEFECE" filter="url(#fvgj4cx6k8ljx)" height="80.5905" id="Interfaces.ProgrammableDevices" style="stroke: #A80036; stroke-width: 1.5975;" width="170.4" x="224.715" y="329.917"/><ellipse cx="240.69" cy="346.957" fill="#B4A7E5" rx="11.715" ry="11.715" style="stroke: #A80036; stroke-width: 1.065;"/><path d="M241.755,343.762 L241.755,350.152 L243.885,350.152 L244.4009,350.152 L244.95,350.8177 L244.95,351.217 L244.95,351.6164 L244.4009,352.282 L243.885,352.282 L237.495,352.282 L236.9791,352.282 L236.43,351.6164 L236.43,351.217 L236.43,350.8177 L236.9791,350.152 L237.495,350.152 L239.625,350.152 L239.625,343.762 L237.495,343.762 L236.9791,343.762 L236.43,343.0964 L236.43,342.697 L236.43,342.2977 L236.9791,341.632 L237.495,341.632 L243.885,341.632 L244.4009,341.632 L244.95,342.2977 L244.95,342.697 L244.95,343.0964 L244.4009,343.762 L243.885,343.762 L241.755,343.762 Z "/><text fill="#000000" font-family="sans-serif" font-size="12.78" font-style="italic" lengthAdjust="spacingAndGlyphs" textLength="136.32" x="255.6" y="352.1863">ProgrammableDevices</text><line style="stroke: #A80036; stroke-width: 1.5975;" x1="225.78" x2="394.05" y1="363.997" y2="363.997"/><line style="stroke: #A80036; stroke-width: 1.5975;" x1="225.78" x2="394.05" y1="372.517" y2="372.517"/><ellipse cx="236.43" cy="384.232" fill="#84BE84" rx="3.195" ry="3.195" style="stroke: #038048; stroke-width: 1.065;"/><text fill="#000000" font-family="sans-serif" font-size="11.715" font-style="italic" lengthAdjust="spacingAndGlyphs" textLength="96.915" x="246.015" y="388.9382">displayPrograms()</text><ellipse cx="236.43" cy="398.9673" fill="#84BE84" rx="3.195" ry="3.195" style="stroke: #038048; stroke-width: 1.065;"/><text fill="#000000" font-family="sans-serif" font-size="11.715" font-style="italic" lengthAdjust="spacingAndGlyphs" textLength="85.2" x="246.015" y="403.6735">selectProgram()</text><!--MD5=[ef34e4c09b648cfd22d49a7d933b4101]
class Interfaces.RoboticDevices--><rect fill="#FEFECE" filter="url(#fvgj4cx6k8ljx)" height="110.0611" id="Interfaces.RoboticDevices" style="stroke: #A80036; stroke-width: 1.5975;" width="152.295" x="432.9225" y="315.5395"/><ellipse cx="460.3995" cy="332.5795" fill="#B4A7E5" rx="11.715" ry="11.715" style="stroke: #A80036; stroke-width: 1.065;"/><path d="M461.4645,329.3845 L461.4645,335.7745 L463.5945,335.7745 L464.1104,335.7745 L464.6595,336.4402 L464.6595,336.8395 L464.6595,337.2389 L464.1104,337.9045 L463.5945,337.9045 L457.2045,337.9045 L456.6886,337.9045 L456.1395,337.2389 L456.1395,336.8395 L456.1395,336.4402 L456.6886,335.7745 L457.2045,335.7745 L459.3345,335.7745 L459.3345,329.3845 L457.2045,329.3845 L456.6886,329.3845 L456.1395,328.7189 L456.1395,328.3195 L456.1395,327.9202 L456.6886,327.2545 L457.2045,327.2545 L463.5945,327.2545 L464.1104,327.2545 L464.6595,327.9202 L464.6595,328.3195 L464.6595,328.7189 L464.1104,329.3845 L463.5945,329.3845 L461.4645,329.3845 Z "/><text fill="#000000" font-family="sans-serif" font-size="12.78" font-style="italic" lengthAdjust="spacingAndGlyphs" textLength="92.655" x="477.8655" y="337.8088">RoboticDevices</text><line style="stroke: #A80036; stroke-width: 1.5975;" x1="433.9875" x2="584.1525" y1="349.6195" y2="349.6195"/><line style="stroke: #A80036; stroke-width: 1.5975;" x1="433.9875" x2="584.1525" y1="358.1395" y2="358.1395"/><ellipse cx="444.6375" cy="369.8545" fill="#84BE84" rx="3.195" ry="3.195" style="stroke: #038048; stroke-width: 1.065;"/><text fill="#000000" font-family="sans-serif" font-size="11.715" font-style="italic" lengthAdjust="spacingAndGlyphs" textLength="124.605" x="454.2225" y="374.5607">checkBatteryCharging()</text><ellipse cx="444.6375" cy="384.5898" fill="#84BE84" rx="3.195" ry="3.195" style="stroke: #038048; stroke-width: 1.065;"/><text fill="#000000" font-family="sans-serif" font-size="11.715" font-style="italic" lengthAdjust="spacingAndGlyphs" textLength="109.695" x="454.2225" y="389.296">checkBatteryStatus()</text><ellipse cx="444.6375" cy="399.3251" fill="#84BE84" rx="3.195" ry="3.195" style="stroke: #038048; stroke-width: 1.065;"/><text fill="#000000" font-family="sans-serif" font-size="11.715" font-style="italic" lengthAdjust="spacingAndGlyphs" textLength="100.11" x="454.2225" y="404.0313">checkCompletion()</text><ellipse cx="444.6375" cy="414.0604" fill="#84BE84" rx="3.195" ry="3.195" style="stroke: #038048; stroke-width: 1.065;"/><text fill="#000000" font-family="sans-serif" font-size="11.715" font-style="italic" lengthAdjust="spacingAndGlyphs" textLength="82.005" x="454.2225" y="418.7665">continueWork()</text><!--MD5=[4d9d4ce80598be00a1bc562db8c2f307]
class Interfaces.StationaryDevices--><rect fill="#FEFECE" filter="url(#fvgj4cx6k8ljx)" height="80.5905" id="Interfaces.StationaryDevices" style="stroke: #A80036; stroke-width: 1.5975;" width="139.515" x="44.1975" y="489.1345"/><ellipse cx="60.1725" cy="506.1745" fill="#B4A7E5" rx="11.715" ry="11.715" style="stroke: #A80036; stroke-width: 1.065;"/><path d="M61.2375,502.9795 L61.2375,509.3695 L63.3675,509.3695 L63.8834,509.3695 L64.4325,510.0352 L64.4325,510.4345 L64.4325,510.8339 L63.8834,511.4995 L63.3675,511.4995 L56.9775,511.4995 L56.4616,511.4995 L55.9125,510.8339 L55.9125,510.4345 L55.9125,510.0352 L56.4616,509.3695 L56.9775,509.3695 L59.1075,509.3695 L59.1075,502.9795 L56.9775,502.9795 L56.4616,502.9795 L55.9125,502.3139 L55.9125,501.9145 L55.9125,501.5152 L56.4616,500.8495 L56.9775,500.8495 L63.3675,500.8495 L63.8834,500.8495 L64.4325,501.5152 L64.4325,501.9145 L64.4325,502.3139 L63.8834,502.9795 L63.3675,502.9795 L61.2375,502.9795 Z "/><text fill="#000000" font-family="sans-serif" font-size="12.78" font-style="italic" lengthAdjust="spacingAndGlyphs" textLength="105.435" x="75.0825" y="511.4038">StationaryDevices</text><line style="stroke: #A80036; stroke-width: 1.5975;" x1="45.2625" x2="182.6475" y1="523.2145" y2="523.2145"/><line style="stroke: #A80036; stroke-width: 1.5975;" x1="45.2625" x2="182.6475" y1="531.7345" y2="531.7345"/><ellipse cx="55.9125" cy="543.4495" fill="#84BE84" rx="3.195" ry="3.195" style="stroke: #038048; stroke-width: 1.065;"/><text fill="#000000" font-family="sans-serif" font-size="11.715" font-style="italic" lengthAdjust="spacingAndGlyphs" textLength="57.51" x="65.4975" y="548.1557">switchOff()</text><ellipse cx="55.9125" cy="558.1848" fill="#84BE84" rx="3.195" ry="3.195" style="stroke: #038048; stroke-width: 1.065;"/><text fill="#000000" font-family="sans-serif" font-size="11.715" font-style="italic" lengthAdjust="spacingAndGlyphs" textLength="57.51" x="65.4975" y="562.891">switchOn()</text><!--MD5=[09bbc053ba00f507a3ccea4e581bf5f7]
class Interfaces.TimeableDevices--><rect fill="#FEFECE" filter="url(#fvgj4cx6k8ljx)" height="80.5905" id="Interfaces.TimeableDevices" style="stroke: #A80036; stroke-width: 1.5975;" width="137.385" x="220.9875" y="489.1345"/><ellipse cx="236.9625" cy="506.1745" fill="#B4A7E5" rx="11.715" ry="11.715" style="stroke: #A80036; stroke-width: 1.065;"/><path d="M238.0275,502.9795 L238.0275,509.3695 L240.1575,509.3695 L240.6734,509.3695 L241.2225,510.0352 L241.2225,510.4345 L241.2225,510.8339 L240.6734,511.4995 L240.1575,511.4995 L233.7675,511.4995 L233.2516,511.4995 L232.7025,510.8339 L232.7025,510.4345 L232.7025,510.0352 L233.2516,509.3695 L233.7675,509.3695 L235.8975,509.3695 L235.8975,502.9795 L233.7675,502.9795 L233.2516,502.9795 L232.7025,502.3139 L232.7025,501.9145 L232.7025,501.5152 L233.2516,500.8495 L233.7675,500.8495 L240.1575,500.8495 L240.6734,500.8495 L241.2225,501.5152 L241.2225,501.9145 L241.2225,502.3139 L240.6734,502.9795 L240.1575,502.9795 L238.0275,502.9795 Z "/><text fill="#000000" font-family="sans-serif" font-size="12.78" font-style="italic" lengthAdjust="spacingAndGlyphs" textLength="103.305" x="251.8725" y="511.4038">TimeableDevices</text><line style="stroke: #A80036; stroke-width: 1.5975;" x1="222.0525" x2="357.3075" y1="523.2145" y2="523.2145"/><line style="stroke: #A80036; stroke-width: 1.5975;" x1="222.0525" x2="357.3075" y1="531.7345" y2="531.7345"/><ellipse cx="232.7025" cy="543.4495" fill="#84BE84" rx="3.195" ry="3.195" style="stroke: #038048; stroke-width: 1.065;"/><text fill="#000000" font-family="sans-serif" font-size="11.715" font-style="italic" lengthAdjust="spacingAndGlyphs" textLength="71.355" x="242.2875" y="548.1557">checkTimer()</text><ellipse cx="232.7025" cy="558.1848" fill="#84BE84" rx="3.195" ry="3.195" style="stroke: #038048; stroke-width: 1.065;"/><text fill="#000000" font-family="sans-serif" font-size="11.715" font-style="italic" lengthAdjust="spacingAndGlyphs" textLength="55.38" x="242.2875" y="562.891">setTimer()</text><!--MD5=[267a24947de27645ddfdbafe7cd86d8e]
link Interfaces.AllDevices to Interfaces.Command--><!--MD5=[849c785dbe0226f3febe4c8fd691096a]
link Interfaces.Command to Interfaces.DegreeSelectionDevices--><!--MD5=[ba21f299c81dbf377a8abfe8af43cb59]
link Interfaces.AllDevices to Interfaces.HeatBasedDevices--><!--MD5=[d2152e4ba4a3da82ec16a237a3550555]
link Interfaces.HeatBasedDevices to Interfaces.ProgrammableDevices--><!--MD5=[0ff628345c826327075edbf80c9e4c73]
link Interfaces.ProgrammableDevices to Interfaces.RoboticDevices--><!--MD5=[13fa8c69833e4ff34a3c4cb13827b05b]
link Interfaces.HeatBasedDevices to Interfaces.StationaryDevices--><!--MD5=[f7b539a301132be471f7de7b29363e42]
link Interfaces.StationaryDevices to Interfaces.TimeableDevices--><text fill="#888888" font-family="sans-serif" font-size="10.65" lengthAdjust="spacingAndGlyphs" textLength="0" x="639" y="625.8601"/><text fill="#888888" font-family="sans-serif" font-size="10.65" lengthAdjust="spacingAndGlyphs" textLength="0" x="639" y="639.2558"/><text fill="#888888" font-family="sans-serif" font-size="10.65" lengthAdjust="spacingAndGlyphs" textLength="417.48" x="221.52" y="652.6516">PlantUML diagram generated by SketchIt! (https://bitbucket.org/pmesmeur/sketch.it)</text><text fill="#888888" font-family="sans-serif" font-size="10.65" lengthAdjust="spacingAndGlyphs" textLength="419.61" x="219.39" y="666.0473">For more information about this tool, please contact philippe.mesmeur@gmail.com</text><!--MD5=[e522ebc9a3bd9e04b7035f7c870c6c3a]
@startuml

title __INTERFACES's Class Diagram__\n

  namespace Interfaces {
    interface Interfaces.AllDevices {
        {abstract} + calculateTime()
        {abstract} + displayFunctionMenu()
        {abstract} + getDeviceNr()
        {abstract} + getIsOn()
        {abstract} + interrupt()
        {abstract} + start()
    }
  }
  

  namespace Interfaces {
    interface Interfaces.Command {
        {abstract} + execute()
        {abstract} + undo()
    }
  }
  

  namespace Interfaces {
    interface Interfaces.DegreeSelectionDevices {
        {abstract} + displayDegreeSelection()
        {abstract} + selectDegree()
    }
  }
  

  namespace Interfaces {
    interface Interfaces.HeatBasedDevices {
        {abstract} + setTemperature()
    }
  }
  

  namespace Interfaces {
    interface Interfaces.ProgrammableDevices {
        {abstract} + displayPrograms()
        {abstract} + selectProgram()
    }
  }
  

  namespace Interfaces {
    interface Interfaces.RoboticDevices {
        {abstract} + checkBatteryCharging()
        {abstract} + checkBatteryStatus()
        {abstract} + checkCompletion()
        {abstract} + continueWork()
    }
  }
  

  namespace Interfaces {
    interface Interfaces.StationaryDevices {
        {abstract} + switchOff()
        {abstract} + switchOn()
    }
  }
  

  namespace Interfaces {
    interface Interfaces.TimeableDevices {
        {abstract} + checkTimer()
        {abstract} + setTimer()
    }
  }
  



@enduml

PlantUML version 1.2019.11(Sun Sep 22 12:02:15 CEST 2019)
(GPL source distribution)
Java Runtime: OpenJDK Runtime Environment
JVM: OpenJDK 64-Bit Server VM
Java Version: 11.0.4+10-b304.77
Operating System: Windows 10
Default Encoding: Cp1252
Language: de
Country: DE
--></g></svg>