<?xml version="1.0" encoding="UTF-8" standalone="no"?><svg xmlns="http://www.w3.org/2000/svg" xmlns:xlink="http://www.w3.org/1999/xlink" contentScriptType="application/ecmascript" contentStyleType="text/css" height="191.4px" preserveAspectRatio="none" style="width:183px;height:191px;" version="1.1" viewBox="0 0 183 191" width="183.6px" zoomAndPan="magnify"><defs><filter height="300%" id="fvgj4cx6k8ljx" width="300%" x="-1" y="-1"><feGaussianBlur result="blurOut" stdDeviation="0.6"/><feColorMatrix in="blurOut" result="blurOut2" type="matrix" values="0 0 0 0 0 0 0 0 0 0 0 0 0 0 0 0 0 0 .4 0"/><feOffset dx="1.2" dy="1.2" in="blurOut2" result="blurOut3"/><feBlend in="SourceGraphic" in2="blurOut3" mode="normal"/></filter></defs><g><text fill="#000000" font-family="sans-serif" font-size="5.4" lengthAdjust="spacingAndGlyphs" text-decoration="underline" textLength="74.1" x="52.95" y="5.6057">INTERFACES's Class Diagram</text><text fill="#000000" font-family="sans-serif" font-size="5.4" lengthAdjust="spacingAndGlyphs" textLength="0" x="90.75" y="12.3979"/><!--MD5=[0b89f7d34c26fffbb81ea7301eb9df33]
cluster Interfaces--><polygon fill="#FFFFFF" filter="url(#fvgj4cx6k8ljx)" points="6.6,20.7844,29.7,20.7844,31.8,27.8672,169.8,27.8672,169.8,165.3844,6.6,165.3844,6.6,20.7844" style="stroke: #000000; stroke-width: 0.44999999999999996;"/><line style="stroke: #000000; stroke-width: 0.44999999999999996;" x1="6.6" x2="31.8" y1="27.8672" y2="27.8672"/><text fill="#000000" font-family="sans-serif" font-size="4.2" font-weight="bold" lengthAdjust="spacingAndGlyphs" textLength="21.3" x="7.8" y="25.7443">Interfaces</text><!--MD5=[c3ffee4a2a5f1cf06a036b273f44fafe]
class Interfaces.AllDevices--><rect fill="#FEFECE" filter="url(#fvgj4cx6k8ljx)" height="39.3047" id="Interfaces.AllDevices" style="stroke: #A80036; stroke-width: 0.44999999999999996;" width="41.7" x="11.55" y="31.5844"/><ellipse cx="22.665" cy="36.3844" fill="#B4A7E5" rx="3.3" ry="3.3" style="stroke: #A80036; stroke-width: 0.3;"/><path d="M22.965,35.4844 L22.965,37.2844 L23.565,37.2844 L23.7103,37.2844 L23.865,37.4719 L23.865,37.5844 L23.865,37.6969 L23.7103,37.8844 L23.565,37.8844 L21.765,37.8844 L21.6197,37.8844 L21.465,37.6969 L21.465,37.5844 L21.465,37.4719 L21.6197,37.2844 L21.765,37.2844 L22.365,37.2844 L22.365,35.4844 L21.765,35.4844 L21.6197,35.4844 L21.465,35.2969 L21.465,35.1844 L21.465,35.0719 L21.6197,34.8844 L21.765,34.8844 L23.565,34.8844 L23.7103,34.8844 L23.865,35.0719 L23.865,35.1844 L23.865,35.2969 L23.7103,35.4844 L23.565,35.4844 L22.965,35.4844 Z "/><text fill="#000000" font-family="sans-serif" font-size="3.6" font-style="italic" lengthAdjust="spacingAndGlyphs" textLength="17.4" x="28.335" y="37.8574">AllDevices</text><line style="stroke: #A80036; stroke-width: 0.44999999999999996;" x1="11.85" x2="52.95" y1="41.1844" y2="41.1844"/><line style="stroke: #A80036; stroke-width: 0.44999999999999996;" x1="11.85" x2="52.95" y1="43.5844" y2="43.5844"/><ellipse cx="14.85" cy="46.8844" fill="#84BE84" rx="0.9" ry="0.9" style="stroke: #038048; stroke-width: 0.3;"/><text fill="#000000" font-family="sans-serif" font-size="3.3" font-style="italic" lengthAdjust="spacingAndGlyphs" textLength="23.4" x="17.55" y="48.2101">calculateTime()</text><ellipse cx="14.85" cy="51.0352" fill="#84BE84" rx="0.9" ry="0.9" style="stroke: #038048; stroke-width: 0.3;"/><text fill="#000000" font-family="sans-serif" font-size="3.3" font-style="italic" lengthAdjust="spacingAndGlyphs" textLength="33.9" x="17.55" y="52.3608">displayFunctionMenu()</text><ellipse cx="14.85" cy="55.1859" fill="#84BE84" rx="0.9" ry="0.9" style="stroke: #038048; stroke-width: 0.3;"/><text fill="#000000" font-family="sans-serif" font-size="3.3" font-style="italic" lengthAdjust="spacingAndGlyphs" textLength="20.7" x="17.55" y="56.5116">getDeviceNr()</text><ellipse cx="14.85" cy="59.3367" fill="#84BE84" rx="0.9" ry="0.9" style="stroke: #038048; stroke-width: 0.3;"/><text fill="#000000" font-family="sans-serif" font-size="3.3" font-style="italic" lengthAdjust="spacingAndGlyphs" textLength="14.1" x="17.55" y="60.6624">getIsOn()</text><ellipse cx="14.85" cy="63.4875" fill="#84BE84" rx="0.9" ry="0.9" style="stroke: #038048; stroke-width: 0.3;"/><text fill="#000000" font-family="sans-serif" font-size="3.3" font-style="italic" lengthAdjust="spacingAndGlyphs" textLength="14.7" x="17.55" y="64.8132">interrupt()</text><ellipse cx="14.85" cy="67.6383" fill="#84BE84" rx="0.9" ry="0.9" style="stroke: #038048; stroke-width: 0.3;"/><text fill="#000000" font-family="sans-serif" font-size="3.3" font-style="italic" lengthAdjust="spacingAndGlyphs" textLength="9" x="17.55" y="68.964">start()</text><!--MD5=[c8c80dd510139023e1f329a0050487e7]
class Interfaces.Command--><rect fill="#FEFECE" filter="url(#fvgj4cx6k8ljx)" height="22.7016" id="Interfaces.Command" style="stroke: #A80036; stroke-width: 0.44999999999999996;" width="27.3" x="63.75" y="39.8344"/><ellipse cx="68.25" cy="44.6344" fill="#B4A7E5" rx="3.3" ry="3.3" style="stroke: #A80036; stroke-width: 0.3;"/><path d="M68.55,43.7344 L68.55,45.5344 L69.15,45.5344 L69.2953,45.5344 L69.45,45.7219 L69.45,45.8344 L69.45,45.9469 L69.2953,46.1344 L69.15,46.1344 L67.35,46.1344 L67.2047,46.1344 L67.05,45.9469 L67.05,45.8344 L67.05,45.7219 L67.2047,45.5344 L67.35,45.5344 L67.95,45.5344 L67.95,43.7344 L67.35,43.7344 L67.2047,43.7344 L67.05,43.5469 L67.05,43.4344 L67.05,43.3219 L67.2047,43.1344 L67.35,43.1344 L69.15,43.1344 L69.2953,43.1344 L69.45,43.3219 L69.45,43.4344 L69.45,43.5469 L69.2953,43.7344 L69.15,43.7344 L68.55,43.7344 Z "/><text fill="#000000" font-family="sans-serif" font-size="3.6" font-style="italic" lengthAdjust="spacingAndGlyphs" textLength="17.7" x="72.45" y="46.1074">Command</text><line style="stroke: #A80036; stroke-width: 0.44999999999999996;" x1="64.05" x2="90.75" y1="49.4344" y2="49.4344"/><line style="stroke: #A80036; stroke-width: 0.44999999999999996;" x1="64.05" x2="90.75" y1="51.8344" y2="51.8344"/><ellipse cx="67.05" cy="55.1344" fill="#84BE84" rx="0.9" ry="0.9" style="stroke: #038048; stroke-width: 0.3;"/><text fill="#000000" font-family="sans-serif" font-size="3.3" font-style="italic" lengthAdjust="spacingAndGlyphs" textLength="14.1" x="69.75" y="56.4601">execute()</text><ellipse cx="67.05" cy="59.2852" fill="#84BE84" rx="0.9" ry="0.9" style="stroke: #038048; stroke-width: 0.3;"/><text fill="#000000" font-family="sans-serif" font-size="3.3" font-style="italic" lengthAdjust="spacingAndGlyphs" textLength="9.6" x="69.75" y="60.6108">undo()</text><!--MD5=[d58e423c88cd9da34e906221f3e3e38a]
class Interfaces.DegreeSelectionDevices--><rect fill="#FEFECE" filter="url(#fvgj4cx6k8ljx)" height="22.7016" id="Interfaces.DegreeSelectionDevices" style="stroke: #A80036; stroke-width: 0.44999999999999996;" width="50.4" x="101.7" y="39.8344"/><ellipse cx="106.2" cy="44.6344" fill="#B4A7E5" rx="3.3" ry="3.3" style="stroke: #A80036; stroke-width: 0.3;"/><path d="M106.5,43.7344 L106.5,45.5344 L107.1,45.5344 L107.2453,45.5344 L107.4,45.7219 L107.4,45.8344 L107.4,45.9469 L107.2453,46.1344 L107.1,46.1344 L105.3,46.1344 L105.1547,46.1344 L105,45.9469 L105,45.8344 L105,45.7219 L105.1547,45.5344 L105.3,45.5344 L105.9,45.5344 L105.9,43.7344 L105.3,43.7344 L105.1547,43.7344 L105,43.5469 L105,43.4344 L105,43.3219 L105.1547,43.1344 L105.3,43.1344 L107.1,43.1344 L107.2453,43.1344 L107.4,43.3219 L107.4,43.4344 L107.4,43.5469 L107.2453,43.7344 L107.1,43.7344 L106.5,43.7344 Z "/><text fill="#000000" font-family="sans-serif" font-size="3.6" font-style="italic" lengthAdjust="spacingAndGlyphs" textLength="40.8" x="110.4" y="46.1074">DegreeSelectionDevices</text><line style="stroke: #A80036; stroke-width: 0.44999999999999996;" x1="102" x2="151.8" y1="49.4344" y2="49.4344"/><line style="stroke: #A80036; stroke-width: 0.44999999999999996;" x1="102" x2="151.8" y1="51.8344" y2="51.8344"/><ellipse cx="105" cy="55.1344" fill="#84BE84" rx="0.9" ry="0.9" style="stroke: #038048; stroke-width: 0.3;"/><text fill="#000000" font-family="sans-serif" font-size="3.3" font-style="italic" lengthAdjust="spacingAndGlyphs" textLength="37.5" x="107.7" y="56.4601">displayDegreeSelection()</text><ellipse cx="105" cy="59.2852" fill="#84BE84" rx="0.9" ry="0.9" style="stroke: #038048; stroke-width: 0.3;"/><text fill="#000000" font-family="sans-serif" font-size="3.3" font-style="italic" lengthAdjust="spacingAndGlyphs" textLength="22.2" x="107.7" y="60.6108">selectDegree()</text><!--MD5=[75d754cee9ddd28707d7529d688e88bc]
class Interfaces.HeatBasedDevices--><rect fill="#FEFECE" filter="url(#fvgj4cx6k8ljx)" height="18.5508" id="Interfaces.HeatBasedDevices" style="stroke: #A80036; stroke-width: 0.44999999999999996;" width="41.1" x="11.55" y="95.0344"/><ellipse cx="16.05" cy="99.8344" fill="#B4A7E5" rx="3.3" ry="3.3" style="stroke: #A80036; stroke-width: 0.3;"/><path d="M16.35,98.9344 L16.35,100.7344 L16.95,100.7344 L17.0953,100.7344 L17.25,100.9219 L17.25,101.0344 L17.25,101.1469 L17.0953,101.3344 L16.95,101.3344 L15.15,101.3344 L15.0047,101.3344 L14.85,101.1469 L14.85,101.0344 L14.85,100.9219 L15.0047,100.7344 L15.15,100.7344 L15.75,100.7344 L15.75,98.9344 L15.15,98.9344 L15.0047,98.9344 L14.85,98.7469 L14.85,98.6344 L14.85,98.5219 L15.0047,98.3344 L15.15,98.3344 L16.95,98.3344 L17.0953,98.3344 L17.25,98.5219 L17.25,98.6344 L17.25,98.7469 L17.0953,98.9344 L16.95,98.9344 L16.35,98.9344 Z "/><text fill="#000000" font-family="sans-serif" font-size="3.6" font-style="italic" lengthAdjust="spacingAndGlyphs" textLength="31.5" x="20.25" y="101.3074">HeatBasedDevices</text><line style="stroke: #A80036; stroke-width: 0.44999999999999996;" x1="11.85" x2="52.35" y1="104.6344" y2="104.6344"/><line style="stroke: #A80036; stroke-width: 0.44999999999999996;" x1="11.85" x2="52.35" y1="107.0344" y2="107.0344"/><ellipse cx="14.85" cy="110.3344" fill="#84BE84" rx="0.9" ry="0.9" style="stroke: #038048; stroke-width: 0.3;"/><text fill="#000000" font-family="sans-serif" font-size="3.3" font-style="italic" lengthAdjust="spacingAndGlyphs" textLength="25.8" x="17.55" y="111.6601">setTemperature()</text><!--MD5=[16b8e881aebc6b84c9f15433e0a22fd2]
class Interfaces.ProgrammableDevices--><rect fill="#FEFECE" filter="url(#fvgj4cx6k8ljx)" height="22.7016" id="Interfaces.ProgrammableDevices" style="stroke: #A80036; stroke-width: 0.44999999999999996;" width="48" x="63.3" y="92.9344"/><ellipse cx="67.8" cy="97.7344" fill="#B4A7E5" rx="3.3" ry="3.3" style="stroke: #A80036; stroke-width: 0.3;"/><path d="M68.1,96.8344 L68.1,98.6344 L68.7,98.6344 L68.8453,98.6344 L69,98.8219 L69,98.9344 L69,99.0469 L68.8453,99.2344 L68.7,99.2344 L66.9,99.2344 L66.7547,99.2344 L66.6,99.0469 L66.6,98.9344 L66.6,98.8219 L66.7547,98.6344 L66.9,98.6344 L67.5,98.6344 L67.5,96.8344 L66.9,96.8344 L66.7547,96.8344 L66.6,96.6469 L66.6,96.5344 L66.6,96.4219 L66.7547,96.2344 L66.9,96.2344 L68.7,96.2344 L68.8453,96.2344 L69,96.4219 L69,96.5344 L69,96.6469 L68.8453,96.8344 L68.7,96.8344 L68.1,96.8344 Z "/><text fill="#000000" font-family="sans-serif" font-size="3.6" font-style="italic" lengthAdjust="spacingAndGlyphs" textLength="38.4" x="72" y="99.2074">ProgrammableDevices</text><line style="stroke: #A80036; stroke-width: 0.44999999999999996;" x1="63.6" x2="111" y1="102.5344" y2="102.5344"/><line style="stroke: #A80036; stroke-width: 0.44999999999999996;" x1="63.6" x2="111" y1="104.9344" y2="104.9344"/><ellipse cx="66.6" cy="108.2344" fill="#84BE84" rx="0.9" ry="0.9" style="stroke: #038048; stroke-width: 0.3;"/><text fill="#000000" font-family="sans-serif" font-size="3.3" font-style="italic" lengthAdjust="spacingAndGlyphs" textLength="27.3" x="69.3" y="109.5601">displayPrograms()</text><ellipse cx="66.6" cy="112.3852" fill="#84BE84" rx="0.9" ry="0.9" style="stroke: #038048; stroke-width: 0.3;"/><text fill="#000000" font-family="sans-serif" font-size="3.3" font-style="italic" lengthAdjust="spacingAndGlyphs" textLength="24" x="69.3" y="113.7108">selectProgram()</text><!--MD5=[ef34e4c09b648cfd22d49a7d933b4101]
class Interfaces.RoboticDevices--><rect fill="#FEFECE" filter="url(#fvgj4cx6k8ljx)" height="31.0031" id="Interfaces.RoboticDevices" style="stroke: #A80036; stroke-width: 0.44999999999999996;" width="42.9" x="121.95" y="88.8844"/><ellipse cx="129.69" cy="93.6844" fill="#B4A7E5" rx="3.3" ry="3.3" style="stroke: #A80036; stroke-width: 0.3;"/><path d="M129.99,92.7844 L129.99,94.5844 L130.59,94.5844 L130.7353,94.5844 L130.89,94.7719 L130.89,94.8844 L130.89,94.9969 L130.7353,95.1844 L130.59,95.1844 L128.79,95.1844 L128.6447,95.1844 L128.49,94.9969 L128.49,94.8844 L128.49,94.7719 L128.6447,94.5844 L128.79,94.5844 L129.39,94.5844 L129.39,92.7844 L128.79,92.7844 L128.6447,92.7844 L128.49,92.5969 L128.49,92.4844 L128.49,92.3719 L128.6447,92.1844 L128.79,92.1844 L130.59,92.1844 L130.7353,92.1844 L130.89,92.3719 L130.89,92.4844 L130.89,92.5969 L130.7353,92.7844 L130.59,92.7844 L129.99,92.7844 Z "/><text fill="#000000" font-family="sans-serif" font-size="3.6" font-style="italic" lengthAdjust="spacingAndGlyphs" textLength="26.1" x="134.61" y="95.1574">RoboticDevices</text><line style="stroke: #A80036; stroke-width: 0.44999999999999996;" x1="122.25" x2="164.55" y1="98.4844" y2="98.4844"/><line style="stroke: #A80036; stroke-width: 0.44999999999999996;" x1="122.25" x2="164.55" y1="100.8844" y2="100.8844"/><ellipse cx="125.25" cy="104.1844" fill="#84BE84" rx="0.9" ry="0.9" style="stroke: #038048; stroke-width: 0.3;"/><text fill="#000000" font-family="sans-serif" font-size="3.3" font-style="italic" lengthAdjust="spacingAndGlyphs" textLength="35.1" x="127.95" y="105.5101">checkBatteryCharging()</text><ellipse cx="125.25" cy="108.3352" fill="#84BE84" rx="0.9" ry="0.9" style="stroke: #038048; stroke-width: 0.3;"/><text fill="#000000" font-family="sans-serif" font-size="3.3" font-style="italic" lengthAdjust="spacingAndGlyphs" textLength="30.9" x="127.95" y="109.6608">checkBatteryStatus()</text><ellipse cx="125.25" cy="112.4859" fill="#84BE84" rx="0.9" ry="0.9" style="stroke: #038048; stroke-width: 0.3;"/><text fill="#000000" font-family="sans-serif" font-size="3.3" font-style="italic" lengthAdjust="spacingAndGlyphs" textLength="28.2" x="127.95" y="113.8116">checkCompletion()</text><ellipse cx="125.25" cy="116.6367" fill="#84BE84" rx="0.9" ry="0.9" style="stroke: #038048; stroke-width: 0.3;"/><text fill="#000000" font-family="sans-serif" font-size="3.3" font-style="italic" lengthAdjust="spacingAndGlyphs" textLength="23.1" x="127.95" y="117.9624">continueWork()</text><!--MD5=[4d9d4ce80598be00a1bc562db8c2f307]
class Interfaces.StationaryDevices--><rect fill="#FEFECE" filter="url(#fvgj4cx6k8ljx)" height="22.7016" id="Interfaces.StationaryDevices" style="stroke: #A80036; stroke-width: 0.44999999999999996;" width="39.3" x="12.45" y="137.7844"/><ellipse cx="16.95" cy="142.5844" fill="#B4A7E5" rx="3.3" ry="3.3" style="stroke: #A80036; stroke-width: 0.3;"/><path d="M17.25,141.6844 L17.25,143.4844 L17.85,143.4844 L17.9953,143.4844 L18.15,143.6719 L18.15,143.7844 L18.15,143.8969 L17.9953,144.0844 L17.85,144.0844 L16.05,144.0844 L15.9047,144.0844 L15.75,143.8969 L15.75,143.7844 L15.75,143.6719 L15.9047,143.4844 L16.05,143.4844 L16.65,143.4844 L16.65,141.6844 L16.05,141.6844 L15.9047,141.6844 L15.75,141.4969 L15.75,141.3844 L15.75,141.2719 L15.9047,141.0844 L16.05,141.0844 L17.85,141.0844 L17.9953,141.0844 L18.15,141.2719 L18.15,141.3844 L18.15,141.4969 L17.9953,141.6844 L17.85,141.6844 L17.25,141.6844 Z "/><text fill="#000000" font-family="sans-serif" font-size="3.6" font-style="italic" lengthAdjust="spacingAndGlyphs" textLength="29.7" x="21.15" y="144.0574">StationaryDevices</text><line style="stroke: #A80036; stroke-width: 0.44999999999999996;" x1="12.75" x2="51.45" y1="147.3844" y2="147.3844"/><line style="stroke: #A80036; stroke-width: 0.44999999999999996;" x1="12.75" x2="51.45" y1="149.7844" y2="149.7844"/><ellipse cx="15.75" cy="153.0844" fill="#84BE84" rx="0.9" ry="0.9" style="stroke: #038048; stroke-width: 0.3;"/><text fill="#000000" font-family="sans-serif" font-size="3.3" font-style="italic" lengthAdjust="spacingAndGlyphs" textLength="16.2" x="18.45" y="154.4101">switchOff()</text><ellipse cx="15.75" cy="157.2352" fill="#84BE84" rx="0.9" ry="0.9" style="stroke: #038048; stroke-width: 0.3;"/><text fill="#000000" font-family="sans-serif" font-size="3.3" font-style="italic" lengthAdjust="spacingAndGlyphs" textLength="16.2" x="18.45" y="158.5608">switchOn()</text><!--MD5=[09bbc053ba00f507a3ccea4e581bf5f7]
class Interfaces.TimeableDevices--><rect fill="#FEFECE" filter="url(#fvgj4cx6k8ljx)" height="22.7016" id="Interfaces.TimeableDevices" style="stroke: #A80036; stroke-width: 0.44999999999999996;" width="38.7" x="62.25" y="137.7844"/><ellipse cx="66.75" cy="142.5844" fill="#B4A7E5" rx="3.3" ry="3.3" style="stroke: #A80036; stroke-width: 0.3;"/><path d="M67.05,141.6844 L67.05,143.4844 L67.65,143.4844 L67.7953,143.4844 L67.95,143.6719 L67.95,143.7844 L67.95,143.8969 L67.7953,144.0844 L67.65,144.0844 L65.85,144.0844 L65.7047,144.0844 L65.55,143.8969 L65.55,143.7844 L65.55,143.6719 L65.7047,143.4844 L65.85,143.4844 L66.45,143.4844 L66.45,141.6844 L65.85,141.6844 L65.7047,141.6844 L65.55,141.4969 L65.55,141.3844 L65.55,141.2719 L65.7047,141.0844 L65.85,141.0844 L67.65,141.0844 L67.7953,141.0844 L67.95,141.2719 L67.95,141.3844 L67.95,141.4969 L67.7953,141.6844 L67.65,141.6844 L67.05,141.6844 Z "/><text fill="#000000" font-family="sans-serif" font-size="3.6" font-style="italic" lengthAdjust="spacingAndGlyphs" textLength="29.1" x="70.95" y="144.0574">TimeableDevices</text><line style="stroke: #A80036; stroke-width: 0.44999999999999996;" x1="62.55" x2="100.65" y1="147.3844" y2="147.3844"/><line style="stroke: #A80036; stroke-width: 0.44999999999999996;" x1="62.55" x2="100.65" y1="149.7844" y2="149.7844"/><ellipse cx="65.55" cy="153.0844" fill="#84BE84" rx="0.9" ry="0.9" style="stroke: #038048; stroke-width: 0.3;"/><text fill="#000000" font-family="sans-serif" font-size="3.3" font-style="italic" lengthAdjust="spacingAndGlyphs" textLength="20.1" x="68.25" y="154.4101">checkTimer()</text><ellipse cx="65.55" cy="157.2352" fill="#84BE84" rx="0.9" ry="0.9" style="stroke: #038048; stroke-width: 0.3;"/><text fill="#000000" font-family="sans-serif" font-size="3.3" font-style="italic" lengthAdjust="spacingAndGlyphs" textLength="15.6" x="68.25" y="158.5608">setTimer()</text><!--MD5=[267a24947de27645ddfdbafe7cd86d8e]
link Interfaces.AllDevices to Interfaces.Command--><!--MD5=[849c785dbe0226f3febe4c8fd691096a]
link Interfaces.Command to Interfaces.DegreeSelectionDevices--><!--MD5=[ba21f299c81dbf377a8abfe8af43cb59]
link Interfaces.AllDevices to Interfaces.HeatBasedDevices--><!--MD5=[d2152e4ba4a3da82ec16a237a3550555]
link Interfaces.HeatBasedDevices to Interfaces.ProgrammableDevices--><!--MD5=[0ff628345c826327075edbf80c9e4c73]
link Interfaces.ProgrammableDevices to Interfaces.RoboticDevices--><!--MD5=[13fa8c69833e4ff34a3c4cb13827b05b]
link Interfaces.HeatBasedDevices to Interfaces.StationaryDevices--><!--MD5=[f7b539a301132be471f7de7b29363e42]
link Interfaces.StationaryDevices to Interfaces.TimeableDevices--><text fill="#888888" font-family="sans-serif" font-size="3" lengthAdjust="spacingAndGlyphs" textLength="0" x="180" y="176.2986"/><text fill="#888888" font-family="sans-serif" font-size="3" lengthAdjust="spacingAndGlyphs" textLength="0" x="180" y="180.0721"/><text fill="#888888" font-family="sans-serif" font-size="3" lengthAdjust="spacingAndGlyphs" textLength="117.6" x="62.4" y="183.8455">PlantUML diagram generated by SketchIt! (https://bitbucket.org/pmesmeur/sketch.it)</text><text fill="#888888" font-family="sans-serif" font-size="3" lengthAdjust="spacingAndGlyphs" textLength="118.2" x="61.8" y="187.6189">For more information about this tool, please contact philippe.mesmeur@gmail.com</text><!--MD5=[4f3f8cd133a4d0f59c5edcaf63fe6be5]
@startuml

title __INTERFACES's Class Diagram__\n

  namespace Interfaces {
    interface Interfaces.AllDevices {
        {abstract} + calculateTime()
        {abstract} + displayFunctionMenu()
        {abstract} + getDeviceNr()
        {abstract} + getIsOn()
        {abstract} + interrupt()
        {abstract} + start()
    }
  }
  

  namespace Interfaces {
    interface Interfaces.Command {
        {abstract} + execute()
        {abstract} + undo()
    }
  }
  

  namespace Interfaces {
    interface Interfaces.DegreeSelectionDevices {
        {abstract} + displayDegreeSelection()
        {abstract} + selectDegree()
    }
  }
  

  namespace Interfaces {
    interface Interfaces.HeatBasedDevices {
        {abstract} + setTemperature()
    }
  }
  

  namespace Interfaces {
    interface Interfaces.ProgrammableDevices {
        {abstract} + displayPrograms()
        {abstract} + selectProgram()
    }
  }
  

  namespace Interfaces {
    interface Interfaces.RoboticDevices {
        {abstract} + checkBatteryCharging()
        {abstract} + checkBatteryStatus()
        {abstract} + checkCompletion()
        {abstract} + continueWork()
    }
  }
  

  namespace Interfaces {
    interface Interfaces.StationaryDevices {
        {abstract} + switchOff()
        {abstract} + switchOn()
    }
  }
  

  namespace Interfaces {
    interface Interfaces.TimeableDevices {
        {abstract} + checkTimer()
        {abstract} + setTimer()
    }
  }
  



right footer


PlantUML diagram generated by SketchIt! (https://bitbucket.org/pmesmeur/sketch.it)
For more information about this tool, please contact philippe.mesmeur@gmail.com
endfooter

@enduml

PlantUML version 1.2019.11(Sun Sep 22 12:02:15 CEST 2019)
(GPL source distribution)
Java Runtime: OpenJDK Runtime Environment
JVM: OpenJDK 64-Bit Server VM
Java Version: 11.0.4+10-b304.77
Operating System: Windows 10
Default Encoding: Cp1252
Language: de
Country: CH
--></g></svg>