<?xml version="1.0" encoding="UTF-8" standalone="no"?><svg xmlns="http://www.w3.org/2000/svg" xmlns:xlink="http://www.w3.org/1999/xlink" contentScriptType="application/ecmascript" contentStyleType="text/css" height="397.2px" preserveAspectRatio="none" style="width:760px;height:397px;" version="1.1" viewBox="0 0 760 397" width="760.2px" zoomAndPan="magnify"><defs><filter height="300%" id="ffk8zkmr8j4j" width="300%" x="-1" y="-1"><feGaussianBlur result="blurOut" stdDeviation="1.2"/><feColorMatrix in="blurOut" result="blurOut2" type="matrix" values="0 0 0 0 0 0 0 0 0 0 0 0 0 0 0 0 0 0 .4 0"/><feOffset dx="2.4" dy="2.4" in="blurOut2" result="blurOut3"/><feBlend in="SourceGraphic" in2="blurOut3" mode="normal"/></filter></defs><g><text fill="#000000" font-family="sans-serif" font-size="10.8" lengthAdjust="spacingAndGlyphs" text-decoration="underline" textLength="103.8" x="331.8" y="11.2113">UTIL's Class Diagram</text><text fill="#000000" font-family="sans-serif" font-size="10.8" lengthAdjust="spacingAndGlyphs" textLength="0" x="385.2" y="24.7957"/><!--MD5=[a55135535b5c544b99c33b17428c3b14]
cluster Util--><polygon fill="#FFFFFF" filter="url(#ffk8zkmr8j4j)" points="13.2,115.9688,30.6,115.9688,34.8,130.1344,747,130.1344,747,390.1688,13.2,390.1688,13.2,115.9688" style="stroke: #000000; stroke-width: 0.8999999999999999;"/><line style="stroke: #000000; stroke-width: 0.8999999999999999;" x1="13.2" x2="34.8" y1="130.1344" y2="130.1344"/><text fill="#000000" font-family="sans-serif" font-size="8.4" font-weight="bold" lengthAdjust="spacingAndGlyphs" textLength="13.8" x="15.6" y="125.8887">Util</text><!--MD5=[aa8f7b917213fcc1c2766e2d59b49067]
cluster java.lang--><polygon fill="#FFFFFF" filter="url(#ffk8zkmr8j4j)" points="232.2,41.5688,273.6,41.5688,277.8,55.7344,303,55.7344,303,101.5688,232.2,101.5688,232.2,41.5688" style="stroke: #000000; stroke-width: 0.8999999999999999;"/><line style="stroke: #000000; stroke-width: 0.8999999999999999;" x1="232.2" x2="277.8" y1="55.7344" y2="55.7344"/><text fill="#000000" font-family="sans-serif" font-size="8.4" font-weight="bold" lengthAdjust="spacingAndGlyphs" textLength="37.8" x="234.6" y="51.4887">java.lang</text><!--MD5=[55ceab3a75b64053642b6f6993bde510]
class Util.DeviceButtons--><rect fill="#FEFECE" filter="url(#ffk8zkmr8j4j)" height="70.3078" id="Util.DeviceButtons" style="stroke: #A80036; stroke-width: 0.8999999999999999;" width="104.4" x="529.2" y="141.7687"/><ellipse cx="555.21" cy="151.3688" fill="#ADD1B2" rx="6.6" ry="6.6" style="stroke: #A80036; stroke-width: 0.6;"/><path d="M556.41,149.2687 Q556.5319,148.9688 556.6725,148.8188 Q556.8131,148.6688 556.9725,148.6688 Q557.2538,148.6688 557.4319,148.8375 Q557.61,149.0063 557.61,149.4 L557.61,150.3375 Q557.61,150.7313 557.4413,150.9 Q557.2725,151.0688 557.01,151.0688 Q556.7756,151.0688 556.6256,150.9656 Q556.4756,150.8625 556.41,150.5906 Q556.3819,150.4031 556.2788,150.3 Q556.0913,150.1031 555.7538,149.9906 Q555.4163,149.8688 555.0788,149.8688 Q554.6569,149.8688 554.3006,150.0375 Q553.9538,150.2062 553.6819,150.5812 Q553.41,150.9562 553.41,151.4719 L553.41,152.025 Q553.41,152.6437 553.9163,153.0563 Q554.4225,153.4688 555.3225,153.4688 Q555.8569,153.4688 556.2319,153.3469 Q556.4475,153.2813 556.6913,153.0656 Q556.8506,152.9438 556.935,152.9063 Q557.0194,152.8688 557.1225,152.8688 Q557.3194,152.8688 557.46,153.0281 Q557.61,153.1781 557.61,153.3937 Q557.61,153.6 557.4038,153.8438 Q557.1038,154.2 556.6256,154.3969 Q555.9975,154.6688 555.2288,154.6688 Q554.3288,154.6688 553.6069,154.3125 Q553.0256,154.0313 552.6131,153.4219 Q552.21,152.8125 552.21,152.0906 L552.21,151.4344 Q552.21,150.6844 552.5663,150.0281 Q552.9319,149.3719 553.56,149.025 Q554.1975,148.6688 554.91,148.6688 Q555.3413,148.6688 555.7163,148.8188 Q556.0913,148.9688 556.41,149.2687 Z "/><text fill="#000000" font-family="sans-serif" font-size="7.2" lengthAdjust="spacingAndGlyphs" textLength="47.4" x="567.39" y="154.3148">DeviceButtons</text><line style="stroke: #A80036; stroke-width: 0.8999999999999999;" x1="529.8" x2="633" y1="160.9688" y2="160.9688"/><polygon fill="none" points="535.8,165.1688,533.4,168.7687,538.2,168.7687" style="stroke: #1963A0; stroke-width: 0.6;"/><text fill="#000000" font-family="sans-serif" font-size="6.6" lengthAdjust="spacingAndGlyphs" textLength="88.8" x="541.2" y="170.2201">commandList : List&lt;Command&gt;</text><line style="stroke: #A80036; stroke-width: 0.8999999999999999;" x1="529.8" x2="633" y1="174.0703" y2="174.0703"/><ellipse cx="535.8" cy="180.6703" fill="#84BE84" rx="1.8" ry="1.8" style="stroke: #038048; stroke-width: 0.6;"/><text fill="#000000" font-family="sans-serif" font-size="6.6" lengthAdjust="spacingAndGlyphs" textLength="46.8" x="541.2" y="183.3217">DeviceButtons()</text><ellipse cx="535.8" cy="188.9719" fill="#84BE84" rx="1.8" ry="1.8" style="stroke: #038048; stroke-width: 0.6;"/><text fill="#000000" font-family="sans-serif" font-size="6.6" lengthAdjust="spacingAndGlyphs" textLength="62.4" x="541.2" y="191.6232">addButtonCommand()</text><ellipse cx="535.8" cy="197.2734" fill="#84BE84" rx="1.8" ry="1.8" style="stroke: #038048; stroke-width: 0.6;"/><text fill="#000000" font-family="sans-serif" font-size="6.6" lengthAdjust="spacingAndGlyphs" textLength="21.6" x="541.2" y="199.9248">press()</text><ellipse cx="535.8" cy="205.575" fill="#84BE84" rx="1.8" ry="1.8" style="stroke: #038048; stroke-width: 0.6;"/><text fill="#000000" font-family="sans-serif" font-size="6.6" lengthAdjust="spacingAndGlyphs" textLength="36.6" x="541.2" y="208.2264">pressUndo()</text><!--MD5=[8d7b9165088683794b83354091141d4f]
class Util.MyThread--><rect fill="#FEFECE" filter="url(#ffk8zkmr8j4j)" height="78.6094" id="Util.MyThread" style="stroke: #A80036; stroke-width: 0.8999999999999999;" width="65.4" x="442.5" y="137.5688"/><ellipse cx="457.98" cy="147.1688" fill="#ADD1B2" rx="6.6" ry="6.6" style="stroke: #A80036; stroke-width: 0.6;"/><path d="M459.18,145.0688 Q459.3019,144.7687 459.4425,144.6188 Q459.5831,144.4688 459.7425,144.4688 Q460.0237,144.4688 460.2019,144.6375 Q460.38,144.8063 460.38,145.2 L460.38,146.1375 Q460.38,146.5313 460.2112,146.7 Q460.0425,146.8688 459.78,146.8688 Q459.5456,146.8688 459.3956,146.7656 Q459.2456,146.6625 459.18,146.3906 Q459.1519,146.2031 459.0488,146.1 Q458.8613,145.9031 458.5237,145.7906 Q458.1863,145.6688 457.8487,145.6688 Q457.4269,145.6688 457.0706,145.8375 Q456.7237,146.0063 456.4519,146.3813 Q456.18,146.7563 456.18,147.2719 L456.18,147.825 Q456.18,148.4438 456.6863,148.8563 Q457.1925,149.2687 458.0925,149.2687 Q458.6269,149.2687 459.0019,149.1469 Q459.2175,149.0812 459.4612,148.8656 Q459.6206,148.7438 459.705,148.7062 Q459.7894,148.6688 459.8925,148.6688 Q460.0894,148.6688 460.23,148.8281 Q460.38,148.9781 460.38,149.1938 Q460.38,149.4 460.1738,149.6437 Q459.8738,150 459.3956,150.1969 Q458.7675,150.4688 457.9988,150.4688 Q457.0987,150.4688 456.3769,150.1125 Q455.7956,149.8312 455.3831,149.2219 Q454.98,148.6125 454.98,147.8906 L454.98,147.2344 Q454.98,146.4844 455.3362,145.8281 Q455.7019,145.1719 456.33,144.825 Q456.9675,144.4688 457.68,144.4688 Q458.1113,144.4688 458.4863,144.6188 Q458.8613,144.7687 459.18,145.0688 Z "/><text fill="#000000" font-family="sans-serif" font-size="7.2" lengthAdjust="spacingAndGlyphs" textLength="31.8" x="467.82" y="150.1148">MyThread</text><line style="stroke: #A80036; stroke-width: 0.8999999999999999;" x1="443.1" x2="507.3" y1="156.7687" y2="156.7687"/><rect fill="none" height="3.6" style="stroke: #C82930; stroke-width: 0.6;" width="3.6" x="447.3" y="161.5688"/><text fill="#000000" font-family="sans-serif" font-size="6.6" lengthAdjust="spacingAndGlyphs" textLength="49.8" x="454.5" y="166.0201">running : boolean</text><rect fill="none" height="3.6" style="stroke: #C82930; stroke-width: 0.6;" width="3.6" x="447.3" y="169.8703"/><text fill="#000000" font-family="sans-serif" font-size="6.6" lengthAdjust="spacingAndGlyphs" textLength="37.2" x="454.5" y="174.3217">seconds : int</text><line style="stroke: #A80036; stroke-width: 0.8999999999999999;" x1="443.1" x2="507.3" y1="178.1719" y2="178.1719"/><ellipse cx="449.1" cy="184.7719" fill="#84BE84" rx="1.8" ry="1.8" style="stroke: #038048; stroke-width: 0.6;"/><text fill="#000000" font-family="sans-serif" font-size="6.6" lengthAdjust="spacingAndGlyphs" textLength="33.6" x="454.5" y="187.4232">MyThread()</text><ellipse cx="449.1" cy="193.0734" fill="#84BE84" rx="1.8" ry="1.8" style="stroke: #038048; stroke-width: 0.6;"/><text fill="#000000" font-family="sans-serif" font-size="6.6" lengthAdjust="spacingAndGlyphs" textLength="33" x="454.5" y="195.7248">isRunning()</text><ellipse cx="449.1" cy="201.375" fill="#84BE84" rx="1.8" ry="1.8" style="stroke: #038048; stroke-width: 0.6;"/><text fill="#000000" font-family="sans-serif" font-size="6.6" lengthAdjust="spacingAndGlyphs" textLength="14.4" x="454.5" y="204.0264">run()</text><ellipse cx="449.1" cy="209.6766" fill="#84BE84" rx="1.8" ry="1.8" style="stroke: #038048; stroke-width: 0.6;"/><text fill="#000000" font-family="sans-serif" font-size="6.6" lengthAdjust="spacingAndGlyphs" textLength="27" x="454.5" y="212.3279">setTime()</text><!--MD5=[a01ab0e26b41bd4d5af6c5b69dd24f75]
class Util.RoboRechargeThread--><rect fill="#FEFECE" filter="url(#ffk8zkmr8j4j)" height="78.6094" id="Util.RoboRechargeThread" style="stroke: #A80036; stroke-width: 0.8999999999999999;" width="93" x="328.5" y="137.5688"/><ellipse cx="337.5" cy="147.1688" fill="#ADD1B2" rx="6.6" ry="6.6" style="stroke: #A80036; stroke-width: 0.6;"/><path d="M338.7,145.0688 Q338.8219,144.7687 338.9625,144.6188 Q339.1031,144.4688 339.2625,144.4688 Q339.5438,144.4688 339.7219,144.6375 Q339.9,144.8063 339.9,145.2 L339.9,146.1375 Q339.9,146.5313 339.7313,146.7 Q339.5625,146.8688 339.3,146.8688 Q339.0656,146.8688 338.9156,146.7656 Q338.7656,146.6625 338.7,146.3906 Q338.6719,146.2031 338.5687,146.1 Q338.3812,145.9031 338.0438,145.7906 Q337.7063,145.6688 337.3688,145.6688 Q336.9469,145.6688 336.5906,145.8375 Q336.2438,146.0063 335.9719,146.3813 Q335.7,146.7563 335.7,147.2719 L335.7,147.825 Q335.7,148.4438 336.2063,148.8563 Q336.7125,149.2687 337.6125,149.2687 Q338.1469,149.2687 338.5219,149.1469 Q338.7375,149.0812 338.9813,148.8656 Q339.1406,148.7438 339.225,148.7062 Q339.3094,148.6688 339.4125,148.6688 Q339.6094,148.6688 339.75,148.8281 Q339.9,148.9781 339.9,149.1938 Q339.9,149.4 339.6937,149.6437 Q339.3938,150 338.9156,150.1969 Q338.2875,150.4688 337.5188,150.4688 Q336.6188,150.4688 335.8969,150.1125 Q335.3156,149.8312 334.9031,149.2219 Q334.5,148.6125 334.5,147.8906 L334.5,147.2344 Q334.5,146.4844 334.8563,145.8281 Q335.2219,145.1719 335.85,144.825 Q336.4875,144.4688 337.2,144.4688 Q337.6312,144.4688 338.0062,144.6188 Q338.3812,144.7687 338.7,145.0688 Z "/><text fill="#000000" font-family="sans-serif" font-size="7.2" lengthAdjust="spacingAndGlyphs" textLength="73.8" x="345.9" y="150.1148">RoboRechargeThread</text><line style="stroke: #A80036; stroke-width: 0.8999999999999999;" x1="329.1" x2="420.9" y1="156.7687" y2="156.7687"/><rect fill="none" height="3.6" style="stroke: #C82930; stroke-width: 0.6;" width="3.6" x="333.3" y="161.5688"/><text fill="#000000" font-family="sans-serif" font-size="6.6" lengthAdjust="spacingAndGlyphs" textLength="49.8" x="340.5" y="166.0201">running : boolean</text><rect fill="none" height="3.6" style="stroke: #C82930; stroke-width: 0.6;" width="3.6" x="333.3" y="169.8703"/><text fill="#000000" font-family="sans-serif" font-size="6.6" lengthAdjust="spacingAndGlyphs" textLength="37.2" x="340.5" y="174.3217">seconds : int</text><line style="stroke: #A80036; stroke-width: 0.8999999999999999;" x1="329.1" x2="420.9" y1="178.1719" y2="178.1719"/><ellipse cx="335.1" cy="184.7719" fill="#84BE84" rx="1.8" ry="1.8" style="stroke: #038048; stroke-width: 0.6;"/><text fill="#000000" font-family="sans-serif" font-size="6.6" lengthAdjust="spacingAndGlyphs" textLength="68.4" x="340.5" y="187.4232">RoboRechargeThread()</text><ellipse cx="335.1" cy="193.0734" fill="#84BE84" rx="1.8" ry="1.8" style="stroke: #038048; stroke-width: 0.6;"/><text fill="#000000" font-family="sans-serif" font-size="6.6" lengthAdjust="spacingAndGlyphs" textLength="33" x="340.5" y="195.7248">isRunning()</text><ellipse cx="335.1" cy="201.375" fill="#84BE84" rx="1.8" ry="1.8" style="stroke: #038048; stroke-width: 0.6;"/><text fill="#000000" font-family="sans-serif" font-size="6.6" lengthAdjust="spacingAndGlyphs" textLength="14.4" x="340.5" y="204.0264">run()</text><ellipse cx="335.1" cy="209.6766" fill="#84BE84" rx="1.8" ry="1.8" style="stroke: #038048; stroke-width: 0.6;"/><text fill="#000000" font-family="sans-serif" font-size="6.6" lengthAdjust="spacingAndGlyphs" textLength="27" x="340.5" y="212.3279">setTime()</text><!--MD5=[63fab902b45703f145104fe04a7457f1]
class Util.SmartPhone--><rect fill="#FEFECE" filter="url(#ffk8zkmr8j4j)" height="78.6094" id="Util.SmartPhone" style="stroke: #A80036; stroke-width: 0.8999999999999999;" width="82.2" x="654.9" y="137.5688"/><ellipse cx="673.62" cy="147.1688" fill="#ADD1B2" rx="6.6" ry="6.6" style="stroke: #A80036; stroke-width: 0.6;"/><path d="M674.82,145.0688 Q674.9419,144.7687 675.0825,144.6188 Q675.2231,144.4688 675.3825,144.4688 Q675.6638,144.4688 675.8419,144.6375 Q676.02,144.8063 676.02,145.2 L676.02,146.1375 Q676.02,146.5313 675.8513,146.7 Q675.6825,146.8688 675.42,146.8688 Q675.1856,146.8688 675.0356,146.7656 Q674.8856,146.6625 674.82,146.3906 Q674.7919,146.2031 674.6888,146.1 Q674.5013,145.9031 674.1638,145.7906 Q673.8263,145.6688 673.4888,145.6688 Q673.0669,145.6688 672.7106,145.8375 Q672.3638,146.0063 672.0919,146.3813 Q671.82,146.7563 671.82,147.2719 L671.82,147.825 Q671.82,148.4438 672.3263,148.8563 Q672.8325,149.2687 673.7325,149.2687 Q674.2669,149.2687 674.6419,149.1469 Q674.8575,149.0812 675.1013,148.8656 Q675.2606,148.7438 675.345,148.7062 Q675.4294,148.6688 675.5325,148.6688 Q675.7294,148.6688 675.87,148.8281 Q676.02,148.9781 676.02,149.1938 Q676.02,149.4 675.8138,149.6437 Q675.5138,150 675.0356,150.1969 Q674.4075,150.4688 673.6388,150.4688 Q672.7388,150.4688 672.0169,150.1125 Q671.4356,149.8312 671.0231,149.2219 Q670.62,148.6125 670.62,147.8906 L670.62,147.2344 Q670.62,146.4844 670.9763,145.8281 Q671.3419,145.1719 671.97,144.825 Q672.6075,144.4688 673.32,144.4688 Q673.7513,144.4688 674.1263,144.6188 Q674.5013,144.7687 674.82,145.0688 Z "/><text fill="#000000" font-family="sans-serif" font-size="7.2" lengthAdjust="spacingAndGlyphs" textLength="41.4" x="684.18" y="150.1148">SmartPhone</text><line style="stroke: #A80036; stroke-width: 0.8999999999999999;" x1="655.5" x2="736.5" y1="156.7687" y2="156.7687"/><ellipse cx="661.5" cy="163.3688" fill="none" rx="1.8" ry="1.8" style="stroke: #038048; stroke-width: 0.6;"/><text fill="#000000" font-family="sans-serif" font-size="6.6" lengthAdjust="spacingAndGlyphs" text-decoration="underline" textLength="45.6" x="666.9" y="166.0201">DEVICE_NR : int</text><line style="stroke: #A80036; stroke-width: 0.8999999999999999;" x1="655.5" x2="736.5" y1="169.8703" y2="169.8703"/><ellipse cx="661.5" cy="176.4703" fill="#84BE84" rx="1.8" ry="1.8" style="stroke: #038048; stroke-width: 0.6;"/><text fill="#000000" font-family="sans-serif" font-size="6.6" lengthAdjust="spacingAndGlyphs" text-decoration="underline" textLength="55.2" x="666.9" y="179.1217">getCleaningRobot()</text><ellipse cx="661.5" cy="184.7719" fill="#84BE84" rx="1.8" ry="1.8" style="stroke: #038048; stroke-width: 0.6;"/><text fill="#000000" font-family="sans-serif" font-size="6.6" lengthAdjust="spacingAndGlyphs" text-decoration="underline" textLength="49.2" x="666.9" y="187.4232">getDishwasher()</text><ellipse cx="661.5" cy="193.0734" fill="#84BE84" rx="1.8" ry="1.8" style="stroke: #038048; stroke-width: 0.6;"/><text fill="#000000" font-family="sans-serif" font-size="6.6" lengthAdjust="spacingAndGlyphs" text-decoration="underline" textLength="46.2" x="666.9" y="195.7248">getMicroWave()</text><ellipse cx="661.5" cy="201.375" fill="#84BE84" rx="1.8" ry="1.8" style="stroke: #038048; stroke-width: 0.6;"/><text fill="#000000" font-family="sans-serif" font-size="6.6" lengthAdjust="spacingAndGlyphs" text-decoration="underline" textLength="29.4" x="666.9" y="204.0264">getOven()</text><ellipse cx="661.5" cy="209.6766" fill="#84BE84" rx="1.8" ry="1.8" style="stroke: #038048; stroke-width: 0.6;"/><text fill="#000000" font-family="sans-serif" font-size="6.6" lengthAdjust="spacingAndGlyphs" text-decoration="underline" textLength="66.6" x="666.9" y="212.3279">getWashingMaschine()</text><!--MD5=[5f6bea60977109878c1a5479b7985aea]
class Util.UseSmartPhone--><rect fill="#FEFECE" filter="url(#ffk8zkmr8j4j)" height="128.4188" id="Util.UseSmartPhone" style="stroke: #A80036; stroke-width: 0.8999999999999999;" width="119.4" x="521.7" y="252.1688"/><ellipse cx="551.25" cy="261.7688" fill="#ADD1B2" rx="6.6" ry="6.6" style="stroke: #A80036; stroke-width: 0.6;"/><path d="M552.45,259.6688 Q552.5719,259.3688 552.7125,259.2188 Q552.8531,259.0687 553.0125,259.0687 Q553.2937,259.0687 553.4719,259.2375 Q553.65,259.4063 553.65,259.8 L553.65,260.7375 Q553.65,261.1312 553.4812,261.3 Q553.3125,261.4688 553.05,261.4688 Q552.8156,261.4688 552.6656,261.3656 Q552.5156,261.2625 552.45,260.9906 Q552.4219,260.8031 552.3188,260.7 Q552.1313,260.5031 551.7937,260.3906 Q551.4563,260.2688 551.1188,260.2688 Q550.6969,260.2688 550.3406,260.4375 Q549.9938,260.6063 549.7219,260.9813 Q549.45,261.3563 549.45,261.8719 L549.45,262.425 Q549.45,263.0438 549.9563,263.4563 Q550.4625,263.8688 551.3625,263.8688 Q551.8969,263.8688 552.2719,263.7469 Q552.4875,263.6813 552.7312,263.4656 Q552.8906,263.3438 552.975,263.3063 Q553.0594,263.2688 553.1625,263.2688 Q553.3594,263.2688 553.5,263.4281 Q553.65,263.5781 553.65,263.7938 Q553.65,264 553.4438,264.2438 Q553.1438,264.6 552.6656,264.7969 Q552.0375,265.0687 551.2688,265.0687 Q550.3688,265.0687 549.6469,264.7125 Q549.0656,264.4313 548.6531,263.8219 Q548.25,263.2125 548.25,262.4906 L548.25,261.8344 Q548.25,261.0844 548.6062,260.4281 Q548.9719,259.7719 549.6,259.425 Q550.2375,259.0687 550.95,259.0687 Q551.3813,259.0687 551.7563,259.2188 Q552.1313,259.3688 552.45,259.6688 Z "/><text fill="#000000" font-family="sans-serif" font-size="7.2" lengthAdjust="spacingAndGlyphs" textLength="55.2" x="563.55" y="264.7148">UseSmartPhone</text><line style="stroke: #A80036; stroke-width: 0.8999999999999999;" x1="522.3" x2="640.5" y1="271.3688" y2="271.3688"/><rect fill="none" height="3.6" style="stroke: #C82930; stroke-width: 0.6;" width="3.6" x="526.5" y="276.1688"/><text fill="#000000" font-family="sans-serif" font-size="6.6" lengthAdjust="spacingAndGlyphs" text-decoration="underline" textLength="87.6" x="533.7" y="280.6201">cleaningRobot : CleaningRobot</text><rect fill="none" height="3.6" style="stroke: #C82930; stroke-width: 0.6;" width="3.6" x="526.5" y="284.4703"/><text fill="#000000" font-family="sans-serif" font-size="6.6" lengthAdjust="spacingAndGlyphs" text-decoration="underline" textLength="88.8" x="533.7" y="288.9217">deviceButtons : DeviceButtons</text><rect fill="none" height="3.6" style="stroke: #C82930; stroke-width: 0.6;" width="3.6" x="526.5" y="292.7719"/><text fill="#000000" font-family="sans-serif" font-size="6.6" lengthAdjust="spacingAndGlyphs" text-decoration="underline" textLength="75.6" x="533.7" y="297.2232">dishWasher : Dishwasher</text><rect fill="none" height="3.6" style="stroke: #C82930; stroke-width: 0.6;" width="3.6" x="526.5" y="301.0734"/><text fill="#000000" font-family="sans-serif" font-size="6.6" lengthAdjust="spacingAndGlyphs" text-decoration="underline" textLength="70.2" x="533.7" y="305.5248">microWave : MicroWave</text><rect fill="none" height="3.6" style="stroke: #C82930; stroke-width: 0.6;" width="3.6" x="526.5" y="309.375"/><text fill="#000000" font-family="sans-serif" font-size="6.6" lengthAdjust="spacingAndGlyphs" text-decoration="underline" textLength="35.4" x="533.7" y="313.8264">oven : Oven</text><rect fill="none" height="3.6" style="stroke: #C82930; stroke-width: 0.6;" width="3.6" x="526.5" y="317.6766"/><text fill="#000000" font-family="sans-serif" font-size="6.6" lengthAdjust="spacingAndGlyphs" text-decoration="underline" textLength="103.8" x="533.7" y="322.1279">washingMachine : WashingMachine</text><line style="stroke: #A80036; stroke-width: 0.8999999999999999;" x1="522.3" x2="640.5" y1="325.9781" y2="325.9781"/><ellipse cx="528.3" cy="332.5781" fill="#84BE84" rx="1.8" ry="1.8" style="stroke: #038048; stroke-width: 0.6;"/><text fill="#000000" font-family="sans-serif" font-size="6.6" lengthAdjust="spacingAndGlyphs" text-decoration="underline" textLength="28.8" x="533.7" y="335.2295">getRobo()</text><ellipse cx="528.3" cy="340.8797" fill="#84BE84" rx="1.8" ry="1.8" style="stroke: #038048; stroke-width: 0.6;"/><text fill="#000000" font-family="sans-serif" font-size="6.6" lengthAdjust="spacingAndGlyphs" text-decoration="underline" textLength="18" x="533.7" y="343.5311">main()</text><rect fill="#F24D5C" height="3.6" style="stroke: #C82930; stroke-width: 0.6;" width="3.6" x="526.5" y="347.3812"/><text fill="#000000" font-family="sans-serif" font-size="6.6" lengthAdjust="spacingAndGlyphs" text-decoration="underline" textLength="51" x="533.7" y="351.8326">createUserInput()</text><rect fill="#F24D5C" height="3.6" style="stroke: #C82930; stroke-width: 0.6;" width="3.6" x="526.5" y="355.6828"/><text fill="#000000" font-family="sans-serif" font-size="6.6" lengthAdjust="spacingAndGlyphs" text-decoration="underline" textLength="54" x="533.7" y="360.1342">displayMainMenu()</text><rect fill="#F24D5C" height="3.6" style="stroke: #C82930; stroke-width: 0.6;" width="3.6" x="526.5" y="363.9844"/><text fill="#000000" font-family="sans-serif" font-size="6.6" lengthAdjust="spacingAndGlyphs" text-decoration="underline" textLength="36.6" x="533.7" y="368.4357">displayTitle()</text><rect fill="#F24D5C" height="3.6" style="stroke: #C82930; stroke-width: 0.6;" width="3.6" x="526.5" y="372.2859"/><text fill="#000000" font-family="sans-serif" font-size="6.6" lengthAdjust="spacingAndGlyphs" text-decoration="underline" textLength="40.8" x="533.7" y="376.7373">validateInput()</text><!--MD5=[01e6ab4322dcdec5c5e6b3370ca8a41c]
class Util.roboBatteryThread--><rect fill="#FEFECE" filter="url(#ffk8zkmr8j4j)" height="78.6094" id="Util.roboBatteryThread" style="stroke: #A80036; stroke-width: 0.8999999999999999;" width="79.8" x="227.7" y="137.5688"/><ellipse cx="236.7" cy="147.1688" fill="#ADD1B2" rx="6.6" ry="6.6" style="stroke: #A80036; stroke-width: 0.6;"/><path d="M237.9,145.0688 Q238.0219,144.7687 238.1625,144.6188 Q238.3031,144.4688 238.4625,144.4688 Q238.7437,144.4688 238.9219,144.6375 Q239.1,144.8063 239.1,145.2 L239.1,146.1375 Q239.1,146.5313 238.9312,146.7 Q238.7625,146.8688 238.5,146.8688 Q238.2656,146.8688 238.1156,146.7656 Q237.9656,146.6625 237.9,146.3906 Q237.8719,146.2031 237.7687,146.1 Q237.5812,145.9031 237.2437,145.7906 Q236.9063,145.6688 236.5688,145.6688 Q236.1469,145.6688 235.7906,145.8375 Q235.4438,146.0063 235.1719,146.3813 Q234.9,146.7563 234.9,147.2719 L234.9,147.825 Q234.9,148.4438 235.4063,148.8563 Q235.9125,149.2687 236.8125,149.2687 Q237.3469,149.2687 237.7219,149.1469 Q237.9375,149.0812 238.1812,148.8656 Q238.3406,148.7438 238.425,148.7062 Q238.5094,148.6688 238.6125,148.6688 Q238.8094,148.6688 238.95,148.8281 Q239.1,148.9781 239.1,149.1938 Q239.1,149.4 238.8937,149.6437 Q238.5938,150 238.1156,150.1969 Q237.4875,150.4688 236.7188,150.4688 Q235.8188,150.4688 235.0969,150.1125 Q234.5156,149.8312 234.1031,149.2219 Q233.7,148.6125 233.7,147.8906 L233.7,147.2344 Q233.7,146.4844 234.0562,145.8281 Q234.4219,145.1719 235.05,144.825 Q235.6875,144.4688 236.4,144.4688 Q236.8312,144.4688 237.2062,144.6188 Q237.5812,144.7687 237.9,145.0688 Z "/><text fill="#000000" font-family="sans-serif" font-size="7.2" lengthAdjust="spacingAndGlyphs" textLength="60.6" x="245.1" y="150.1148">roboBatteryThread</text><line style="stroke: #A80036; stroke-width: 0.8999999999999999;" x1="228.3" x2="306.9" y1="156.7687" y2="156.7687"/><rect fill="none" height="3.6" style="stroke: #C82930; stroke-width: 0.6;" width="3.6" x="232.5" y="161.5688"/><text fill="#000000" font-family="sans-serif" font-size="6.6" lengthAdjust="spacingAndGlyphs" textLength="49.8" x="239.7" y="166.0201">running : boolean</text><rect fill="none" height="3.6" style="stroke: #C82930; stroke-width: 0.6;" width="3.6" x="232.5" y="169.8703"/><text fill="#000000" font-family="sans-serif" font-size="6.6" lengthAdjust="spacingAndGlyphs" textLength="37.2" x="239.7" y="174.3217">seconds : int</text><line style="stroke: #A80036; stroke-width: 0.8999999999999999;" x1="228.3" x2="306.9" y1="178.1719" y2="178.1719"/><ellipse cx="234.3" cy="184.7719" fill="#84BE84" rx="1.8" ry="1.8" style="stroke: #038048; stroke-width: 0.6;"/><text fill="#000000" font-family="sans-serif" font-size="6.6" lengthAdjust="spacingAndGlyphs" textLength="33" x="239.7" y="187.4232">isRunning()</text><ellipse cx="234.3" cy="193.0734" fill="#84BE84" rx="1.8" ry="1.8" style="stroke: #038048; stroke-width: 0.6;"/><text fill="#000000" font-family="sans-serif" font-size="6.6" lengthAdjust="spacingAndGlyphs" textLength="59.4" x="239.7" y="195.7248">roboBatteryThread()</text><ellipse cx="234.3" cy="201.375" fill="#84BE84" rx="1.8" ry="1.8" style="stroke: #038048; stroke-width: 0.6;"/><text fill="#000000" font-family="sans-serif" font-size="6.6" lengthAdjust="spacingAndGlyphs" textLength="14.4" x="239.7" y="204.0264">run()</text><ellipse cx="234.3" cy="209.6766" fill="#84BE84" rx="1.8" ry="1.8" style="stroke: #038048; stroke-width: 0.6;"/><text fill="#000000" font-family="sans-serif" font-size="6.6" lengthAdjust="spacingAndGlyphs" textLength="27" x="239.7" y="212.3279">setTime()</text><!--MD5=[73d6337a0ea205004ae424e8621fafae]
class Util.roboProgressThread--><rect fill="#FEFECE" filter="url(#ffk8zkmr8j4j)" height="78.6094" id="Util.roboProgressThread" style="stroke: #A80036; stroke-width: 0.8999999999999999;" width="88.2" x="118.5" y="137.5688"/><ellipse cx="127.5" cy="147.1688" fill="#ADD1B2" rx="6.6" ry="6.6" style="stroke: #A80036; stroke-width: 0.6;"/><path d="M128.7,145.0688 Q128.8219,144.7687 128.9625,144.6188 Q129.1031,144.4688 129.2625,144.4688 Q129.5438,144.4688 129.7219,144.6375 Q129.9,144.8063 129.9,145.2 L129.9,146.1375 Q129.9,146.5313 129.7313,146.7 Q129.5625,146.8688 129.3,146.8688 Q129.0656,146.8688 128.9156,146.7656 Q128.7656,146.6625 128.7,146.3906 Q128.6719,146.2031 128.5688,146.1 Q128.3813,145.9031 128.0438,145.7906 Q127.7063,145.6688 127.3687,145.6688 Q126.9469,145.6688 126.5906,145.8375 Q126.2437,146.0063 125.9719,146.3813 Q125.7,146.7563 125.7,147.2719 L125.7,147.825 Q125.7,148.4438 126.2063,148.8563 Q126.7125,149.2687 127.6125,149.2687 Q128.1469,149.2687 128.5219,149.1469 Q128.7375,149.0812 128.9813,148.8656 Q129.1406,148.7438 129.225,148.7062 Q129.3094,148.6688 129.4125,148.6688 Q129.6094,148.6688 129.75,148.8281 Q129.9,148.9781 129.9,149.1938 Q129.9,149.4 129.6938,149.6437 Q129.3937,150 128.9156,150.1969 Q128.2875,150.4688 127.5188,150.4688 Q126.6187,150.4688 125.8969,150.1125 Q125.3156,149.8312 124.9031,149.2219 Q124.5,148.6125 124.5,147.8906 L124.5,147.2344 Q124.5,146.4844 124.8562,145.8281 Q125.2219,145.1719 125.85,144.825 Q126.4875,144.4688 127.2,144.4688 Q127.6313,144.4688 128.0063,144.6188 Q128.3813,144.7687 128.7,145.0688 Z "/><text fill="#000000" font-family="sans-serif" font-size="7.2" lengthAdjust="spacingAndGlyphs" textLength="69" x="135.9" y="150.1148">roboProgressThread</text><line style="stroke: #A80036; stroke-width: 0.8999999999999999;" x1="119.1" x2="206.1" y1="156.7687" y2="156.7687"/><rect fill="none" height="3.6" style="stroke: #C82930; stroke-width: 0.6;" width="3.6" x="123.3" y="161.5688"/><text fill="#000000" font-family="sans-serif" font-size="6.6" lengthAdjust="spacingAndGlyphs" textLength="49.8" x="130.5" y="166.0201">running : boolean</text><rect fill="none" height="3.6" style="stroke: #C82930; stroke-width: 0.6;" width="3.6" x="123.3" y="169.8703"/><text fill="#000000" font-family="sans-serif" font-size="6.6" lengthAdjust="spacingAndGlyphs" textLength="37.2" x="130.5" y="174.3217">seconds : int</text><line style="stroke: #A80036; stroke-width: 0.8999999999999999;" x1="119.1" x2="206.1" y1="178.1719" y2="178.1719"/><ellipse cx="125.1" cy="184.7719" fill="#84BE84" rx="1.8" ry="1.8" style="stroke: #038048; stroke-width: 0.6;"/><text fill="#000000" font-family="sans-serif" font-size="6.6" lengthAdjust="spacingAndGlyphs" textLength="33" x="130.5" y="187.4232">isRunning()</text><ellipse cx="125.1" cy="193.0734" fill="#84BE84" rx="1.8" ry="1.8" style="stroke: #038048; stroke-width: 0.6;"/><text fill="#000000" font-family="sans-serif" font-size="6.6" lengthAdjust="spacingAndGlyphs" textLength="64.8" x="130.5" y="195.7248">roboProgressThread()</text><ellipse cx="125.1" cy="201.375" fill="#84BE84" rx="1.8" ry="1.8" style="stroke: #038048; stroke-width: 0.6;"/><text fill="#000000" font-family="sans-serif" font-size="6.6" lengthAdjust="spacingAndGlyphs" textLength="14.4" x="130.5" y="204.0264">run()</text><ellipse cx="125.1" cy="209.6766" fill="#84BE84" rx="1.8" ry="1.8" style="stroke: #038048; stroke-width: 0.6;"/><text fill="#000000" font-family="sans-serif" font-size="6.6" lengthAdjust="spacingAndGlyphs" textLength="27" x="130.5" y="212.3279">setTime()</text><!--MD5=[a4583de010daaab3c0922f27a1f398c6]
class Util.roboTimeThread--><rect fill="#FEFECE" filter="url(#ffk8zkmr8j4j)" height="78.6094" id="Util.roboTimeThread" style="stroke: #A80036; stroke-width: 0.8999999999999999;" width="74.4" x="22.8" y="137.5688"/><ellipse cx="31.8" cy="147.1688" fill="#ADD1B2" rx="6.6" ry="6.6" style="stroke: #A80036; stroke-width: 0.6;"/><path d="M33,145.0688 Q33.1219,144.7687 33.2625,144.6188 Q33.4031,144.4688 33.5625,144.4688 Q33.8438,144.4688 34.0219,144.6375 Q34.2,144.8063 34.2,145.2 L34.2,146.1375 Q34.2,146.5313 34.0313,146.7 Q33.8625,146.8688 33.6,146.8688 Q33.3656,146.8688 33.2156,146.7656 Q33.0656,146.6625 33,146.3906 Q32.9719,146.2031 32.8688,146.1 Q32.6813,145.9031 32.3438,145.7906 Q32.0063,145.6688 31.6688,145.6688 Q31.2469,145.6688 30.8906,145.8375 Q30.5438,146.0063 30.2719,146.3813 Q30,146.7563 30,147.2719 L30,147.825 Q30,148.4438 30.5062,148.8563 Q31.0125,149.2687 31.9125,149.2687 Q32.4469,149.2687 32.8219,149.1469 Q33.0375,149.0812 33.2813,148.8656 Q33.4406,148.7438 33.525,148.7062 Q33.6094,148.6688 33.7125,148.6688 Q33.9094,148.6688 34.05,148.8281 Q34.2,148.9781 34.2,149.1938 Q34.2,149.4 33.9938,149.6437 Q33.6938,150 33.2156,150.1969 Q32.5875,150.4688 31.8187,150.4688 Q30.9188,150.4688 30.1969,150.1125 Q29.6156,149.8312 29.2031,149.2219 Q28.8,148.6125 28.8,147.8906 L28.8,147.2344 Q28.8,146.4844 29.1563,145.8281 Q29.5219,145.1719 30.15,144.825 Q30.7875,144.4688 31.5,144.4688 Q31.9313,144.4688 32.3063,144.6188 Q32.6813,144.7687 33,145.0688 Z "/><text fill="#000000" font-family="sans-serif" font-size="7.2" lengthAdjust="spacingAndGlyphs" textLength="55.2" x="40.2" y="150.1148">roboTimeThread</text><line style="stroke: #A80036; stroke-width: 0.8999999999999999;" x1="23.4" x2="96.6" y1="156.7687" y2="156.7687"/><rect fill="none" height="3.6" style="stroke: #C82930; stroke-width: 0.6;" width="3.6" x="27.6" y="161.5688"/><text fill="#000000" font-family="sans-serif" font-size="6.6" lengthAdjust="spacingAndGlyphs" textLength="49.8" x="34.8" y="166.0201">running : boolean</text><rect fill="none" height="3.6" style="stroke: #C82930; stroke-width: 0.6;" width="3.6" x="27.6" y="169.8703"/><text fill="#000000" font-family="sans-serif" font-size="6.6" lengthAdjust="spacingAndGlyphs" textLength="37.2" x="34.8" y="174.3217">seconds : int</text><line style="stroke: #A80036; stroke-width: 0.8999999999999999;" x1="23.4" x2="96.6" y1="178.1719" y2="178.1719"/><ellipse cx="29.4" cy="184.7719" fill="#84BE84" rx="1.8" ry="1.8" style="stroke: #038048; stroke-width: 0.6;"/><text fill="#000000" font-family="sans-serif" font-size="6.6" lengthAdjust="spacingAndGlyphs" textLength="33" x="34.8" y="187.4232">isRunning()</text><ellipse cx="29.4" cy="193.0734" fill="#84BE84" rx="1.8" ry="1.8" style="stroke: #038048; stroke-width: 0.6;"/><text fill="#000000" font-family="sans-serif" font-size="6.6" lengthAdjust="spacingAndGlyphs" textLength="51.6" x="34.8" y="195.7248">roboTimeThread()</text><ellipse cx="29.4" cy="201.375" fill="#84BE84" rx="1.8" ry="1.8" style="stroke: #038048; stroke-width: 0.6;"/><text fill="#000000" font-family="sans-serif" font-size="6.6" lengthAdjust="spacingAndGlyphs" textLength="14.4" x="34.8" y="204.0264">run()</text><ellipse cx="29.4" cy="209.6766" fill="#84BE84" rx="1.8" ry="1.8" style="stroke: #038048; stroke-width: 0.6;"/><text fill="#000000" font-family="sans-serif" font-size="6.6" lengthAdjust="spacingAndGlyphs" textLength="27" x="34.8" y="212.3279">setTime()</text><!--MD5=[8dac795f9edbf65a524ac462449c98fb]
class java.lang.Runnable--><rect fill="#FEFECE" filter="url(#ffk8zkmr8j4j)" height="28.8" id="java.lang.Runnable" style="stroke: #A80036; stroke-width: 0.8999999999999999;" width="51.6" x="241.8" y="63.1687"/><ellipse cx="250.8" cy="72.7688" fill="#ADD1B2" rx="6.6" ry="6.6" style="stroke: #A80036; stroke-width: 0.6;"/><path d="M252,70.6688 Q252.1219,70.3687 252.2625,70.2188 Q252.4031,70.0688 252.5625,70.0688 Q252.8438,70.0688 253.0219,70.2375 Q253.2,70.4063 253.2,70.8 L253.2,71.7375 Q253.2,72.1313 253.0313,72.3 Q252.8625,72.4688 252.6,72.4688 Q252.3656,72.4688 252.2156,72.3656 Q252.0656,72.2625 252,71.9906 Q251.9719,71.8031 251.8687,71.7 Q251.6812,71.5031 251.3438,71.3906 Q251.0063,71.2688 250.6688,71.2688 Q250.2469,71.2688 249.8906,71.4375 Q249.5438,71.6063 249.2719,71.9813 Q249,72.3563 249,72.8719 L249,73.425 Q249,74.0438 249.5063,74.4563 Q250.0125,74.8687 250.9125,74.8687 Q251.4469,74.8687 251.8219,74.7469 Q252.0375,74.6812 252.2813,74.4656 Q252.4406,74.3438 252.525,74.3062 Q252.6094,74.2688 252.7125,74.2688 Q252.9094,74.2688 253.05,74.4281 Q253.2,74.5781 253.2,74.7938 Q253.2,75 252.9937,75.2437 Q252.6938,75.6 252.2156,75.7969 Q251.5875,76.0688 250.8188,76.0688 Q249.9188,76.0688 249.1969,75.7125 Q248.6156,75.4312 248.2031,74.8219 Q247.8,74.2125 247.8,73.4906 L247.8,72.8344 Q247.8,72.0844 248.1563,71.4281 Q248.5219,70.7719 249.15,70.425 Q249.7875,70.0688 250.5,70.0688 Q250.9312,70.0688 251.3062,70.2188 Q251.6812,70.3687 252,70.6688 Z "/><text fill="#000000" font-family="sans-serif" font-size="7.2" lengthAdjust="spacingAndGlyphs" textLength="32.4" x="259.2" y="75.7148">Runnable</text><line style="stroke: #A80036; stroke-width: 0.8999999999999999;" x1="242.4" x2="292.8" y1="82.3687" y2="82.3687"/><line style="stroke: #A80036; stroke-width: 0.8999999999999999;" x1="242.4" x2="292.8" y1="87.1688" y2="87.1688"/><!--MD5=[a1764e55f4fd566e88728b5e78d65df6]
reverse link java.lang.Runnable to Util.MyThread--><path d="M305.484,82.3723 C347.4042,87.6074 411.7266,97.55 432,111.1688 C441.9084,117.8246 450.1098,127.5973 456.606,137.5573 " fill="none" id="java.lang.Runnable&lt;-Util.MyThread" style="stroke: #A80036; stroke-width: 0.6; stroke-dasharray: 7.0,7.0;"/><polygon fill="none" points="304.9392,86.537,293.5284,80.9299,305.9448,78.197,304.9392,86.537" style="stroke: #A80036; stroke-width: 0.6;"/><!--MD5=[fa24dff1806c6b9ca0feaa93f7b76a07]
reverse link java.lang.Runnable to Util.RoboRechargeThread--><path d="M301.6674,98.6473 C307.3176,102.5515 312.9684,106.7942 318,111.1688 C327.069,119.0539 336.0366,128.3684 344.0802,137.4488 " fill="none" id="java.lang.Runnable&lt;-Util.RoboRechargeThread" style="stroke: #A80036; stroke-width: 0.6; stroke-dasharray: 7.0,7.0;"/><polygon fill="none" points="299.337,102.1417,291.6324,92.0282,303.9624,95.1295,299.337,102.1417" style="stroke: #A80036; stroke-width: 0.6;"/><!--MD5=[fc03e95486bc8892f4045b5047d87298]
reverse link java.lang.Runnable to Util.roboBatteryThread--><path d="M267.6,104.0594 C267.6,114.2977 267.6,126.2833 267.6,137.5148 " fill="none" id="java.lang.Runnable&lt;-Util.roboBatteryThread" style="stroke: #A80036; stroke-width: 0.6; stroke-dasharray: 7.0,7.0;"/><polygon fill="none" points="263.4,104.0162,267.6,92.0161,271.8,104.0162,263.4,104.0162" style="stroke: #A80036; stroke-width: 0.6;"/><!--MD5=[0bb6d4f0ba5a21ba6b2f22de6e64da73]
reverse link java.lang.Runnable to Util.roboProgressThread--><path d="M233.0784,98.8184 C227.5632,102.6614 222.0744,106.8391 217.2,111.1688 C208.3224,119.0545 199.629,128.4182 191.8818,137.5508 " fill="none" id="java.lang.Runnable&lt;-Util.roboProgressThread" style="stroke: #A80036; stroke-width: 0.6; stroke-dasharray: 7.0,7.0;"/><polygon fill="none" points="230.9058,95.2189,243.2304,92.0965,235.5432,102.2234,230.9058,95.2189" style="stroke: #A80036; stroke-width: 0.6;"/><!--MD5=[ea8cee25dcd06152dd6d087a35129700]
reverse link java.lang.Runnable to Util.roboTimeThread--><path d="M229.6734,78.494 C195.4056,80.4403 144.8418,87.5714 108,111.1688 C97.5942,117.8336 88.671,127.6087 81.4398,137.5688 " fill="none" id="java.lang.Runnable&lt;-Util.roboTimeThread" style="stroke: #A80036; stroke-width: 0.6; stroke-dasharray: 7.0,7.0;"/><polygon fill="none" points="229.5588,74.2946,241.7256,77.984,229.914,82.6873,229.5588,74.2946" style="stroke: #A80036; stroke-width: 0.6;"/><!--MD5=[edcc81e2738b8bef2c89b0d7c9f45f64]
link Util.DeviceButtons to Util.SmartPhone--><!--MD5=[73c328050455b1733b4eae2860f76ada]
link Util.DeviceButtons to Util.UseSmartPhone--><!--MD5=[9fb8f93e82f0808f38607e8a3d360633]
@startuml

title __UTIL's Class Diagram__\n

  namespace Util {
    class Util.DeviceButtons {
        ~ commandList : List<Command>
        + DeviceButtons()
        + addButtonCommand()
        + press()
        + pressUndo()
    }
  }
  

  namespace Util {
    class Util.MyThread {
        - running : boolean
        - seconds : int
        + MyThread()
        + isRunning()
        + run()
        + setTime()
    }
  }
  

  namespace Util {
    class Util.RoboRechargeThread {
        - running : boolean
        - seconds : int
        + RoboRechargeThread()
        + isRunning()
        + run()
        + setTime()
    }
  }
  

  namespace Util {
    class Util.SmartPhone {
        {static} + DEVICE_NR : int
        {static} + getCleaningRobot()
        {static} + getDishwasher()
        {static} + getMicroWave()
        {static} + getOven()
        {static} + getWashingMaschine()
    }
  }
  

  namespace Util {
    class Util.UseSmartPhone {
        {static} - cleaningRobot : CleaningRobot
        {static} - deviceButtons : DeviceButtons
        {static} - dishWasher : Dishwasher
        {static} - microWave : MicroWave
        {static} - oven : Oven
        {static} - washingMachine : WashingMachine
        {static} + getRobo()
        {static} + main()
        {static} - createUserInput()
        {static} - displayMainMenu()
        {static} - displayTitle()
        {static} - validateInput()
    }
  }
  

  namespace Util {
    class Util.roboBatteryThread {
        - running : boolean
        - seconds : int
        + isRunning()
        + roboBatteryThread()
        + run()
        + setTime()
    }
  }
  

  namespace Util {
    class Util.roboProgressThread {
        - running : boolean
        - seconds : int
        + isRunning()
        + roboProgressThread()
        + run()
        + setTime()
    }
  }
  

  namespace Util {
    class Util.roboTimeThread {
        - running : boolean
        - seconds : int
        + isRunning()
        + roboTimeThread()
        + run()
        + setTime()
    }
  }
  

  Util.MyThread .up.|> java.lang.Runnable
  Util.RoboRechargeThread .up.|> java.lang.Runnable
  Util.roboBatteryThread .up.|> java.lang.Runnable
  Util.roboProgressThread .up.|> java.lang.Runnable
  Util.roboTimeThread .up.|> java.lang.Runnable


@enduml

PlantUML version 1.2019.11(Sun Sep 22 12:02:15 CEST 2019)
(GPL source distribution)
Java Runtime: OpenJDK Runtime Environment
JVM: OpenJDK 64-Bit Server VM
Java Version: 11.0.4+10-b304.77
Operating System: Windows 10
Default Encoding: Cp1252
Language: de
Country: DE
--></g></svg>