<?xml version="1.0" encoding="UTF-8" standalone="no"?><svg xmlns="http://www.w3.org/2000/svg" xmlns:xlink="http://www.w3.org/1999/xlink" contentScriptType="application/ecmascript" contentStyleType="text/css" height="278.4px" preserveAspectRatio="none" style="width:233px;height:278px;" version="1.1" viewBox="0 0 233 278" width="233.7px" zoomAndPan="magnify"><defs><filter height="300%" id="fhw97mowo0c20" width="300%" x="-1" y="-1"><feGaussianBlur result="blurOut" stdDeviation="0.6"/><feColorMatrix in="blurOut" result="blurOut2" type="matrix" values="0 0 0 0 0 0 0 0 0 0 0 0 0 0 0 0 0 0 .4 0"/><feOffset dx="1.2" dy="1.2" in="blurOut2" result="blurOut3"/><feBlend in="SourceGraphic" in2="blurOut3" mode="normal"/></filter></defs><g><text fill="#000000" font-family="sans-serif" font-size="5.4" lengthAdjust="spacingAndGlyphs" text-decoration="underline" textLength="51.9" x="89.1" y="5.6057">UTIL's Class Diagram</text><text fill="#000000" font-family="sans-serif" font-size="5.4" lengthAdjust="spacingAndGlyphs" textLength="0" x="115.8" y="12.3979"/><!--MD5=[a55135535b5c544b99c33b17428c3b14]
cluster Util--><polygon fill="#FFFFFF" filter="url(#fhw97mowo0c20)" points="6.6,57.9844,15.3,57.9844,17.4,65.0672,219.9,65.0672,219.9,252.3844,6.6,252.3844,6.6,57.9844" style="stroke: #000000; stroke-width: 0.44999999999999996;"/><line style="stroke: #000000; stroke-width: 0.44999999999999996;" x1="6.6" x2="17.4" y1="65.0672" y2="65.0672"/><text fill="#000000" font-family="sans-serif" font-size="4.2" font-weight="bold" lengthAdjust="spacingAndGlyphs" textLength="6.9" x="7.8" y="62.9443">Util</text><!--MD5=[aa8f7b917213fcc1c2766e2d59b49067]
cluster java.lang--><polygon fill="#FFFFFF" filter="url(#fhw97mowo0c20)" points="10.2,20.7844,30.9,20.7844,33,27.8672,45.6,27.8672,45.6,50.7844,10.2,50.7844,10.2,20.7844" style="stroke: #000000; stroke-width: 0.44999999999999996;"/><line style="stroke: #000000; stroke-width: 0.44999999999999996;" x1="10.2" x2="33" y1="27.8672" y2="27.8672"/><text fill="#000000" font-family="sans-serif" font-size="4.2" font-weight="bold" lengthAdjust="spacingAndGlyphs" textLength="18.9" x="11.4" y="25.7443">java.lang</text><!--MD5=[55ceab3a75b64053642b6f6993bde510]
class Util.DeviceButtons--><rect fill="#FEFECE" filter="url(#fhw97mowo0c20)" height="35.1539" id="Util.DeviceButtons" style="stroke: #A80036; stroke-width: 0.44999999999999996;" width="52.2" x="54.9" y="70.8844"/><ellipse cx="67.905" cy="75.6844" fill="#ADD1B2" rx="3.3" ry="3.3" style="stroke: #A80036; stroke-width: 0.3;"/><path d="M68.505,74.6344 Q68.5659,74.4844 68.6362,74.4094 Q68.7066,74.3344 68.7863,74.3344 Q68.9269,74.3344 69.0159,74.4188 Q69.105,74.5031 69.105,74.7 L69.105,75.1688 Q69.105,75.3656 69.0206,75.45 Q68.9363,75.5344 68.805,75.5344 Q68.6878,75.5344 68.6128,75.4828 Q68.5378,75.4312 68.505,75.2953 Q68.4909,75.2016 68.4394,75.15 Q68.3456,75.0516 68.1769,74.9953 Q68.0081,74.9344 67.8394,74.9344 Q67.6284,74.9344 67.4503,75.0188 Q67.2769,75.1031 67.1409,75.2906 Q67.005,75.4781 67.005,75.7359 L67.005,76.0125 Q67.005,76.3219 67.2581,76.5281 Q67.5112,76.7344 67.9612,76.7344 Q68.2284,76.7344 68.4159,76.6734 Q68.5237,76.6406 68.6456,76.5328 Q68.7253,76.4719 68.7675,76.4531 Q68.8097,76.4344 68.8613,76.4344 Q68.9597,76.4344 69.03,76.5141 Q69.105,76.5891 69.105,76.6969 Q69.105,76.8 69.0019,76.9219 Q68.8519,77.1 68.6128,77.1984 Q68.2988,77.3344 67.9144,77.3344 Q67.4644,77.3344 67.1034,77.1563 Q66.8128,77.0156 66.6066,76.7109 Q66.405,76.4063 66.405,76.0453 L66.405,75.7172 Q66.405,75.3422 66.5831,75.0141 Q66.7659,74.6859 67.08,74.5125 Q67.3987,74.3344 67.755,74.3344 Q67.9706,74.3344 68.1581,74.4094 Q68.3456,74.4844 68.505,74.6344 Z "/><text fill="#000000" font-family="sans-serif" font-size="3.6" lengthAdjust="spacingAndGlyphs" textLength="23.7" x="73.995" y="77.1574">DeviceButtons</text><line style="stroke: #A80036; stroke-width: 0.44999999999999996;" x1="55.2" x2="106.8" y1="80.4844" y2="80.4844"/><polygon fill="none" points="58.2,82.5844,57,84.3844,59.4,84.3844" style="stroke: #1963A0; stroke-width: 0.3;"/><text fill="#000000" font-family="sans-serif" font-size="3.3" lengthAdjust="spacingAndGlyphs" textLength="44.4" x="60.9" y="85.1101">commandList : List&lt;Command&gt;</text><line style="stroke: #A80036; stroke-width: 0.44999999999999996;" x1="55.2" x2="106.8" y1="87.0352" y2="87.0352"/><ellipse cx="58.2" cy="90.3352" fill="#84BE84" rx="0.9" ry="0.9" style="stroke: #038048; stroke-width: 0.3;"/><text fill="#000000" font-family="sans-serif" font-size="3.3" lengthAdjust="spacingAndGlyphs" textLength="23.4" x="60.9" y="91.6608">DeviceButtons()</text><ellipse cx="58.2" cy="94.4859" fill="#84BE84" rx="0.9" ry="0.9" style="stroke: #038048; stroke-width: 0.3;"/><text fill="#000000" font-family="sans-serif" font-size="3.3" lengthAdjust="spacingAndGlyphs" textLength="31.2" x="60.9" y="95.8116">addButtonCommand()</text><ellipse cx="58.2" cy="98.6367" fill="#84BE84" rx="0.9" ry="0.9" style="stroke: #038048; stroke-width: 0.3;"/><text fill="#000000" font-family="sans-serif" font-size="3.3" lengthAdjust="spacingAndGlyphs" textLength="10.8" x="60.9" y="99.9624">press()</text><ellipse cx="58.2" cy="102.7875" fill="#84BE84" rx="0.9" ry="0.9" style="stroke: #038048; stroke-width: 0.3;"/><text fill="#000000" font-family="sans-serif" font-size="3.3" lengthAdjust="spacingAndGlyphs" textLength="18.3" x="60.9" y="104.1132">pressUndo()</text><!--MD5=[8d7b9165088683794b83354091141d4f]
class Util.MyThread--><rect fill="#FEFECE" filter="url(#fhw97mowo0c20)" height="39.3047" id="Util.MyThread" style="stroke: #A80036; stroke-width: 0.44999999999999996;" width="32.7" x="11.55" y="68.7844"/><ellipse cx="19.29" cy="73.5844" fill="#ADD1B2" rx="3.3" ry="3.3" style="stroke: #A80036; stroke-width: 0.3;"/><path d="M19.89,72.5344 Q19.9509,72.3844 20.0213,72.3094 Q20.0916,72.2344 20.1712,72.2344 Q20.3119,72.2344 20.4009,72.3188 Q20.49,72.4031 20.49,72.6 L20.49,73.0688 Q20.49,73.2656 20.4056,73.35 Q20.3213,73.4344 20.19,73.4344 Q20.0728,73.4344 19.9978,73.3828 Q19.9228,73.3313 19.89,73.1953 Q19.8759,73.1016 19.8244,73.05 Q19.7306,72.9516 19.5619,72.8953 Q19.3931,72.8344 19.2244,72.8344 Q19.0134,72.8344 18.8353,72.9188 Q18.6619,73.0031 18.5259,73.1906 Q18.39,73.3781 18.39,73.6359 L18.39,73.9125 Q18.39,74.2219 18.6431,74.4281 Q18.8963,74.6344 19.3462,74.6344 Q19.6134,74.6344 19.8009,74.5734 Q19.9087,74.5406 20.0306,74.4328 Q20.1103,74.3719 20.1525,74.3531 Q20.1947,74.3344 20.2463,74.3344 Q20.3447,74.3344 20.415,74.4141 Q20.49,74.4891 20.49,74.5969 Q20.49,74.7 20.3869,74.8219 Q20.2369,75 19.9978,75.0984 Q19.6838,75.2344 19.2994,75.2344 Q18.8494,75.2344 18.4884,75.0562 Q18.1978,74.9156 17.9916,74.6109 Q17.79,74.3062 17.79,73.9453 L17.79,73.6172 Q17.79,73.2422 17.9681,72.9141 Q18.1509,72.5859 18.465,72.4125 Q18.7837,72.2344 19.14,72.2344 Q19.3556,72.2344 19.5431,72.3094 Q19.7306,72.3844 19.89,72.5344 Z "/><text fill="#000000" font-family="sans-serif" font-size="3.6" lengthAdjust="spacingAndGlyphs" textLength="15.9" x="24.21" y="75.0574">MyThread</text><line style="stroke: #A80036; stroke-width: 0.44999999999999996;" x1="11.85" x2="43.95" y1="78.3844" y2="78.3844"/><ellipse cx="14.85" cy="81.6844" fill="none" rx="0.9" ry="0.9" style="stroke: #038048; stroke-width: 0.3;"/><text fill="#000000" font-family="sans-serif" font-size="3.3" lengthAdjust="spacingAndGlyphs" textLength="24.9" x="17.55" y="83.0101">running : boolean</text><ellipse cx="14.85" cy="85.8352" fill="none" rx="0.9" ry="0.9" style="stroke: #038048; stroke-width: 0.3;"/><text fill="#000000" font-family="sans-serif" font-size="3.3" lengthAdjust="spacingAndGlyphs" textLength="18.6" x="17.55" y="87.1608">seconds : int</text><line style="stroke: #A80036; stroke-width: 0.44999999999999996;" x1="11.85" x2="43.95" y1="89.0859" y2="89.0859"/><ellipse cx="14.85" cy="92.3859" fill="#84BE84" rx="0.9" ry="0.9" style="stroke: #038048; stroke-width: 0.3;"/><text fill="#000000" font-family="sans-serif" font-size="3.3" lengthAdjust="spacingAndGlyphs" textLength="16.8" x="17.55" y="93.7116">MyThread()</text><ellipse cx="14.85" cy="96.5367" fill="#84BE84" rx="0.9" ry="0.9" style="stroke: #038048; stroke-width: 0.3;"/><text fill="#000000" font-family="sans-serif" font-size="3.3" lengthAdjust="spacingAndGlyphs" textLength="16.5" x="17.55" y="97.8624">isRunning()</text><ellipse cx="14.85" cy="100.6875" fill="#84BE84" rx="0.9" ry="0.9" style="stroke: #038048; stroke-width: 0.3;"/><text fill="#000000" font-family="sans-serif" font-size="3.3" lengthAdjust="spacingAndGlyphs" textLength="7.2" x="17.55" y="102.0132">run()</text><ellipse cx="14.85" cy="104.8383" fill="#84BE84" rx="0.9" ry="0.9" style="stroke: #038048; stroke-width: 0.3;"/><text fill="#000000" font-family="sans-serif" font-size="3.3" lengthAdjust="spacingAndGlyphs" textLength="13.5" x="17.55" y="106.164">setTime()</text><!--MD5=[746c9fcb0117ea6de641ef3f1d2e0459]
class Util.RoboBatteryThread--><rect fill="#FEFECE" filter="url(#fhw97mowo0c20)" height="26.8523" id="Util.RoboBatteryThread" style="stroke: #A80036; stroke-width: 0.44999999999999996;" width="41.4" x="117.6" y="74.9344"/><ellipse cx="122.1" cy="79.7344" fill="#ADD1B2" rx="3.3" ry="3.3" style="stroke: #A80036; stroke-width: 0.3;"/><path d="M122.7,78.6844 Q122.7609,78.5344 122.8313,78.4594 Q122.9016,78.3844 122.9812,78.3844 Q123.1219,78.3844 123.2109,78.4688 Q123.3,78.5531 123.3,78.75 L123.3,79.2188 Q123.3,79.4156 123.2156,79.5 Q123.1313,79.5844 123,79.5844 Q122.8828,79.5844 122.8078,79.5328 Q122.7328,79.4813 122.7,79.3453 Q122.6859,79.2516 122.6344,79.2 Q122.5406,79.1016 122.3719,79.0453 Q122.2031,78.9844 122.0344,78.9844 Q121.8234,78.9844 121.6453,79.0688 Q121.4719,79.1531 121.3359,79.3406 Q121.2,79.5281 121.2,79.7859 L121.2,80.0625 Q121.2,80.3719 121.4531,80.5781 Q121.7063,80.7844 122.1563,80.7844 Q122.4234,80.7844 122.6109,80.7234 Q122.7188,80.6906 122.8406,80.5828 Q122.9203,80.5219 122.9625,80.5031 Q123.0047,80.4844 123.0562,80.4844 Q123.1547,80.4844 123.225,80.5641 Q123.3,80.6391 123.3,80.7469 Q123.3,80.85 123.1969,80.9719 Q123.0469,81.15 122.8078,81.2484 Q122.4937,81.3844 122.1094,81.3844 Q121.6594,81.3844 121.2984,81.2063 Q121.0078,81.0656 120.8016,80.7609 Q120.6,80.4563 120.6,80.0953 L120.6,79.7672 Q120.6,79.3922 120.7781,79.0641 Q120.9609,78.7359 121.275,78.5625 Q121.5938,78.3844 121.95,78.3844 Q122.1656,78.3844 122.3531,78.4594 Q122.5406,78.5344 122.7,78.6844 Z "/><text fill="#000000" font-family="sans-serif" font-size="3.6" lengthAdjust="spacingAndGlyphs" textLength="31.8" x="126.3" y="81.2074">RoboBatteryThread</text><line style="stroke: #A80036; stroke-width: 0.44999999999999996;" x1="117.9" x2="158.7" y1="84.5344" y2="84.5344"/><line style="stroke: #A80036; stroke-width: 0.44999999999999996;" x1="117.9" x2="158.7" y1="86.9344" y2="86.9344"/><ellipse cx="120.9" cy="90.2344" fill="#84BE84" rx="0.9" ry="0.9" style="stroke: #038048; stroke-width: 0.3;"/><text fill="#000000" font-family="sans-serif" font-size="3.3" lengthAdjust="spacingAndGlyphs" textLength="16.5" x="123.6" y="91.5601">isRunning()</text><ellipse cx="120.9" cy="94.3852" fill="#84BE84" rx="0.9" ry="0.9" style="stroke: #038048; stroke-width: 0.3;"/><text fill="#000000" font-family="sans-serif" font-size="3.3" lengthAdjust="spacingAndGlyphs" textLength="7.2" x="123.6" y="95.7108">run()</text><ellipse cx="120.9" cy="98.5359" fill="#84BE84" rx="0.9" ry="0.9" style="stroke: #038048; stroke-width: 0.3;"/><text fill="#000000" font-family="sans-serif" font-size="3.3" lengthAdjust="spacingAndGlyphs" textLength="13.5" x="123.6" y="99.8616">setTime()</text><!--MD5=[11515ce3a5e09d3d3b979fa2b282363f]
class Util.RoboProgressThread--><rect fill="#FEFECE" filter="url(#fhw97mowo0c20)" height="26.8523" id="Util.RoboProgressThread" style="stroke: #A80036; stroke-width: 0.44999999999999996;" width="45.6" x="169.5" y="74.9344"/><ellipse cx="174" cy="79.7344" fill="#ADD1B2" rx="3.3" ry="3.3" style="stroke: #A80036; stroke-width: 0.3;"/><path d="M174.6,78.6844 Q174.6609,78.5344 174.7313,78.4594 Q174.8016,78.3844 174.8813,78.3844 Q175.0219,78.3844 175.1109,78.4688 Q175.2,78.5531 175.2,78.75 L175.2,79.2188 Q175.2,79.4156 175.1156,79.5 Q175.0313,79.5844 174.9,79.5844 Q174.7828,79.5844 174.7078,79.5328 Q174.6328,79.4813 174.6,79.3453 Q174.5859,79.2516 174.5344,79.2 Q174.4406,79.1016 174.2719,79.0453 Q174.1031,78.9844 173.9344,78.9844 Q173.7234,78.9844 173.5453,79.0688 Q173.3719,79.1531 173.2359,79.3406 Q173.1,79.5281 173.1,79.7859 L173.1,80.0625 Q173.1,80.3719 173.3531,80.5781 Q173.6063,80.7844 174.0563,80.7844 Q174.3234,80.7844 174.5109,80.7234 Q174.6188,80.6906 174.7406,80.5828 Q174.8203,80.5219 174.8625,80.5031 Q174.9047,80.4844 174.9562,80.4844 Q175.0547,80.4844 175.125,80.5641 Q175.2,80.6391 175.2,80.7469 Q175.2,80.85 175.0969,80.9719 Q174.9469,81.15 174.7078,81.2484 Q174.3937,81.3844 174.0094,81.3844 Q173.5594,81.3844 173.1984,81.2063 Q172.9078,81.0656 172.7016,80.7609 Q172.5,80.4563 172.5,80.0953 L172.5,79.7672 Q172.5,79.3922 172.6781,79.0641 Q172.8609,78.7359 173.175,78.5625 Q173.4938,78.3844 173.85,78.3844 Q174.0656,78.3844 174.2531,78.4594 Q174.4406,78.5344 174.6,78.6844 Z "/><text fill="#000000" font-family="sans-serif" font-size="3.6" lengthAdjust="spacingAndGlyphs" textLength="36" x="178.2" y="81.2074">RoboProgressThread</text><line style="stroke: #A80036; stroke-width: 0.44999999999999996;" x1="169.8" x2="214.8" y1="84.5344" y2="84.5344"/><line style="stroke: #A80036; stroke-width: 0.44999999999999996;" x1="169.8" x2="214.8" y1="86.9344" y2="86.9344"/><ellipse cx="172.8" cy="90.2344" fill="#84BE84" rx="0.9" ry="0.9" style="stroke: #038048; stroke-width: 0.3;"/><text fill="#000000" font-family="sans-serif" font-size="3.3" lengthAdjust="spacingAndGlyphs" textLength="16.5" x="175.5" y="91.5601">isRunning()</text><ellipse cx="172.8" cy="94.3852" fill="#84BE84" rx="0.9" ry="0.9" style="stroke: #038048; stroke-width: 0.3;"/><text fill="#000000" font-family="sans-serif" font-size="3.3" lengthAdjust="spacingAndGlyphs" textLength="7.2" x="175.5" y="95.7108">run()</text><ellipse cx="172.8" cy="98.5359" fill="#84BE84" rx="0.9" ry="0.9" style="stroke: #038048; stroke-width: 0.3;"/><text fill="#000000" font-family="sans-serif" font-size="3.3" lengthAdjust="spacingAndGlyphs" textLength="13.5" x="175.5" y="99.8616">setTime()</text><!--MD5=[a01ab0e26b41bd4d5af6c5b69dd24f75]
class Util.RoboRechargeThread--><rect fill="#FEFECE" filter="url(#fhw97mowo0c20)" height="26.8523" id="Util.RoboRechargeThread" style="stroke: #A80036; stroke-width: 0.44999999999999996;" width="46.5" x="57.75" y="132.2344"/><ellipse cx="62.25" cy="137.0344" fill="#ADD1B2" rx="3.3" ry="3.3" style="stroke: #A80036; stroke-width: 0.3;"/><path d="M62.85,135.9844 Q62.9109,135.8344 62.9812,135.7594 Q63.0516,135.6844 63.1312,135.6844 Q63.2719,135.6844 63.3609,135.7687 Q63.45,135.8531 63.45,136.05 L63.45,136.5187 Q63.45,136.7156 63.3656,136.8 Q63.2813,136.8844 63.15,136.8844 Q63.0328,136.8844 62.9578,136.8328 Q62.8828,136.7813 62.85,136.6453 Q62.8359,136.5516 62.7844,136.5 Q62.6906,136.4016 62.5219,136.3453 Q62.3531,136.2844 62.1844,136.2844 Q61.9734,136.2844 61.7953,136.3688 Q61.6219,136.4531 61.4859,136.6406 Q61.35,136.8281 61.35,137.0859 L61.35,137.3625 Q61.35,137.6719 61.6031,137.8781 Q61.8562,138.0844 62.3063,138.0844 Q62.5734,138.0844 62.7609,138.0234 Q62.8688,137.9906 62.9906,137.8828 Q63.0703,137.8219 63.1125,137.8031 Q63.1547,137.7844 63.2063,137.7844 Q63.3047,137.7844 63.375,137.8641 Q63.45,137.9391 63.45,138.0469 Q63.45,138.15 63.3469,138.2719 Q63.1969,138.45 62.9578,138.5484 Q62.6438,138.6844 62.2594,138.6844 Q61.8094,138.6844 61.4484,138.5063 Q61.1578,138.3656 60.9516,138.0609 Q60.75,137.7563 60.75,137.3953 L60.75,137.0672 Q60.75,136.6922 60.9281,136.3641 Q61.1109,136.0359 61.425,135.8625 Q61.7438,135.6844 62.1,135.6844 Q62.3156,135.6844 62.5031,135.7594 Q62.6906,135.8344 62.85,135.9844 Z "/><text fill="#000000" font-family="sans-serif" font-size="3.6" lengthAdjust="spacingAndGlyphs" textLength="36.9" x="66.45" y="138.5074">RoboRechargeThread</text><line style="stroke: #A80036; stroke-width: 0.44999999999999996;" x1="58.05" x2="103.95" y1="141.8344" y2="141.8344"/><line style="stroke: #A80036; stroke-width: 0.44999999999999996;" x1="58.05" x2="103.95" y1="144.2344" y2="144.2344"/><ellipse cx="61.05" cy="147.5344" fill="#84BE84" rx="0.9" ry="0.9" style="stroke: #038048; stroke-width: 0.3;"/><text fill="#000000" font-family="sans-serif" font-size="3.3" lengthAdjust="spacingAndGlyphs" textLength="16.5" x="63.75" y="148.8601">isRunning()</text><ellipse cx="61.05" cy="151.6852" fill="#84BE84" rx="0.9" ry="0.9" style="stroke: #038048; stroke-width: 0.3;"/><text fill="#000000" font-family="sans-serif" font-size="3.3" lengthAdjust="spacingAndGlyphs" textLength="7.2" x="63.75" y="153.0108">run()</text><ellipse cx="61.05" cy="155.8359" fill="#84BE84" rx="0.9" ry="0.9" style="stroke: #038048; stroke-width: 0.3;"/><text fill="#000000" font-family="sans-serif" font-size="3.3" lengthAdjust="spacingAndGlyphs" textLength="13.5" x="63.75" y="157.1616">setTime()</text><!--MD5=[26bbee63e3bc80b6da455d7a93c4a24d]
class Util.RoboTimeThread--><rect fill="#FEFECE" filter="url(#fhw97mowo0c20)" height="26.8523" id="Util.RoboTimeThread" style="stroke: #A80036; stroke-width: 0.44999999999999996;" width="38.7" x="114.75" y="132.2344"/><ellipse cx="119.25" cy="137.0344" fill="#ADD1B2" rx="3.3" ry="3.3" style="stroke: #A80036; stroke-width: 0.3;"/><path d="M119.85,135.9844 Q119.9109,135.8344 119.9812,135.7594 Q120.0516,135.6844 120.1313,135.6844 Q120.2719,135.6844 120.3609,135.7687 Q120.45,135.8531 120.45,136.05 L120.45,136.5187 Q120.45,136.7156 120.3656,136.8 Q120.2813,136.8844 120.15,136.8844 Q120.0328,136.8844 119.9578,136.8328 Q119.8828,136.7813 119.85,136.6453 Q119.8359,136.5516 119.7844,136.5 Q119.6906,136.4016 119.5219,136.3453 Q119.3531,136.2844 119.1844,136.2844 Q118.9734,136.2844 118.7953,136.3688 Q118.6219,136.4531 118.4859,136.6406 Q118.35,136.8281 118.35,137.0859 L118.35,137.3625 Q118.35,137.6719 118.6031,137.8781 Q118.8562,138.0844 119.3062,138.0844 Q119.5734,138.0844 119.7609,138.0234 Q119.8687,137.9906 119.9906,137.8828 Q120.0703,137.8219 120.1125,137.8031 Q120.1547,137.7844 120.2063,137.7844 Q120.3047,137.7844 120.375,137.8641 Q120.45,137.9391 120.45,138.0469 Q120.45,138.15 120.3469,138.2719 Q120.1969,138.45 119.9578,138.5484 Q119.6438,138.6844 119.2594,138.6844 Q118.8094,138.6844 118.4484,138.5063 Q118.1578,138.3656 117.9516,138.0609 Q117.75,137.7563 117.75,137.3953 L117.75,137.0672 Q117.75,136.6922 117.9281,136.3641 Q118.1109,136.0359 118.425,135.8625 Q118.7437,135.6844 119.1,135.6844 Q119.3156,135.6844 119.5031,135.7594 Q119.6906,135.8344 119.85,135.9844 Z "/><text fill="#000000" font-family="sans-serif" font-size="3.6" lengthAdjust="spacingAndGlyphs" textLength="29.1" x="123.45" y="138.5074">RoboTimeThread</text><line style="stroke: #A80036; stroke-width: 0.44999999999999996;" x1="115.05" x2="153.15" y1="141.8344" y2="141.8344"/><line style="stroke: #A80036; stroke-width: 0.44999999999999996;" x1="115.05" x2="153.15" y1="144.2344" y2="144.2344"/><ellipse cx="118.05" cy="147.5344" fill="#84BE84" rx="0.9" ry="0.9" style="stroke: #038048; stroke-width: 0.3;"/><text fill="#000000" font-family="sans-serif" font-size="3.3" lengthAdjust="spacingAndGlyphs" textLength="16.5" x="120.75" y="148.8601">isRunning()</text><ellipse cx="118.05" cy="151.6852" fill="#84BE84" rx="0.9" ry="0.9" style="stroke: #038048; stroke-width: 0.3;"/><text fill="#000000" font-family="sans-serif" font-size="3.3" lengthAdjust="spacingAndGlyphs" textLength="7.2" x="120.75" y="153.0108">run()</text><ellipse cx="118.05" cy="155.8359" fill="#84BE84" rx="0.9" ry="0.9" style="stroke: #038048; stroke-width: 0.3;"/><text fill="#000000" font-family="sans-serif" font-size="3.3" lengthAdjust="spacingAndGlyphs" textLength="13.5" x="120.75" y="157.1616">setTime()</text><!--MD5=[63fab902b45703f145104fe04a7457f1]
class Util.SmartPhone--><rect fill="#FEFECE" filter="url(#fhw97mowo0c20)" height="39.3047" id="Util.SmartPhone" style="stroke: #A80036; stroke-width: 0.44999999999999996;" width="41.1" x="163.95" y="126.0844"/><ellipse cx="173.31" cy="130.8844" fill="#ADD1B2" rx="3.3" ry="3.3" style="stroke: #A80036; stroke-width: 0.3;"/><path d="M173.91,129.8344 Q173.9709,129.6844 174.0413,129.6094 Q174.1116,129.5344 174.1913,129.5344 Q174.3319,129.5344 174.4209,129.6188 Q174.51,129.7031 174.51,129.9 L174.51,130.3688 Q174.51,130.5656 174.4256,130.65 Q174.3413,130.7344 174.21,130.7344 Q174.0928,130.7344 174.0178,130.6828 Q173.9428,130.6313 173.91,130.4953 Q173.8959,130.4016 173.8444,130.35 Q173.7506,130.2516 173.5819,130.1953 Q173.4131,130.1344 173.2444,130.1344 Q173.0334,130.1344 172.8553,130.2188 Q172.6819,130.3031 172.5459,130.4906 Q172.41,130.6781 172.41,130.9359 L172.41,131.2125 Q172.41,131.5219 172.6631,131.7281 Q172.9163,131.9344 173.3663,131.9344 Q173.6334,131.9344 173.8209,131.8734 Q173.9288,131.8406 174.0506,131.7328 Q174.1303,131.6719 174.1725,131.6531 Q174.2147,131.6344 174.2663,131.6344 Q174.3647,131.6344 174.435,131.7141 Q174.51,131.7891 174.51,131.8969 Q174.51,132 174.4069,132.1219 Q174.2569,132.3 174.0178,132.3984 Q173.7038,132.5344 173.3194,132.5344 Q172.8694,132.5344 172.5084,132.3563 Q172.2178,132.2156 172.0116,131.9109 Q171.81,131.6063 171.81,131.2453 L171.81,130.9172 Q171.81,130.5422 171.9881,130.2141 Q172.1709,129.8859 172.485,129.7125 Q172.8038,129.5344 173.16,129.5344 Q173.3756,129.5344 173.5631,129.6094 Q173.7506,129.6844 173.91,129.8344 Z "/><text fill="#000000" font-family="sans-serif" font-size="3.6" lengthAdjust="spacingAndGlyphs" textLength="20.7" x="178.59" y="132.3574">SmartPhone</text><line style="stroke: #A80036; stroke-width: 0.44999999999999996;" x1="164.25" x2="204.75" y1="135.6844" y2="135.6844"/><ellipse cx="167.25" cy="138.9844" fill="none" rx="0.9" ry="0.9" style="stroke: #038048; stroke-width: 0.3;"/><text fill="#000000" font-family="sans-serif" font-size="3.3" lengthAdjust="spacingAndGlyphs" text-decoration="underline" textLength="22.8" x="169.95" y="140.3101">DEVICE_NR : int</text><line style="stroke: #A80036; stroke-width: 0.44999999999999996;" x1="164.25" x2="204.75" y1="142.2352" y2="142.2352"/><ellipse cx="167.25" cy="145.5352" fill="#84BE84" rx="0.9" ry="0.9" style="stroke: #038048; stroke-width: 0.3;"/><text fill="#000000" font-family="sans-serif" font-size="3.3" lengthAdjust="spacingAndGlyphs" text-decoration="underline" textLength="27.6" x="169.95" y="146.8608">getCleaningRobot()</text><ellipse cx="167.25" cy="149.6859" fill="#84BE84" rx="0.9" ry="0.9" style="stroke: #038048; stroke-width: 0.3;"/><text fill="#000000" font-family="sans-serif" font-size="3.3" lengthAdjust="spacingAndGlyphs" text-decoration="underline" textLength="24.6" x="169.95" y="151.0116">getDishwasher()</text><ellipse cx="167.25" cy="153.8367" fill="#84BE84" rx="0.9" ry="0.9" style="stroke: #038048; stroke-width: 0.3;"/><text fill="#000000" font-family="sans-serif" font-size="3.3" lengthAdjust="spacingAndGlyphs" text-decoration="underline" textLength="23.1" x="169.95" y="155.1624">getMicroWave()</text><ellipse cx="167.25" cy="157.9875" fill="#84BE84" rx="0.9" ry="0.9" style="stroke: #038048; stroke-width: 0.3;"/><text fill="#000000" font-family="sans-serif" font-size="3.3" lengthAdjust="spacingAndGlyphs" text-decoration="underline" textLength="14.7" x="169.95" y="159.3132">getOven()</text><ellipse cx="167.25" cy="162.1383" fill="#84BE84" rx="0.9" ry="0.9" style="stroke: #038048; stroke-width: 0.3;"/><text fill="#000000" font-family="sans-serif" font-size="3.3" lengthAdjust="spacingAndGlyphs" text-decoration="underline" textLength="33.3" x="169.95" y="163.464">getWashingMaschine()</text><!--MD5=[5f6bea60977109878c1a5479b7985aea]
class Util.UseSmartPhone--><rect fill="#FEFECE" filter="url(#fhw97mowo0c20)" height="64.2094" id="Util.UseSmartPhone" style="stroke: #A80036; stroke-width: 0.44999999999999996;" width="59.7" x="51.15" y="183.3844"/><ellipse cx="65.925" cy="188.1844" fill="#ADD1B2" rx="3.3" ry="3.3" style="stroke: #A80036; stroke-width: 0.3;"/><path d="M66.525,187.1344 Q66.5859,186.9844 66.6563,186.9094 Q66.7266,186.8344 66.8062,186.8344 Q66.9469,186.8344 67.0359,186.9188 Q67.125,187.0031 67.125,187.2 L67.125,187.6688 Q67.125,187.8656 67.0406,187.95 Q66.9563,188.0344 66.825,188.0344 Q66.7078,188.0344 66.6328,187.9828 Q66.5578,187.9313 66.525,187.7953 Q66.5109,187.7016 66.4594,187.65 Q66.3656,187.5516 66.1969,187.4953 Q66.0281,187.4344 65.8594,187.4344 Q65.6484,187.4344 65.4703,187.5187 Q65.2969,187.6031 65.1609,187.7906 Q65.025,187.9781 65.025,188.2359 L65.025,188.5125 Q65.025,188.8219 65.2781,189.0281 Q65.5313,189.2344 65.9813,189.2344 Q66.2484,189.2344 66.4359,189.1734 Q66.5438,189.1406 66.6656,189.0328 Q66.7453,188.9719 66.7875,188.9531 Q66.8297,188.9344 66.8813,188.9344 Q66.9797,188.9344 67.05,189.0141 Q67.125,189.0891 67.125,189.1969 Q67.125,189.3 67.0219,189.4219 Q66.8719,189.6 66.6328,189.6984 Q66.3188,189.8344 65.9344,189.8344 Q65.4844,189.8344 65.1234,189.6563 Q64.8328,189.5156 64.6266,189.2109 Q64.425,188.9063 64.425,188.5453 L64.425,188.2172 Q64.425,187.8422 64.6031,187.5141 Q64.7859,187.1859 65.1,187.0125 Q65.4188,186.8344 65.775,186.8344 Q65.9906,186.8344 66.1781,186.9094 Q66.3656,186.9844 66.525,187.1344 Z "/><text fill="#000000" font-family="sans-serif" font-size="3.6" lengthAdjust="spacingAndGlyphs" textLength="27.6" x="72.075" y="189.6574">UseSmartPhone</text><line style="stroke: #A80036; stroke-width: 0.44999999999999996;" x1="51.45" x2="110.55" y1="192.9844" y2="192.9844"/><rect fill="none" height="1.8" style="stroke: #C82930; stroke-width: 0.3;" width="1.8" x="53.55" y="195.3844"/><text fill="#000000" font-family="sans-serif" font-size="3.3" lengthAdjust="spacingAndGlyphs" text-decoration="underline" textLength="43.8" x="57.15" y="197.6101">cleaningRobot : CleaningRobot</text><rect fill="none" height="1.8" style="stroke: #C82930; stroke-width: 0.3;" width="1.8" x="53.55" y="199.5352"/><text fill="#000000" font-family="sans-serif" font-size="3.3" lengthAdjust="spacingAndGlyphs" text-decoration="underline" textLength="44.4" x="57.15" y="201.7608">deviceButtons : DeviceButtons</text><rect fill="none" height="1.8" style="stroke: #C82930; stroke-width: 0.3;" width="1.8" x="53.55" y="203.6859"/><text fill="#000000" font-family="sans-serif" font-size="3.3" lengthAdjust="spacingAndGlyphs" text-decoration="underline" textLength="37.8" x="57.15" y="205.9116">dishWasher : Dishwasher</text><rect fill="none" height="1.8" style="stroke: #C82930; stroke-width: 0.3;" width="1.8" x="53.55" y="207.8367"/><text fill="#000000" font-family="sans-serif" font-size="3.3" lengthAdjust="spacingAndGlyphs" text-decoration="underline" textLength="35.1" x="57.15" y="210.0624">microWave : MicroWave</text><rect fill="none" height="1.8" style="stroke: #C82930; stroke-width: 0.3;" width="1.8" x="53.55" y="211.9875"/><text fill="#000000" font-family="sans-serif" font-size="3.3" lengthAdjust="spacingAndGlyphs" text-decoration="underline" textLength="17.7" x="57.15" y="214.2132">oven : Oven</text><rect fill="none" height="1.8" style="stroke: #C82930; stroke-width: 0.3;" width="1.8" x="53.55" y="216.1383"/><text fill="#000000" font-family="sans-serif" font-size="3.3" lengthAdjust="spacingAndGlyphs" text-decoration="underline" textLength="51.9" x="57.15" y="218.364">washingMachine : WashingMachine</text><line style="stroke: #A80036; stroke-width: 0.44999999999999996;" x1="51.45" x2="110.55" y1="220.2891" y2="220.2891"/><ellipse cx="54.45" cy="223.5891" fill="#84BE84" rx="0.9" ry="0.9" style="stroke: #038048; stroke-width: 0.3;"/><text fill="#000000" font-family="sans-serif" font-size="3.3" lengthAdjust="spacingAndGlyphs" text-decoration="underline" textLength="14.4" x="57.15" y="224.9147">getRobo()</text><ellipse cx="54.45" cy="227.7398" fill="#84BE84" rx="0.9" ry="0.9" style="stroke: #038048; stroke-width: 0.3;"/><text fill="#000000" font-family="sans-serif" font-size="3.3" lengthAdjust="spacingAndGlyphs" text-decoration="underline" textLength="9" x="57.15" y="229.0655">main()</text><rect fill="#F24D5C" height="1.8" style="stroke: #C82930; stroke-width: 0.3;" width="1.8" x="53.55" y="230.9906"/><text fill="#000000" font-family="sans-serif" font-size="3.3" lengthAdjust="spacingAndGlyphs" text-decoration="underline" textLength="25.5" x="57.15" y="233.2163">createUserInput()</text><rect fill="#F24D5C" height="1.8" style="stroke: #C82930; stroke-width: 0.3;" width="1.8" x="53.55" y="235.1414"/><text fill="#000000" font-family="sans-serif" font-size="3.3" lengthAdjust="spacingAndGlyphs" text-decoration="underline" textLength="27" x="57.15" y="237.3671">displayMainMenu()</text><rect fill="#F24D5C" height="1.8" style="stroke: #C82930; stroke-width: 0.3;" width="1.8" x="53.55" y="239.2922"/><text fill="#000000" font-family="sans-serif" font-size="3.3" lengthAdjust="spacingAndGlyphs" text-decoration="underline" textLength="18.3" x="57.15" y="241.5179">displayTitle()</text><rect fill="#F24D5C" height="1.8" style="stroke: #C82930; stroke-width: 0.3;" width="1.8" x="53.55" y="243.443"/><text fill="#000000" font-family="sans-serif" font-size="3.3" lengthAdjust="spacingAndGlyphs" text-decoration="underline" textLength="20.4" x="57.15" y="245.6687">validateInput()</text><!--MD5=[8dac795f9edbf65a524ac462449c98fb]
class java.lang.Runnable--><rect fill="#FEFECE" filter="url(#fhw97mowo0c20)" height="14.4" id="java.lang.Runnable" style="stroke: #A80036; stroke-width: 0.44999999999999996;" width="25.8" x="15" y="31.5844"/><ellipse cx="19.5" cy="36.3844" fill="#ADD1B2" rx="3.3" ry="3.3" style="stroke: #A80036; stroke-width: 0.3;"/><path d="M20.1,35.3344 Q20.1609,35.1844 20.2313,35.1094 Q20.3016,35.0344 20.3812,35.0344 Q20.5219,35.0344 20.6109,35.1188 Q20.7,35.2031 20.7,35.4 L20.7,35.8688 Q20.7,36.0656 20.6156,36.15 Q20.5313,36.2344 20.4,36.2344 Q20.2828,36.2344 20.2078,36.1828 Q20.1328,36.1313 20.1,35.9953 Q20.0859,35.9016 20.0344,35.85 Q19.9406,35.7516 19.7719,35.6953 Q19.6031,35.6344 19.4344,35.6344 Q19.2234,35.6344 19.0453,35.7188 Q18.8719,35.8031 18.7359,35.9906 Q18.6,36.1781 18.6,36.4359 L18.6,36.7125 Q18.6,37.0219 18.8531,37.2281 Q19.1063,37.4344 19.5563,37.4344 Q19.8234,37.4344 20.0109,37.3734 Q20.1188,37.3406 20.2406,37.2328 Q20.3203,37.1719 20.3625,37.1531 Q20.4047,37.1344 20.4563,37.1344 Q20.5547,37.1344 20.625,37.2141 Q20.7,37.2891 20.7,37.3969 Q20.7,37.5 20.5969,37.6219 Q20.4469,37.8 20.2078,37.8984 Q19.8938,38.0344 19.5094,38.0344 Q19.0594,38.0344 18.6984,37.8562 Q18.4078,37.7156 18.2016,37.4109 Q18,37.1062 18,36.7453 L18,36.4172 Q18,36.0422 18.1781,35.7141 Q18.3609,35.3859 18.675,35.2125 Q18.9938,35.0344 19.35,35.0344 Q19.5656,35.0344 19.7531,35.1094 Q19.9406,35.1844 20.1,35.3344 Z "/><text fill="#000000" font-family="sans-serif" font-size="3.6" lengthAdjust="spacingAndGlyphs" textLength="16.2" x="23.7" y="37.8574">Runnable</text><line style="stroke: #A80036; stroke-width: 0.44999999999999996;" x1="15.3" x2="40.5" y1="41.1844" y2="41.1844"/><line style="stroke: #A80036; stroke-width: 0.44999999999999996;" x1="15.3" x2="40.5" y1="43.5844" y2="43.5844"/><!--MD5=[a1764e55f4fd566e88728b5e78d65df6]
reverse link java.lang.Runnable to Util.MyThread--><path d="M27.9,52.0297 C27.9,57.1489 27.9,63.1417 27.9,68.7574 " fill="none" id="java.lang.Runnable&lt;-Util.MyThread" style="stroke: #A80036; stroke-width: 0.3; stroke-dasharray: 7.0,7.0;"/><polygon fill="none" points="25.8,52.0081,27.9,46.0081,30,52.0081,25.8,52.0081" style="stroke: #A80036; stroke-width: 0.3;"/><!--MD5=[3dca560103e10c7271030671f138464c]
link Util.DeviceButtons to Util.RoboBatteryThread--><!--MD5=[0ece20ebeeb47b29beca789944d9ff28]
link Util.RoboBatteryThread to Util.RoboProgressThread--><!--MD5=[79594a76de0c8f71600213a6c60c8cb1]
link Util.DeviceButtons to Util.RoboRechargeThread--><!--MD5=[83b6112b2d77f98b3fa212efb5970805]
link Util.RoboRechargeThread to Util.RoboTimeThread--><!--MD5=[f2fb187f685d59e5100938b5a89dfe70]
link Util.RoboTimeThread to Util.SmartPhone--><!--MD5=[211978c1265635f6ddb2a993b4f73895]
link Util.RoboRechargeThread to Util.UseSmartPhone--><text fill="#888888" font-family="sans-serif" font-size="3" lengthAdjust="spacingAndGlyphs" textLength="0" x="230.1" y="263.2986"/><text fill="#888888" font-family="sans-serif" font-size="3" lengthAdjust="spacingAndGlyphs" textLength="0" x="230.1" y="267.0721"/><text fill="#888888" font-family="sans-serif" font-size="3" lengthAdjust="spacingAndGlyphs" textLength="117.6" x="112.5" y="270.8455">PlantUML diagram generated by SketchIt! (https://bitbucket.org/pmesmeur/sketch.it)</text><text fill="#888888" font-family="sans-serif" font-size="3" lengthAdjust="spacingAndGlyphs" textLength="118.2" x="111.9" y="274.6189">For more information about this tool, please contact philippe.mesmeur@gmail.com</text><!--MD5=[c836630569b7451f591f3edec1234ff8]
@startuml

title __UTIL's Class Diagram__\n

  namespace Util {
    class Util.DeviceButtons {
        ~ commandList : List<Command>
        + DeviceButtons()
        + addButtonCommand()
        + press()
        + pressUndo()
    }
  }
  

  namespace Util {
    class Util.MyThread {
        + running : boolean
        + seconds : int
        + MyThread()
        + isRunning()
        + run()
        + setTime()
    }
  }
  

  namespace Util {
    class Util.RoboBatteryThread {
        + isRunning()
        + run()
        + setTime()
    }
  }
  

  namespace Util {
    class Util.RoboProgressThread {
        + isRunning()
        + run()
        + setTime()
    }
  }
  

  namespace Util {
    class Util.RoboRechargeThread {
        + isRunning()
        + run()
        + setTime()
    }
  }
  

  namespace Util {
    class Util.RoboTimeThread {
        + isRunning()
        + run()
        + setTime()
    }
  }
  

  namespace Util {
    class Util.SmartPhone {
        {static} + DEVICE_NR : int
        {static} + getCleaningRobot()
        {static} + getDishwasher()
        {static} + getMicroWave()
        {static} + getOven()
        {static} + getWashingMaschine()
    }
  }
  

  namespace Util {
    class Util.UseSmartPhone {
        {static} - cleaningRobot : CleaningRobot
        {static} - deviceButtons : DeviceButtons
        {static} - dishWasher : Dishwasher
        {static} - microWave : MicroWave
        {static} - oven : Oven
        {static} - washingMachine : WashingMachine
        {static} + getRobo()
        {static} + main()
        {static} - createUserInput()
        {static} - displayMainMenu()
        {static} - displayTitle()
        {static} - validateInput()
    }
  }
  

  Util.MyThread .up.|> java.lang.Runnable


right footer


PlantUML diagram generated by SketchIt! (https://bitbucket.org/pmesmeur/sketch.it)
For more information about this tool, please contact philippe.mesmeur@gmail.com
endfooter

@enduml

PlantUML version 1.2019.11(Sun Sep 22 12:02:15 CEST 2019)
(GPL source distribution)
Java Runtime: OpenJDK Runtime Environment
JVM: OpenJDK 64-Bit Server VM
Java Version: 11.0.4+10-b304.77
Operating System: Windows 10
Default Encoding: Cp1252
Language: de
Country: CH
--></g></svg>