<?xml version="1.0" encoding="UTF-8" standalone="no"?><svg xmlns="http://www.w3.org/2000/svg" xmlns:xlink="http://www.w3.org/1999/xlink" contentScriptType="application/ecmascript" contentStyleType="text/css" height="784.905px" preserveAspectRatio="none" style="width:1374px;height:784px;" version="1.1" viewBox="0 0 1374 784" width="1374.915px" zoomAndPan="magnify"><defs><filter height="300%" id="f27mgzz13xjqg" width="300%" x="-1" y="-1"><feGaussianBlur result="blurOut" stdDeviation="2.13"/><feColorMatrix in="blurOut" result="blurOut2" type="matrix" values="0 0 0 0 0 0 0 0 0 0 0 0 0 0 0 0 0 0 .4 0"/><feOffset dx="4.26" dy="4.26" in="blurOut2" result="blurOut3"/><feBlend in="SourceGraphic" in2="blurOut3" mode="normal"/></filter></defs><g><text fill="#000000" font-family="sans-serif" font-size="19.17" lengthAdjust="spacingAndGlyphs" text-decoration="underline" textLength="184.245" x="588.945" y="19.9001">UTIL's Class Diagram</text><text fill="#000000" font-family="sans-serif" font-size="19.17" lengthAdjust="spacingAndGlyphs" textLength="0" x="683.73" y="44.0124"/><!--MD5=[a55135535b5c544b99c33b17428c3b14]
cluster Util--><polygon fill="#FFFFFF" filter="url(#f27mgzz13xjqg)" points="23.43,205.8445,54.315,205.8445,61.77,230.9885,1325.925,230.9885,1325.925,692.5495,23.43,692.5495,23.43,205.8445" style="stroke: #000000; stroke-width: 1.5975;"/><line style="stroke: #000000; stroke-width: 1.5975;" x1="23.43" x2="61.77" y1="230.9885" y2="230.9885"/><text fill="#000000" font-family="sans-serif" font-size="14.91" font-weight="bold" lengthAdjust="spacingAndGlyphs" textLength="24.495" x="27.69" y="223.4524">Util</text><!--MD5=[aa8f7b917213fcc1c2766e2d59b49067]
cluster java.lang--><polygon fill="#FFFFFF" filter="url(#f27mgzz13xjqg)" points="412.155,73.7845,485.64,73.7845,493.095,98.9285,537.825,98.9285,537.825,180.2845,412.155,180.2845,412.155,73.7845" style="stroke: #000000; stroke-width: 1.5975;"/><line style="stroke: #000000; stroke-width: 1.5975;" x1="412.155" x2="493.095" y1="98.9285" y2="98.9285"/><text fill="#000000" font-family="sans-serif" font-size="14.91" font-weight="bold" lengthAdjust="spacingAndGlyphs" textLength="67.095" x="416.415" y="91.3924">java.lang</text><!--MD5=[55ceab3a75b64053642b6f6993bde510]
class Util.DeviceButtons--><rect fill="#FEFECE" filter="url(#f27mgzz13xjqg)" height="124.7964" id="Util.DeviceButtons" style="stroke: #A80036; stroke-width: 1.5975;" width="185.31" x="939.33" y="251.6395"/><ellipse cx="985.4978" cy="268.6795" fill="#ADD1B2" rx="11.715" ry="11.715" style="stroke: #A80036; stroke-width: 1.065;"/><path d="M987.6278,264.952 Q987.8441,264.4195 988.0937,264.1533 Q988.3433,263.887 988.6262,263.887 Q989.1254,263.887 989.4416,264.1866 Q989.7578,264.4861 989.7578,265.185 L989.7578,266.8491 Q989.7578,267.548 989.4582,267.8475 Q989.1587,268.147 988.6927,268.147 Q988.2767,268.147 988.0105,267.964 Q987.7442,267.7809 987.6278,267.2984 Q987.5778,266.9655 987.3948,266.7825 Q987.062,266.433 986.4629,266.2334 Q985.8638,266.017 985.2648,266.017 Q984.516,266.017 983.8836,266.3166 Q983.2679,266.6161 982.7853,267.2817 Q982.3028,267.9473 982.3028,268.8626 L982.3028,269.8444 Q982.3028,270.9427 983.2013,271.6748 Q984.0999,272.407 985.6974,272.407 Q986.646,272.407 987.3116,272.1907 Q987.6943,272.0742 988.127,271.6915 Q988.4099,271.4752 988.5596,271.4086 Q988.7094,271.342 988.8924,271.342 Q989.2419,271.342 989.4915,271.6249 Q989.7578,271.8912 989.7578,272.2739 Q989.7578,272.64 989.3917,273.0727 Q988.8592,273.705 988.0105,274.0545 Q986.8956,274.537 985.531,274.537 Q983.9335,274.537 982.6522,273.9047 Q981.6205,273.4055 980.8883,272.3238 Q980.1728,271.2422 980.1728,269.9609 L980.1728,268.796 Q980.1728,267.4648 980.8051,266.2999 Q981.4541,265.1351 982.569,264.5194 Q983.7006,263.887 984.9653,263.887 Q985.7307,263.887 986.3963,264.1533 Q987.062,264.4195 987.6278,264.952 Z "/><text fill="#000000" font-family="sans-serif" font-size="12.78" lengthAdjust="spacingAndGlyphs" textLength="84.135" x="1007.1172" y="273.9088">DeviceButtons</text><line style="stroke: #A80036; stroke-width: 1.5975;" x1="940.395" x2="1123.575" y1="285.7195" y2="285.7195"/><polygon fill="none" points="951.045,293.1745,946.785,299.5645,955.305,299.5645" style="stroke: #1963A0; stroke-width: 1.065;"/><text fill="#000000" font-family="sans-serif" font-size="11.715" lengthAdjust="spacingAndGlyphs" textLength="157.62" x="960.63" y="302.1407">commandList : List&lt;Command&gt;</text><line style="stroke: #A80036; stroke-width: 1.5975;" x1="940.395" x2="1123.575" y1="308.9748" y2="308.9748"/><ellipse cx="951.045" cy="320.6898" fill="#84BE84" rx="3.195" ry="3.195" style="stroke: #038048; stroke-width: 1.065;"/><text fill="#000000" font-family="sans-serif" font-size="11.715" lengthAdjust="spacingAndGlyphs" textLength="83.07" x="960.63" y="325.396">DeviceButtons()</text><ellipse cx="951.045" cy="335.4251" fill="#84BE84" rx="3.195" ry="3.195" style="stroke: #038048; stroke-width: 1.065;"/><text fill="#000000" font-family="sans-serif" font-size="11.715" lengthAdjust="spacingAndGlyphs" textLength="110.76" x="960.63" y="340.1313">addButtonCommand()</text><ellipse cx="951.045" cy="350.1604" fill="#84BE84" rx="3.195" ry="3.195" style="stroke: #038048; stroke-width: 1.065;"/><text fill="#000000" font-family="sans-serif" font-size="11.715" lengthAdjust="spacingAndGlyphs" textLength="38.34" x="960.63" y="354.8665">press()</text><ellipse cx="951.045" cy="364.8956" fill="#84BE84" rx="3.195" ry="3.195" style="stroke: #038048; stroke-width: 1.065;"/><text fill="#000000" font-family="sans-serif" font-size="11.715" lengthAdjust="spacingAndGlyphs" textLength="64.965" x="960.63" y="369.6018">pressUndo()</text><!--MD5=[8d7b9165088683794b83354091141d4f]
class Util.MyThread--><rect fill="#FEFECE" filter="url(#f27mgzz13xjqg)" height="139.5316" id="Util.MyThread" style="stroke: #A80036; stroke-width: 1.5975;" width="116.085" x="785.4375" y="244.1845"/><ellipse cx="812.9145" cy="261.2245" fill="#ADD1B2" rx="11.715" ry="11.715" style="stroke: #A80036; stroke-width: 1.065;"/><path d="M815.0445,257.497 Q815.2608,256.9645 815.5104,256.6983 Q815.76,256.432 816.0429,256.432 Q816.5422,256.432 816.8583,256.7316 Q817.1745,257.0311 817.1745,257.73 L817.1745,259.3941 Q817.1745,260.093 816.875,260.3925 Q816.5754,260.692 816.1095,260.692 Q815.6935,260.692 815.4272,260.509 Q815.161,260.3259 815.0445,259.8434 Q814.9946,259.5105 814.8115,259.3275 Q814.4787,258.978 813.8797,258.7784 Q813.2806,258.562 812.6815,258.562 Q811.9327,258.562 811.3004,258.8616 Q810.6847,259.1611 810.2021,259.8267 Q809.7195,260.4923 809.7195,261.4076 L809.7195,262.3894 Q809.7195,263.4877 810.6181,264.2198 Q811.5167,264.952 813.1142,264.952 Q814.0627,264.952 814.7283,264.7357 Q815.1111,264.6192 815.5437,264.2365 Q815.8266,264.0202 815.9764,263.9536 Q816.1261,263.887 816.3092,263.887 Q816.6586,263.887 816.9083,264.1699 Q817.1745,264.4362 817.1745,264.8189 Q817.1745,265.185 816.8084,265.6177 Q816.2759,266.25 815.4272,266.5995 Q814.3123,267.082 812.9478,267.082 Q811.3503,267.082 810.069,266.4497 Q809.0372,265.9505 808.305,264.8688 Q807.5895,263.7872 807.5895,262.5059 L807.5895,261.341 Q807.5895,260.0098 808.2218,258.8449 Q808.8708,257.6801 809.9857,257.0644 Q811.1173,256.432 812.382,256.432 Q813.1475,256.432 813.8131,256.6983 Q814.4787,256.9645 815.0445,257.497 Z "/><text fill="#000000" font-family="sans-serif" font-size="12.78" lengthAdjust="spacingAndGlyphs" textLength="56.445" x="830.3805" y="266.4538">MyThread</text><line style="stroke: #A80036; stroke-width: 1.5975;" x1="786.5025" x2="900.4575" y1="278.2645" y2="278.2645"/><rect fill="none" height="6.39" style="stroke: #C82930; stroke-width: 1.065;" width="6.39" x="793.9575" y="286.7845"/><text fill="#000000" font-family="sans-serif" font-size="11.715" lengthAdjust="spacingAndGlyphs" textLength="88.395" x="806.7375" y="294.6857">running : boolean</text><rect fill="none" height="6.39" style="stroke: #C82930; stroke-width: 1.065;" width="6.39" x="793.9575" y="301.5198"/><text fill="#000000" font-family="sans-serif" font-size="11.715" lengthAdjust="spacingAndGlyphs" textLength="66.03" x="806.7375" y="309.421">seconds : int</text><line style="stroke: #A80036; stroke-width: 1.5975;" x1="786.5025" x2="900.4575" y1="316.2551" y2="316.2551"/><ellipse cx="797.1525" cy="327.9701" fill="#84BE84" rx="3.195" ry="3.195" style="stroke: #038048; stroke-width: 1.065;"/><text fill="#000000" font-family="sans-serif" font-size="11.715" lengthAdjust="spacingAndGlyphs" textLength="59.64" x="806.7375" y="332.6763">MyThread()</text><ellipse cx="797.1525" cy="342.7054" fill="#84BE84" rx="3.195" ry="3.195" style="stroke: #038048; stroke-width: 1.065;"/><text fill="#000000" font-family="sans-serif" font-size="11.715" lengthAdjust="spacingAndGlyphs" textLength="58.575" x="806.7375" y="347.4115">isRunning()</text><ellipse cx="797.1525" cy="357.4406" fill="#84BE84" rx="3.195" ry="3.195" style="stroke: #038048; stroke-width: 1.065;"/><text fill="#000000" font-family="sans-serif" font-size="11.715" lengthAdjust="spacingAndGlyphs" textLength="25.56" x="806.7375" y="362.1468">run()</text><ellipse cx="797.1525" cy="372.1759" fill="#84BE84" rx="3.195" ry="3.195" style="stroke: #038048; stroke-width: 1.065;"/><text fill="#000000" font-family="sans-serif" font-size="11.715" lengthAdjust="spacingAndGlyphs" textLength="47.925" x="806.7375" y="376.8821">setTime()</text><!--MD5=[a01ab0e26b41bd4d5af6c5b69dd24f75]
class Util.RoboRechargeThread--><rect fill="#FEFECE" filter="url(#f27mgzz13xjqg)" height="139.5316" id="Util.RoboRechargeThread" style="stroke: #A80036; stroke-width: 1.5975;" width="165.075" x="583.0875" y="244.1845"/><ellipse cx="599.0625" cy="261.2245" fill="#ADD1B2" rx="11.715" ry="11.715" style="stroke: #A80036; stroke-width: 1.065;"/><path d="M601.1925,257.497 Q601.4088,256.9645 601.6584,256.6983 Q601.908,256.432 602.1909,256.432 Q602.6902,256.432 603.0063,256.7316 Q603.3225,257.0311 603.3225,257.73 L603.3225,259.3941 Q603.3225,260.093 603.023,260.3925 Q602.7234,260.692 602.2575,260.692 Q601.8415,260.692 601.5752,260.509 Q601.309,260.3259 601.1925,259.8434 Q601.1426,259.5105 600.9595,259.3275 Q600.6267,258.978 600.0277,258.7784 Q599.4286,258.562 598.8295,258.562 Q598.0807,258.562 597.4484,258.8616 Q596.8327,259.1611 596.3501,259.8267 Q595.8675,260.4923 595.8675,261.4076 L595.8675,262.3894 Q595.8675,263.4877 596.7661,264.2198 Q597.6647,264.952 599.2622,264.952 Q600.2107,264.952 600.8763,264.7357 Q601.2591,264.6192 601.6917,264.2365 Q601.9746,264.0202 602.1244,263.9536 Q602.2741,263.887 602.4572,263.887 Q602.8066,263.887 603.0563,264.1699 Q603.3225,264.4362 603.3225,264.8189 Q603.3225,265.185 602.9564,265.6177 Q602.4239,266.25 601.5752,266.5995 Q600.4603,267.082 599.0958,267.082 Q597.4983,267.082 596.217,266.4497 Q595.1852,265.9505 594.453,264.8688 Q593.7375,263.7872 593.7375,262.5059 L593.7375,261.341 Q593.7375,260.0098 594.3698,258.8449 Q595.0188,257.6801 596.1338,257.0644 Q597.2653,256.432 598.53,256.432 Q599.2955,256.432 599.9611,256.6983 Q600.6267,256.9645 601.1925,257.497 Z "/><text fill="#000000" font-family="sans-serif" font-size="12.78" lengthAdjust="spacingAndGlyphs" textLength="130.995" x="613.9725" y="266.4538">RoboRechargeThread</text><line style="stroke: #A80036; stroke-width: 1.5975;" x1="584.1525" x2="747.0975" y1="278.2645" y2="278.2645"/><rect fill="none" height="6.39" style="stroke: #C82930; stroke-width: 1.065;" width="6.39" x="591.6075" y="286.7845"/><text fill="#000000" font-family="sans-serif" font-size="11.715" lengthAdjust="spacingAndGlyphs" textLength="88.395" x="604.3875" y="294.6857">running : boolean</text><rect fill="none" height="6.39" style="stroke: #C82930; stroke-width: 1.065;" width="6.39" x="591.6075" y="301.5198"/><text fill="#000000" font-family="sans-serif" font-size="11.715" lengthAdjust="spacingAndGlyphs" textLength="66.03" x="604.3875" y="309.421">seconds : int</text><line style="stroke: #A80036; stroke-width: 1.5975;" x1="584.1525" x2="747.0975" y1="316.2551" y2="316.2551"/><ellipse cx="594.8025" cy="327.9701" fill="#84BE84" rx="3.195" ry="3.195" style="stroke: #038048; stroke-width: 1.065;"/><text fill="#000000" font-family="sans-serif" font-size="11.715" lengthAdjust="spacingAndGlyphs" textLength="121.41" x="604.3875" y="332.6763">RoboRechargeThread()</text><ellipse cx="594.8025" cy="342.7054" fill="#84BE84" rx="3.195" ry="3.195" style="stroke: #038048; stroke-width: 1.065;"/><text fill="#000000" font-family="sans-serif" font-size="11.715" lengthAdjust="spacingAndGlyphs" textLength="58.575" x="604.3875" y="347.4115">isRunning()</text><ellipse cx="594.8025" cy="357.4406" fill="#84BE84" rx="3.195" ry="3.195" style="stroke: #038048; stroke-width: 1.065;"/><text fill="#000000" font-family="sans-serif" font-size="11.715" lengthAdjust="spacingAndGlyphs" textLength="25.56" x="604.3875" y="362.1468">run()</text><ellipse cx="594.8025" cy="372.1759" fill="#84BE84" rx="3.195" ry="3.195" style="stroke: #038048; stroke-width: 1.065;"/><text fill="#000000" font-family="sans-serif" font-size="11.715" lengthAdjust="spacingAndGlyphs" textLength="47.925" x="604.3875" y="376.8821">setTime()</text><!--MD5=[63fab902b45703f145104fe04a7457f1]
class Util.SmartPhone--><rect fill="#FEFECE" filter="url(#f27mgzz13xjqg)" height="139.5316" id="Util.SmartPhone" style="stroke: #A80036; stroke-width: 1.5975;" width="145.905" x="1162.4475" y="244.1845"/><ellipse cx="1195.6755" cy="261.2245" fill="#ADD1B2" rx="11.715" ry="11.715" style="stroke: #A80036; stroke-width: 1.065;"/><path d="M1197.8055,257.497 Q1198.0218,256.9645 1198.2714,256.6983 Q1198.521,256.432 1198.8039,256.432 Q1199.3032,256.432 1199.6193,256.7316 Q1199.9355,257.0311 1199.9355,257.73 L1199.9355,259.3941 Q1199.9355,260.093 1199.636,260.3925 Q1199.3364,260.692 1198.8705,260.692 Q1198.4545,260.692 1198.1882,260.509 Q1197.922,260.3259 1197.8055,259.8434 Q1197.7556,259.5105 1197.5725,259.3275 Q1197.2397,258.978 1196.6407,258.7784 Q1196.0416,258.562 1195.4425,258.562 Q1194.6937,258.562 1194.0614,258.8616 Q1193.4457,259.1611 1192.9631,259.8267 Q1192.4805,260.4923 1192.4805,261.4076 L1192.4805,262.3894 Q1192.4805,263.4877 1193.3791,264.2198 Q1194.2777,264.952 1195.8752,264.952 Q1196.8237,264.952 1197.4893,264.7357 Q1197.8721,264.6192 1198.3047,264.2365 Q1198.5876,264.0202 1198.7374,263.9536 Q1198.8871,263.887 1199.0702,263.887 Q1199.4196,263.887 1199.6693,264.1699 Q1199.9355,264.4362 1199.9355,264.8189 Q1199.9355,265.185 1199.5694,265.6177 Q1199.0369,266.25 1198.1882,266.5995 Q1197.0733,267.082 1195.7088,267.082 Q1194.1113,267.082 1192.83,266.4497 Q1191.7982,265.9505 1191.066,264.8688 Q1190.3505,263.7872 1190.3505,262.5059 L1190.3505,261.341 Q1190.3505,260.0098 1190.9828,258.8449 Q1191.6318,257.6801 1192.7468,257.0644 Q1193.8783,256.432 1195.143,256.432 Q1195.9085,256.432 1196.5741,256.6983 Q1197.2397,256.9645 1197.8055,257.497 Z "/><text fill="#000000" font-family="sans-serif" font-size="12.78" lengthAdjust="spacingAndGlyphs" textLength="73.485" x="1214.4195" y="266.4538">SmartPhone</text><line style="stroke: #A80036; stroke-width: 1.5975;" x1="1163.5125" x2="1307.2875" y1="278.2645" y2="278.2645"/><ellipse cx="1174.1625" cy="289.9795" fill="none" rx="3.195" ry="3.195" style="stroke: #038048; stroke-width: 1.065;"/><text fill="#000000" font-family="sans-serif" font-size="11.715" lengthAdjust="spacingAndGlyphs" text-decoration="underline" textLength="80.94" x="1183.7475" y="294.6857">DEVICE_NR : int</text><line style="stroke: #A80036; stroke-width: 1.5975;" x1="1163.5125" x2="1307.2875" y1="301.5198" y2="301.5198"/><ellipse cx="1174.1625" cy="313.2348" fill="#84BE84" rx="3.195" ry="3.195" style="stroke: #038048; stroke-width: 1.065;"/><text fill="#000000" font-family="sans-serif" font-size="11.715" lengthAdjust="spacingAndGlyphs" text-decoration="underline" textLength="97.98" x="1183.7475" y="317.941">getCleaningRobot()</text><ellipse cx="1174.1625" cy="327.9701" fill="#84BE84" rx="3.195" ry="3.195" style="stroke: #038048; stroke-width: 1.065;"/><text fill="#000000" font-family="sans-serif" font-size="11.715" lengthAdjust="spacingAndGlyphs" text-decoration="underline" textLength="87.33" x="1183.7475" y="332.6763">getDishwasher()</text><ellipse cx="1174.1625" cy="342.7054" fill="#84BE84" rx="3.195" ry="3.195" style="stroke: #038048; stroke-width: 1.065;"/><text fill="#000000" font-family="sans-serif" font-size="11.715" lengthAdjust="spacingAndGlyphs" text-decoration="underline" textLength="82.005" x="1183.7475" y="347.4115">getMicroWave()</text><ellipse cx="1174.1625" cy="357.4406" fill="#84BE84" rx="3.195" ry="3.195" style="stroke: #038048; stroke-width: 1.065;"/><text fill="#000000" font-family="sans-serif" font-size="11.715" lengthAdjust="spacingAndGlyphs" text-decoration="underline" textLength="52.185" x="1183.7475" y="362.1468">getOven()</text><ellipse cx="1174.1625" cy="372.1759" fill="#84BE84" rx="3.195" ry="3.195" style="stroke: #038048; stroke-width: 1.065;"/><text fill="#000000" font-family="sans-serif" font-size="11.715" lengthAdjust="spacingAndGlyphs" text-decoration="underline" textLength="118.215" x="1183.7475" y="376.8821">getWashingMaschine()</text><!--MD5=[5f6bea60977109878c1a5479b7985aea]
class Util.UseSmartPhone--><rect fill="#FEFECE" filter="url(#f27mgzz13xjqg)" height="227.9433" id="Util.UseSmartPhone" style="stroke: #A80036; stroke-width: 1.5975;" width="211.935" x="926.0175" y="447.5995"/><ellipse cx="978.4688" cy="464.6395" fill="#ADD1B2" rx="11.715" ry="11.715" style="stroke: #A80036; stroke-width: 1.065;"/><path d="M980.5988,460.912 Q980.8151,460.3795 981.0647,460.1133 Q981.3143,459.847 981.5972,459.847 Q982.0964,459.847 982.4126,460.1466 Q982.7288,460.4461 982.7288,461.145 L982.7288,462.8091 Q982.7288,463.508 982.4292,463.8075 Q982.1297,464.107 981.6637,464.107 Q981.2477,464.107 980.9815,463.924 Q980.7152,463.7409 980.5988,463.2584 Q980.5488,462.9255 980.3658,462.7425 Q980.033,462.393 979.4339,462.1934 Q978.8348,461.977 978.2358,461.977 Q977.487,461.977 976.8546,462.2766 Q976.2389,462.5761 975.7563,463.2417 Q975.2738,463.9073 975.2738,464.8226 L975.2738,465.8044 Q975.2738,466.9027 976.1723,467.6348 Q977.0709,468.367 978.6684,468.367 Q979.617,468.367 980.2826,468.1507 Q980.6653,468.0342 981.098,467.6515 Q981.3809,467.4352 981.5306,467.3686 Q981.6804,467.302 981.8634,467.302 Q982.2129,467.302 982.4625,467.5849 Q982.7288,467.8512 982.7288,468.2339 Q982.7288,468.6 982.3627,469.0327 Q981.8302,469.665 980.9815,470.0145 Q979.8666,470.497 978.502,470.497 Q976.9045,470.497 975.6232,469.8647 Q974.5915,469.3655 973.8593,468.2838 Q973.1438,467.2022 973.1438,465.9209 L973.1438,464.756 Q973.1438,463.4248 973.7761,462.2599 Q974.4251,461.0951 975.54,460.4794 Q976.6716,459.847 977.9363,459.847 Q978.7017,459.847 979.3673,460.1133 Q980.033,460.3795 980.5988,460.912 Z "/><text fill="#000000" font-family="sans-serif" font-size="12.78" lengthAdjust="spacingAndGlyphs" textLength="97.98" x="1000.3013" y="469.8688">UseSmartPhone</text><line style="stroke: #A80036; stroke-width: 1.5975;" x1="927.0825" x2="1136.8875" y1="481.6795" y2="481.6795"/><rect fill="none" height="6.39" style="stroke: #C82930; stroke-width: 1.065;" width="6.39" x="934.5375" y="490.1995"/><text fill="#000000" font-family="sans-serif" font-size="11.715" lengthAdjust="spacingAndGlyphs" text-decoration="underline" textLength="155.49" x="947.3175" y="498.1007">cleaningRobot : CleaningRobot</text><rect fill="none" height="6.39" style="stroke: #C82930; stroke-width: 1.065;" width="6.39" x="934.5375" y="504.9348"/><text fill="#000000" font-family="sans-serif" font-size="11.715" lengthAdjust="spacingAndGlyphs" text-decoration="underline" textLength="157.62" x="947.3175" y="512.836">deviceButtons : DeviceButtons</text><rect fill="none" height="6.39" style="stroke: #C82930; stroke-width: 1.065;" width="6.39" x="934.5375" y="519.6701"/><text fill="#000000" font-family="sans-serif" font-size="11.715" lengthAdjust="spacingAndGlyphs" text-decoration="underline" textLength="134.19" x="947.3175" y="527.5713">dishWasher : Dishwasher</text><rect fill="none" height="6.39" style="stroke: #C82930; stroke-width: 1.065;" width="6.39" x="934.5375" y="534.4054"/><text fill="#000000" font-family="sans-serif" font-size="11.715" lengthAdjust="spacingAndGlyphs" text-decoration="underline" textLength="124.605" x="947.3175" y="542.3065">microWave : MicroWave</text><rect fill="none" height="6.39" style="stroke: #C82930; stroke-width: 1.065;" width="6.39" x="934.5375" y="549.1406"/><text fill="#000000" font-family="sans-serif" font-size="11.715" lengthAdjust="spacingAndGlyphs" text-decoration="underline" textLength="62.835" x="947.3175" y="557.0418">oven : Oven</text><rect fill="none" height="6.39" style="stroke: #C82930; stroke-width: 1.065;" width="6.39" x="934.5375" y="563.8759"/><text fill="#000000" font-family="sans-serif" font-size="11.715" lengthAdjust="spacingAndGlyphs" text-decoration="underline" textLength="184.245" x="947.3175" y="571.7771">washingMachine : WashingMachine</text><line style="stroke: #A80036; stroke-width: 1.5975;" x1="927.0825" x2="1136.8875" y1="578.6112" y2="578.6112"/><ellipse cx="937.7325" cy="590.3262" fill="#84BE84" rx="3.195" ry="3.195" style="stroke: #038048; stroke-width: 1.065;"/><text fill="#000000" font-family="sans-serif" font-size="11.715" lengthAdjust="spacingAndGlyphs" text-decoration="underline" textLength="51.12" x="947.3175" y="595.0323">getRobo()</text><ellipse cx="937.7325" cy="605.0614" fill="#84BE84" rx="3.195" ry="3.195" style="stroke: #038048; stroke-width: 1.065;"/><text fill="#000000" font-family="sans-serif" font-size="11.715" lengthAdjust="spacingAndGlyphs" text-decoration="underline" textLength="31.95" x="947.3175" y="609.7676">main()</text><rect fill="#F24D5C" height="6.39" style="stroke: #C82930; stroke-width: 1.065;" width="6.39" x="934.5375" y="616.6017"/><text fill="#000000" font-family="sans-serif" font-size="11.715" lengthAdjust="spacingAndGlyphs" text-decoration="underline" textLength="90.525" x="947.3175" y="624.5029">createUserInput()</text><rect fill="#F24D5C" height="6.39" style="stroke: #C82930; stroke-width: 1.065;" width="6.39" x="934.5375" y="631.337"/><text fill="#000000" font-family="sans-serif" font-size="11.715" lengthAdjust="spacingAndGlyphs" text-decoration="underline" textLength="95.85" x="947.3175" y="639.2382">displayMainMenu()</text><rect fill="#F24D5C" height="6.39" style="stroke: #C82930; stroke-width: 1.065;" width="6.39" x="934.5375" y="646.0723"/><text fill="#000000" font-family="sans-serif" font-size="11.715" lengthAdjust="spacingAndGlyphs" text-decoration="underline" textLength="64.965" x="947.3175" y="653.9734">displayTitle()</text><rect fill="#F24D5C" height="6.39" style="stroke: #C82930; stroke-width: 1.065;" width="6.39" x="934.5375" y="660.8075"/><text fill="#000000" font-family="sans-serif" font-size="11.715" lengthAdjust="spacingAndGlyphs" text-decoration="underline" textLength="72.42" x="947.3175" y="668.7087">validateInput()</text><!--MD5=[01e6ab4322dcdec5c5e6b3370ca8a41c]
class Util.roboBatteryThread--><rect fill="#FEFECE" filter="url(#f27mgzz13xjqg)" height="139.5316" id="Util.roboBatteryThread" style="stroke: #A80036; stroke-width: 1.5975;" width="141.645" x="404.1675" y="244.1845"/><ellipse cx="420.1425" cy="261.2245" fill="#ADD1B2" rx="11.715" ry="11.715" style="stroke: #A80036; stroke-width: 1.065;"/><path d="M422.2725,257.497 Q422.4888,256.9645 422.7384,256.6983 Q422.988,256.432 423.2709,256.432 Q423.7702,256.432 424.0863,256.7316 Q424.4025,257.0311 424.4025,257.73 L424.4025,259.3941 Q424.4025,260.093 424.103,260.3925 Q423.8034,260.692 423.3375,260.692 Q422.9215,260.692 422.6552,260.509 Q422.389,260.3259 422.2725,259.8434 Q422.2226,259.5105 422.0395,259.3275 Q421.7067,258.978 421.1077,258.7784 Q420.5086,258.562 419.9095,258.562 Q419.1607,258.562 418.5284,258.8616 Q417.9127,259.1611 417.4301,259.8267 Q416.9475,260.4923 416.9475,261.4076 L416.9475,262.3894 Q416.9475,263.4877 417.8461,264.2198 Q418.7447,264.952 420.3422,264.952 Q421.2907,264.952 421.9563,264.7357 Q422.3391,264.6192 422.7717,264.2365 Q423.0546,264.0202 423.2044,263.9536 Q423.3541,263.887 423.5372,263.887 Q423.8866,263.887 424.1362,264.1699 Q424.4025,264.4362 424.4025,264.8189 Q424.4025,265.185 424.0364,265.6177 Q423.5039,266.25 422.6552,266.5995 Q421.5403,267.082 420.1758,267.082 Q418.5783,267.082 417.297,266.4497 Q416.2652,265.9505 415.533,264.8688 Q414.8175,263.7872 414.8175,262.5059 L414.8175,261.341 Q414.8175,260.0098 415.4498,258.8449 Q416.0988,257.6801 417.2138,257.0644 Q418.3453,256.432 419.61,256.432 Q420.3755,256.432 421.0411,256.6983 Q421.7067,256.9645 422.2725,257.497 Z "/><text fill="#000000" font-family="sans-serif" font-size="12.78" lengthAdjust="spacingAndGlyphs" textLength="107.565" x="435.0525" y="266.4538">roboBatteryThread</text><line style="stroke: #A80036; stroke-width: 1.5975;" x1="405.2325" x2="544.7475" y1="278.2645" y2="278.2645"/><rect fill="none" height="6.39" style="stroke: #C82930; stroke-width: 1.065;" width="6.39" x="412.6875" y="286.7845"/><text fill="#000000" font-family="sans-serif" font-size="11.715" lengthAdjust="spacingAndGlyphs" textLength="88.395" x="425.4675" y="294.6857">running : boolean</text><rect fill="none" height="6.39" style="stroke: #C82930; stroke-width: 1.065;" width="6.39" x="412.6875" y="301.5198"/><text fill="#000000" font-family="sans-serif" font-size="11.715" lengthAdjust="spacingAndGlyphs" textLength="66.03" x="425.4675" y="309.421">seconds : int</text><line style="stroke: #A80036; stroke-width: 1.5975;" x1="405.2325" x2="544.7475" y1="316.2551" y2="316.2551"/><ellipse cx="415.8825" cy="327.9701" fill="#84BE84" rx="3.195" ry="3.195" style="stroke: #038048; stroke-width: 1.065;"/><text fill="#000000" font-family="sans-serif" font-size="11.715" lengthAdjust="spacingAndGlyphs" textLength="58.575" x="425.4675" y="332.6763">isRunning()</text><ellipse cx="415.8825" cy="342.7054" fill="#84BE84" rx="3.195" ry="3.195" style="stroke: #038048; stroke-width: 1.065;"/><text fill="#000000" font-family="sans-serif" font-size="11.715" lengthAdjust="spacingAndGlyphs" textLength="105.435" x="425.4675" y="347.4115">roboBatteryThread()</text><ellipse cx="415.8825" cy="357.4406" fill="#84BE84" rx="3.195" ry="3.195" style="stroke: #038048; stroke-width: 1.065;"/><text fill="#000000" font-family="sans-serif" font-size="11.715" lengthAdjust="spacingAndGlyphs" textLength="25.56" x="425.4675" y="362.1468">run()</text><ellipse cx="415.8825" cy="372.1759" fill="#84BE84" rx="3.195" ry="3.195" style="stroke: #038048; stroke-width: 1.065;"/><text fill="#000000" font-family="sans-serif" font-size="11.715" lengthAdjust="spacingAndGlyphs" textLength="47.925" x="425.4675" y="376.8821">setTime()</text><!--MD5=[73d6337a0ea205004ae424e8621fafae]
class Util.roboProgressThread--><rect fill="#FEFECE" filter="url(#f27mgzz13xjqg)" height="139.5316" id="Util.roboProgressThread" style="stroke: #A80036; stroke-width: 1.5975;" width="156.555" x="210.3375" y="244.1845"/><ellipse cx="226.3125" cy="261.2245" fill="#ADD1B2" rx="11.715" ry="11.715" style="stroke: #A80036; stroke-width: 1.065;"/><path d="M228.4425,257.497 Q228.6588,256.9645 228.9084,256.6983 Q229.158,256.432 229.4409,256.432 Q229.9402,256.432 230.2563,256.7316 Q230.5725,257.0311 230.5725,257.73 L230.5725,259.3941 Q230.5725,260.093 230.273,260.3925 Q229.9734,260.692 229.5075,260.692 Q229.0915,260.692 228.8252,260.509 Q228.559,260.3259 228.4425,259.8434 Q228.3926,259.5105 228.2095,259.3275 Q227.8767,258.978 227.2777,258.7784 Q226.6786,258.562 226.0795,258.562 Q225.3307,258.562 224.6984,258.8616 Q224.0827,259.1611 223.6001,259.8267 Q223.1175,260.4923 223.1175,261.4076 L223.1175,262.3894 Q223.1175,263.4877 224.0161,264.2198 Q224.9147,264.952 226.5122,264.952 Q227.4607,264.952 228.1263,264.7357 Q228.5091,264.6192 228.9417,264.2365 Q229.2246,264.0202 229.3744,263.9536 Q229.5241,263.887 229.7072,263.887 Q230.0566,263.887 230.3062,264.1699 Q230.5725,264.4362 230.5725,264.8189 Q230.5725,265.185 230.2064,265.6177 Q229.6739,266.25 228.8252,266.5995 Q227.7103,267.082 226.3458,267.082 Q224.7483,267.082 223.467,266.4497 Q222.4352,265.9505 221.703,264.8688 Q220.9875,263.7872 220.9875,262.5059 L220.9875,261.341 Q220.9875,260.0098 221.6198,258.8449 Q222.2688,257.6801 223.3838,257.0644 Q224.5153,256.432 225.78,256.432 Q226.5455,256.432 227.2111,256.6983 Q227.8767,256.9645 228.4425,257.497 Z "/><text fill="#000000" font-family="sans-serif" font-size="12.78" lengthAdjust="spacingAndGlyphs" textLength="122.475" x="241.2225" y="266.4538">roboProgressThread</text><line style="stroke: #A80036; stroke-width: 1.5975;" x1="211.4025" x2="365.8275" y1="278.2645" y2="278.2645"/><rect fill="none" height="6.39" style="stroke: #C82930; stroke-width: 1.065;" width="6.39" x="218.8575" y="286.7845"/><text fill="#000000" font-family="sans-serif" font-size="11.715" lengthAdjust="spacingAndGlyphs" textLength="88.395" x="231.6375" y="294.6857">running : boolean</text><rect fill="none" height="6.39" style="stroke: #C82930; stroke-width: 1.065;" width="6.39" x="218.8575" y="301.5198"/><text fill="#000000" font-family="sans-serif" font-size="11.715" lengthAdjust="spacingAndGlyphs" textLength="66.03" x="231.6375" y="309.421">seconds : int</text><line style="stroke: #A80036; stroke-width: 1.5975;" x1="211.4025" x2="365.8275" y1="316.2551" y2="316.2551"/><ellipse cx="222.0525" cy="327.9701" fill="#84BE84" rx="3.195" ry="3.195" style="stroke: #038048; stroke-width: 1.065;"/><text fill="#000000" font-family="sans-serif" font-size="11.715" lengthAdjust="spacingAndGlyphs" textLength="58.575" x="231.6375" y="332.6763">isRunning()</text><ellipse cx="222.0525" cy="342.7054" fill="#84BE84" rx="3.195" ry="3.195" style="stroke: #038048; stroke-width: 1.065;"/><text fill="#000000" font-family="sans-serif" font-size="11.715" lengthAdjust="spacingAndGlyphs" textLength="115.02" x="231.6375" y="347.4115">roboProgressThread()</text><ellipse cx="222.0525" cy="357.4406" fill="#84BE84" rx="3.195" ry="3.195" style="stroke: #038048; stroke-width: 1.065;"/><text fill="#000000" font-family="sans-serif" font-size="11.715" lengthAdjust="spacingAndGlyphs" textLength="25.56" x="231.6375" y="362.1468">run()</text><ellipse cx="222.0525" cy="372.1759" fill="#84BE84" rx="3.195" ry="3.195" style="stroke: #038048; stroke-width: 1.065;"/><text fill="#000000" font-family="sans-serif" font-size="11.715" lengthAdjust="spacingAndGlyphs" textLength="47.925" x="231.6375" y="376.8821">setTime()</text><!--MD5=[a4583de010daaab3c0922f27a1f398c6]
class Util.roboTimeThread--><rect fill="#FEFECE" filter="url(#f27mgzz13xjqg)" height="139.5316" id="Util.roboTimeThread" style="stroke: #A80036; stroke-width: 1.5975;" width="132.06" x="40.47" y="244.1845"/><ellipse cx="56.445" cy="261.2245" fill="#ADD1B2" rx="11.715" ry="11.715" style="stroke: #A80036; stroke-width: 1.065;"/><path d="M58.575,257.497 Q58.7913,256.9645 59.0409,256.6983 Q59.2905,256.432 59.5734,256.432 Q60.0727,256.432 60.3888,256.7316 Q60.705,257.0311 60.705,257.73 L60.705,259.3941 Q60.705,260.093 60.4055,260.3925 Q60.1059,260.692 59.64,260.692 Q59.224,260.692 58.9577,260.509 Q58.6915,260.3259 58.575,259.8434 Q58.5251,259.5105 58.342,259.3275 Q58.0092,258.978 57.4102,258.7784 Q56.8111,258.562 56.212,258.562 Q55.4632,258.562 54.8309,258.8616 Q54.2152,259.1611 53.7326,259.8267 Q53.25,260.4923 53.25,261.4076 L53.25,262.3894 Q53.25,263.4877 54.1486,264.2198 Q55.0472,264.952 56.6447,264.952 Q57.5932,264.952 58.2588,264.7357 Q58.6416,264.6192 59.0742,264.2365 Q59.3571,264.0202 59.5069,263.9536 Q59.6566,263.887 59.8397,263.887 Q60.1891,263.887 60.4388,264.1699 Q60.705,264.4362 60.705,264.8189 Q60.705,265.185 60.3389,265.6177 Q59.8064,266.25 58.9577,266.5995 Q57.8428,267.082 56.4783,267.082 Q54.8808,267.082 53.5995,266.4497 Q52.5677,265.9505 51.8355,264.8688 Q51.12,263.7872 51.12,262.5059 L51.12,261.341 Q51.12,260.0098 51.7523,258.8449 Q52.4013,257.6801 53.5163,257.0644 Q54.6478,256.432 55.9125,256.432 Q56.678,256.432 57.3436,256.6983 Q58.0092,256.9645 58.575,257.497 Z "/><text fill="#000000" font-family="sans-serif" font-size="12.78" lengthAdjust="spacingAndGlyphs" textLength="97.98" x="71.355" y="266.4538">roboTimeThread</text><line style="stroke: #A80036; stroke-width: 1.5975;" x1="41.535" x2="171.465" y1="278.2645" y2="278.2645"/><rect fill="none" height="6.39" style="stroke: #C82930; stroke-width: 1.065;" width="6.39" x="48.99" y="286.7845"/><text fill="#000000" font-family="sans-serif" font-size="11.715" lengthAdjust="spacingAndGlyphs" textLength="88.395" x="61.77" y="294.6857">running : boolean</text><rect fill="none" height="6.39" style="stroke: #C82930; stroke-width: 1.065;" width="6.39" x="48.99" y="301.5198"/><text fill="#000000" font-family="sans-serif" font-size="11.715" lengthAdjust="spacingAndGlyphs" textLength="66.03" x="61.77" y="309.421">seconds : int</text><line style="stroke: #A80036; stroke-width: 1.5975;" x1="41.535" x2="171.465" y1="316.2551" y2="316.2551"/><ellipse cx="52.185" cy="327.9701" fill="#84BE84" rx="3.195" ry="3.195" style="stroke: #038048; stroke-width: 1.065;"/><text fill="#000000" font-family="sans-serif" font-size="11.715" lengthAdjust="spacingAndGlyphs" textLength="58.575" x="61.77" y="332.6763">isRunning()</text><ellipse cx="52.185" cy="342.7054" fill="#84BE84" rx="3.195" ry="3.195" style="stroke: #038048; stroke-width: 1.065;"/><text fill="#000000" font-family="sans-serif" font-size="11.715" lengthAdjust="spacingAndGlyphs" textLength="91.59" x="61.77" y="347.4115">roboTimeThread()</text><ellipse cx="52.185" cy="357.4406" fill="#84BE84" rx="3.195" ry="3.195" style="stroke: #038048; stroke-width: 1.065;"/><text fill="#000000" font-family="sans-serif" font-size="11.715" lengthAdjust="spacingAndGlyphs" textLength="25.56" x="61.77" y="362.1468">run()</text><ellipse cx="52.185" cy="372.1759" fill="#84BE84" rx="3.195" ry="3.195" style="stroke: #038048; stroke-width: 1.065;"/><text fill="#000000" font-family="sans-serif" font-size="11.715" lengthAdjust="spacingAndGlyphs" textLength="47.925" x="61.77" y="376.8821">setTime()</text><!--MD5=[8dac795f9edbf65a524ac462449c98fb]
class java.lang.Runnable--><rect fill="#FEFECE" filter="url(#f27mgzz13xjqg)" height="51.12" id="java.lang.Runnable" style="stroke: #A80036; stroke-width: 1.5975;" width="91.59" x="429.195" y="112.1245"/><ellipse cx="445.17" cy="129.1645" fill="#ADD1B2" rx="11.715" ry="11.715" style="stroke: #A80036; stroke-width: 1.065;"/><path d="M447.3,125.437 Q447.5163,124.9045 447.7659,124.6383 Q448.0155,124.372 448.2984,124.372 Q448.7977,124.372 449.1138,124.6716 Q449.43,124.9711 449.43,125.67 L449.43,127.3341 Q449.43,128.033 449.1305,128.3325 Q448.8309,128.632 448.365,128.632 Q447.949,128.632 447.6827,128.449 Q447.4165,128.2659 447.3,127.7834 Q447.2501,127.4505 447.067,127.2675 Q446.7342,126.918 446.1352,126.7184 Q445.5361,126.502 444.937,126.502 Q444.1882,126.502 443.5559,126.8016 Q442.9402,127.1011 442.4576,127.7667 Q441.975,128.4323 441.975,129.3476 L441.975,130.3294 Q441.975,131.4277 442.8736,132.1598 Q443.7722,132.892 445.3697,132.892 Q446.3182,132.892 446.9838,132.6757 Q447.3666,132.5592 447.7992,132.1765 Q448.0821,131.9602 448.2319,131.8936 Q448.3816,131.827 448.5647,131.827 Q448.9141,131.827 449.1638,132.1099 Q449.43,132.3762 449.43,132.7589 Q449.43,133.125 449.0639,133.5577 Q448.5314,134.19 447.6827,134.5395 Q446.5678,135.022 445.2033,135.022 Q443.6058,135.022 442.3245,134.3897 Q441.2927,133.8905 440.5605,132.8088 Q439.845,131.7272 439.845,130.4459 L439.845,129.281 Q439.845,127.9498 440.4773,126.7849 Q441.1263,125.6201 442.2413,125.0044 Q443.3728,124.372 444.6375,124.372 Q445.403,124.372 446.0686,124.6383 Q446.7342,124.9045 447.3,125.437 Z "/><text fill="#000000" font-family="sans-serif" font-size="12.78" lengthAdjust="spacingAndGlyphs" textLength="57.51" x="460.08" y="134.3938">Runnable</text><line style="stroke: #A80036; stroke-width: 1.5975;" x1="430.26" x2="519.72" y1="146.2045" y2="146.2045"/><line style="stroke: #A80036; stroke-width: 1.5975;" x1="430.26" x2="519.72" y1="154.7245" y2="154.7245"/><!--MD5=[a1764e55f4fd566e88728b5e78d65df6]
reverse link java.lang.Runnable to Util.MyThread--><path d="M542.2341,146.2109 C616.6425,155.503 730.8147,173.1512 766.8,197.3245 C784.3874,209.1386 798.9449,226.4853 810.4757,244.1643 " fill="none" id="java.lang.Runnable&lt;-Util.MyThread" style="stroke: #A80036; stroke-width: 1.065; stroke-dasharray: 7.0,7.0;"/><polygon fill="none" points="541.2671,153.6031,521.0129,143.6507,543.052,138.7996,541.2671,153.6031" style="stroke: #A80036; stroke-width: 1.065;"/><!--MD5=[fa24dff1806c6b9ca0feaa93f7b76a07]
reverse link java.lang.Runnable to Util.RoboRechargeThread--><path d="M535.4596,175.099 C545.4887,182.029 555.5189,189.5596 564.45,197.3245 C580.5475,211.3208 596.465,227.8538 610.7424,243.9715 " fill="none" id="java.lang.Runnable&lt;-Util.RoboRechargeThread" style="stroke: #A80036; stroke-width: 1.065; stroke-dasharray: 7.0,7.0;"/><polygon fill="none" points="531.3232,181.3016,517.6475,163.35,539.5333,168.855,531.3232,181.3016" style="stroke: #A80036; stroke-width: 1.065;"/><!--MD5=[fc03e95486bc8892f4045b5047d87298]
reverse link java.lang.Runnable to Util.roboBatteryThread--><path d="M474.99,184.7053 C474.99,202.8785 474.99,224.1529 474.99,244.0887 " fill="none" id="java.lang.Runnable&lt;-Util.roboBatteryThread" style="stroke: #A80036; stroke-width: 1.065; stroke-dasharray: 7.0,7.0;"/><polygon fill="none" points="467.535,184.6287,474.99,163.3287,482.445,184.6287,467.535,184.6287" style="stroke: #A80036; stroke-width: 1.065;"/><!--MD5=[0bb6d4f0ba5a21ba6b2f22de6e64da73]
reverse link java.lang.Runnable to Util.roboProgressThread--><path d="M413.7142,175.4026 C403.9247,182.2239 394.1821,189.6395 385.53,197.3245 C369.7723,211.3218 354.3415,227.9422 340.5902,244.1526 " fill="none" id="java.lang.Runnable&lt;-Util.roboProgressThread" style="stroke: #A80036; stroke-width: 1.065; stroke-dasharray: 7.0,7.0;"/><polygon fill="none" points="409.8578,169.0136,431.734,163.4714,418.0892,181.4464,409.8578,169.0136" style="stroke: #A80036; stroke-width: 1.065;"/><!--MD5=[ea8cee25dcd06152dd6d087a35129700]
reverse link java.lang.Runnable to Util.roboTimeThread--><path d="M407.6703,139.3268 C346.8449,142.7816 257.0942,155.4391 191.7,197.3245 C173.2297,209.1546 157.391,226.5055 144.5556,244.1845 " fill="none" id="java.lang.Runnable&lt;-Util.roboTimeThread" style="stroke: #A80036; stroke-width: 1.065; stroke-dasharray: 7.0,7.0;"/><polygon fill="none" points="407.4669,131.8728,429.0629,138.4215,408.0973,146.77,407.4669,131.8728" style="stroke: #A80036; stroke-width: 1.065;"/><!--MD5=[edcc81e2738b8bef2c89b0d7c9f45f64]
link Util.DeviceButtons to Util.SmartPhone--><!--MD5=[73c328050455b1733b4eae2860f76ada]
link Util.DeviceButtons to Util.UseSmartPhone--><text fill="#888888" font-family="sans-serif" font-size="10.65" lengthAdjust="spacingAndGlyphs" textLength="0" x="1362.135" y="731.2951"/><text fill="#888888" font-family="sans-serif" font-size="10.65" lengthAdjust="spacingAndGlyphs" textLength="0" x="1362.135" y="744.6908"/><text fill="#888888" font-family="sans-serif" font-size="10.65" lengthAdjust="spacingAndGlyphs" textLength="417.48" x="944.655" y="758.0866">PlantUML diagram generated by SketchIt! (https://bitbucket.org/pmesmeur/sketch.it)</text><text fill="#888888" font-family="sans-serif" font-size="10.65" lengthAdjust="spacingAndGlyphs" textLength="419.61" x="942.525" y="771.4823">For more information about this tool, please contact philippe.mesmeur@gmail.com</text><!--MD5=[e97286a5a6a294cfc619b3213cb974e5]
@startuml

title __UTIL's Class Diagram__\n

  namespace Util {
    class Util.DeviceButtons {
        ~ commandList : List<Command>
        + DeviceButtons()
        + addButtonCommand()
        + press()
        + pressUndo()
    }
  }
  

  namespace Util {
    class Util.MyThread {
        - running : boolean
        - seconds : int
        + MyThread()
        + isRunning()
        + run()
        + setTime()
    }
  }
  

  namespace Util {
    class Util.RoboRechargeThread {
        - running : boolean
        - seconds : int
        + RoboRechargeThread()
        + isRunning()
        + run()
        + setTime()
    }
  }
  

  namespace Util {
    class Util.SmartPhone {
        {static} + DEVICE_NR : int
        {static} + getCleaningRobot()
        {static} + getDishwasher()
        {static} + getMicroWave()
        {static} + getOven()
        {static} + getWashingMaschine()
    }
  }
  

  namespace Util {
    class Util.UseSmartPhone {
        {static} - cleaningRobot : CleaningRobot
        {static} - deviceButtons : DeviceButtons
        {static} - dishWasher : Dishwasher
        {static} - microWave : MicroWave
        {static} - oven : Oven
        {static} - washingMachine : WashingMachine
        {static} + getRobo()
        {static} + main()
        {static} - createUserInput()
        {static} - displayMainMenu()
        {static} - displayTitle()
        {static} - validateInput()
    }
  }
  

  namespace Util {
    class Util.roboBatteryThread {
        - running : boolean
        - seconds : int
        + isRunning()
        + roboBatteryThread()
        + run()
        + setTime()
    }
  }
  

  namespace Util {
    class Util.roboProgressThread {
        - running : boolean
        - seconds : int
        + isRunning()
        + roboProgressThread()
        + run()
        + setTime()
    }
  }
  

  namespace Util {
    class Util.roboTimeThread {
        - running : boolean
        - seconds : int
        + isRunning()
        + roboTimeThread()
        + run()
        + setTime()
    }
  }
  

  Util.MyThread .up.|> java.lang.Runnable
  Util.RoboRechargeThread .up.|> java.lang.Runnable
  Util.roboBatteryThread .up.|> java.lang.Runnable
  Util.roboProgressThread .up.|> java.lang.Runnable
  Util.roboTimeThread .up.|> java.lang.Runnable


right footer


PlantUML diagram generated by SketchIt! (https://bitbucket.org/pmesmeur/sketch.it)
For more information about this tool, please contact philippe.mesmeur@gmail.com
endfooter

@enduml

PlantUML version 1.2019.11(Sun Sep 22 12:02:15 CEST 2019)
(GPL source distribution)
Java Runtime: OpenJDK Runtime Environment
JVM: OpenJDK 64-Bit Server VM
Java Version: 11.0.4+10-b304.77
Operating System: Windows 10
Default Encoding: Cp1252
Language: de
Country: DE
--></g></svg>