<?xml version="1.0" encoding="UTF-8" standalone="no"?><svg xmlns="http://www.w3.org/2000/svg" xmlns:xlink="http://www.w3.org/1999/xlink" contentScriptType="application/ecmascript" contentStyleType="text/css" height="1279.5px" preserveAspectRatio="none" style="width:1132px;height:1279px;" version="1.1" viewBox="0 0 1132 1279" width="1132.5px" zoomAndPan="magnify"><defs><filter height="300%" id="f1l0iaws2slr31" width="300%" x="-1" y="-1"><feGaussianBlur result="blurOut" stdDeviation="3.0"/><feColorMatrix in="blurOut" result="blurOut2" type="matrix" values="0 0 0 0 0 0 0 0 0 0 0 0 0 0 0 0 0 0 .4 0"/><feOffset dx="6.0" dy="6.0" in="blurOut2" result="blurOut3"/><feBlend in="SourceGraphic" in2="blurOut3" mode="normal"/></filter></defs><g><text fill="#000000" font-family="sans-serif" font-size="27" lengthAdjust="spacingAndGlyphs" text-decoration="underline" textLength="259.5" x="445.5" y="28.0283">UTIL's Class Diagram</text><text fill="#000000" font-family="sans-serif" font-size="27" lengthAdjust="spacingAndGlyphs" textLength="0" x="579" y="61.9893"/><!--MD5=[a55135535b5c544b99c33b17428c3b14]
cluster Util--><polygon fill="#FFFFFF" filter="url(#f1l0iaws2slr31)" points="33,289.9219,76.5,289.9219,87,325.3359,1099.5,325.3359,1099.5,1261.9219,33,1261.9219,33,289.9219" style="stroke: #000000; stroke-width: 2.25;"/><line style="stroke: #000000; stroke-width: 2.25;" x1="33" x2="87" y1="325.3359" y2="325.3359"/><text fill="#000000" font-family="sans-serif" font-size="21" font-weight="bold" lengthAdjust="spacingAndGlyphs" textLength="34.5" x="39" y="314.7217">Util</text><!--MD5=[aa8f7b917213fcc1c2766e2d59b49067]
cluster java.lang--><polygon fill="#FFFFFF" filter="url(#f1l0iaws2slr31)" points="51,103.9219,154.5,103.9219,165,139.3359,228,139.3359,228,253.9219,51,253.9219,51,103.9219" style="stroke: #000000; stroke-width: 2.25;"/><line style="stroke: #000000; stroke-width: 2.25;" x1="51" x2="165" y1="139.3359" y2="139.3359"/><text fill="#000000" font-family="sans-serif" font-size="21" font-weight="bold" lengthAdjust="spacingAndGlyphs" textLength="94.5" x="57" y="128.7217">java.lang</text><!--MD5=[55ceab3a75b64053642b6f6993bde510]
class Util.DeviceButtons--><rect fill="#FEFECE" filter="url(#f1l0iaws2slr31)" height="175.7695" id="Util.DeviceButtons" style="stroke: #A80036; stroke-width: 2.25;" width="261" x="274.5" y="354.4219"/><ellipse cx="339.525" cy="378.4219" fill="#ADD1B2" rx="16.5" ry="16.5" style="stroke: #A80036; stroke-width: 1.5;"/><path d="M342.525,373.1719 Q342.8297,372.4219 343.1813,372.0469 Q343.5328,371.6719 343.9313,371.6719 Q344.6344,371.6719 345.0797,372.0938 Q345.525,372.5156 345.525,373.5 L345.525,375.8438 Q345.525,376.8281 345.1031,377.25 Q344.6813,377.6719 344.025,377.6719 Q343.4391,377.6719 343.0641,377.4141 Q342.6891,377.1563 342.525,376.4766 Q342.4547,376.0078 342.1969,375.75 Q341.7281,375.2578 340.8844,374.9766 Q340.0406,374.6719 339.1969,374.6719 Q338.1422,374.6719 337.2516,375.0938 Q336.3844,375.5156 335.7047,376.4531 Q335.025,377.3906 335.025,378.6797 L335.025,380.0625 Q335.025,381.6094 336.2906,382.6406 Q337.5563,383.6719 339.8063,383.6719 Q341.1422,383.6719 342.0797,383.3672 Q342.6188,383.2031 343.2281,382.6641 Q343.6266,382.3594 343.8375,382.2656 Q344.0484,382.1719 344.3063,382.1719 Q344.7984,382.1719 345.15,382.5703 Q345.525,382.9453 345.525,383.4844 Q345.525,384 345.0094,384.6094 Q344.2594,385.5 343.0641,385.9922 Q341.4938,386.6719 339.5719,386.6719 Q337.3219,386.6719 335.5172,385.7813 Q334.0641,385.0781 333.0328,383.5547 Q332.025,382.0313 332.025,380.2266 L332.025,378.5859 Q332.025,376.7109 332.9156,375.0703 Q333.8297,373.4297 335.4,372.5625 Q336.9938,371.6719 338.775,371.6719 Q339.8531,371.6719 340.7906,372.0469 Q341.7281,372.4219 342.525,373.1719 Z "/><text fill="#000000" font-family="sans-serif" font-size="18" lengthAdjust="spacingAndGlyphs" textLength="118.5" x="369.975" y="385.7871">DeviceButtons</text><line style="stroke: #A80036; stroke-width: 2.25;" x1="276" x2="534" y1="402.4219" y2="402.4219"/><polygon fill="none" points="291,412.9219,285,421.9219,297,421.9219" style="stroke: #1963A0; stroke-width: 1.5;"/><text fill="#000000" font-family="sans-serif" font-size="16.5" lengthAdjust="spacingAndGlyphs" textLength="222" x="304.5" y="425.5503">commandList : List&lt;Command&gt;</text><line style="stroke: #A80036; stroke-width: 2.25;" x1="276" x2="534" y1="435.1758" y2="435.1758"/><ellipse cx="291" cy="451.6758" fill="#84BE84" rx="4.5" ry="4.5" style="stroke: #038048; stroke-width: 1.5;"/><text fill="#000000" font-family="sans-serif" font-size="16.5" lengthAdjust="spacingAndGlyphs" textLength="117" x="304.5" y="458.3042">DeviceButtons()</text><ellipse cx="291" cy="472.4297" fill="#84BE84" rx="4.5" ry="4.5" style="stroke: #038048; stroke-width: 1.5;"/><text fill="#000000" font-family="sans-serif" font-size="16.5" lengthAdjust="spacingAndGlyphs" textLength="156" x="304.5" y="479.0581">addButtonCommand()</text><ellipse cx="291" cy="493.1836" fill="#84BE84" rx="4.5" ry="4.5" style="stroke: #038048; stroke-width: 1.5;"/><text fill="#000000" font-family="sans-serif" font-size="16.5" lengthAdjust="spacingAndGlyphs" textLength="54" x="304.5" y="499.812">press()</text><ellipse cx="291" cy="513.9375" fill="#84BE84" rx="4.5" ry="4.5" style="stroke: #038048; stroke-width: 1.5;"/><text fill="#000000" font-family="sans-serif" font-size="16.5" lengthAdjust="spacingAndGlyphs" textLength="91.5" x="304.5" y="520.5659">pressUndo()</text><!--MD5=[8d7b9165088683794b83354091141d4f]
class Util.MyThread--><rect fill="#FEFECE" filter="url(#f1l0iaws2slr31)" height="196.5234" id="Util.MyThread" style="stroke: #A80036; stroke-width: 2.25;" width="163.5" x="57.75" y="343.9219"/><ellipse cx="96.45" cy="367.9219" fill="#ADD1B2" rx="16.5" ry="16.5" style="stroke: #A80036; stroke-width: 1.5;"/><path d="M99.45,362.6719 Q99.7547,361.9219 100.1062,361.5469 Q100.4578,361.1719 100.8562,361.1719 Q101.5594,361.1719 102.0047,361.5938 Q102.45,362.0156 102.45,363 L102.45,365.3438 Q102.45,366.3281 102.0281,366.75 Q101.6062,367.1719 100.95,367.1719 Q100.3641,367.1719 99.9891,366.9141 Q99.6141,366.6563 99.45,365.9766 Q99.3797,365.5078 99.1219,365.25 Q98.6531,364.7578 97.8094,364.4766 Q96.9656,364.1719 96.1219,364.1719 Q95.0672,364.1719 94.1766,364.5938 Q93.3094,365.0156 92.6297,365.9531 Q91.95,366.8906 91.95,368.1797 L91.95,369.5625 Q91.95,371.1094 93.2156,372.1406 Q94.4812,373.1719 96.7312,373.1719 Q98.0672,373.1719 99.0047,372.8672 Q99.5437,372.7031 100.1531,372.1641 Q100.5516,371.8594 100.7625,371.7656 Q100.9734,371.6719 101.2312,371.6719 Q101.7234,371.6719 102.075,372.0703 Q102.45,372.4453 102.45,372.9844 Q102.45,373.5 101.9344,374.1094 Q101.1844,375 99.9891,375.4922 Q98.4187,376.1719 96.4969,376.1719 Q94.2469,376.1719 92.4422,375.2813 Q90.9891,374.5781 89.9578,373.0547 Q88.95,371.5313 88.95,369.7266 L88.95,368.0859 Q88.95,366.2109 89.8406,364.5703 Q90.7547,362.9297 92.325,362.0625 Q93.9187,361.1719 95.7,361.1719 Q96.7781,361.1719 97.7156,361.5469 Q98.6531,361.9219 99.45,362.6719 Z "/><text fill="#000000" font-family="sans-serif" font-size="18" lengthAdjust="spacingAndGlyphs" textLength="79.5" x="121.05" y="375.2871">MyThread</text><line style="stroke: #A80036; stroke-width: 2.25;" x1="59.25" x2="219.75" y1="391.9219" y2="391.9219"/><ellipse cx="74.25" cy="408.4219" fill="none" rx="4.5" ry="4.5" style="stroke: #038048; stroke-width: 1.5;"/><text fill="#000000" font-family="sans-serif" font-size="16.5" lengthAdjust="spacingAndGlyphs" textLength="124.5" x="87.75" y="415.0503">running : boolean</text><ellipse cx="74.25" cy="429.1758" fill="none" rx="4.5" ry="4.5" style="stroke: #038048; stroke-width: 1.5;"/><text fill="#000000" font-family="sans-serif" font-size="16.5" lengthAdjust="spacingAndGlyphs" textLength="93" x="87.75" y="435.8042">seconds : int</text><line style="stroke: #A80036; stroke-width: 2.25;" x1="59.25" x2="219.75" y1="445.4297" y2="445.4297"/><ellipse cx="74.25" cy="461.9297" fill="#84BE84" rx="4.5" ry="4.5" style="stroke: #038048; stroke-width: 1.5;"/><text fill="#000000" font-family="sans-serif" font-size="16.5" lengthAdjust="spacingAndGlyphs" textLength="84" x="87.75" y="468.5581">MyThread()</text><ellipse cx="74.25" cy="482.6836" fill="#84BE84" rx="4.5" ry="4.5" style="stroke: #038048; stroke-width: 1.5;"/><text fill="#000000" font-family="sans-serif" font-size="16.5" lengthAdjust="spacingAndGlyphs" textLength="82.5" x="87.75" y="489.312">isRunning()</text><ellipse cx="74.25" cy="503.4375" fill="#84BE84" rx="4.5" ry="4.5" style="stroke: #038048; stroke-width: 1.5;"/><text fill="#000000" font-family="sans-serif" font-size="16.5" lengthAdjust="spacingAndGlyphs" textLength="36" x="87.75" y="510.0659">run()</text><ellipse cx="74.25" cy="524.1914" fill="#84BE84" rx="4.5" ry="4.5" style="stroke: #038048; stroke-width: 1.5;"/><text fill="#000000" font-family="sans-serif" font-size="16.5" lengthAdjust="spacingAndGlyphs" textLength="67.5" x="87.75" y="530.8198">setTime()</text><!--MD5=[746c9fcb0117ea6de641ef3f1d2e0459]
class Util.RoboBatteryThread--><rect fill="#FEFECE" filter="url(#f1l0iaws2slr31)" height="134.2617" id="Util.RoboBatteryThread" style="stroke: #A80036; stroke-width: 2.25;" width="207" x="588" y="374.6719"/><ellipse cx="610.5" cy="398.6719" fill="#ADD1B2" rx="16.5" ry="16.5" style="stroke: #A80036; stroke-width: 1.5;"/><path d="M613.5,393.4219 Q613.8047,392.6719 614.1563,392.2969 Q614.5078,391.9219 614.9063,391.9219 Q615.6094,391.9219 616.0547,392.3438 Q616.5,392.7656 616.5,393.75 L616.5,396.0938 Q616.5,397.0781 616.0781,397.5 Q615.6563,397.9219 615,397.9219 Q614.4141,397.9219 614.0391,397.6641 Q613.6641,397.4063 613.5,396.7266 Q613.4297,396.2578 613.1719,396 Q612.7031,395.5078 611.8594,395.2266 Q611.0156,394.9219 610.1719,394.9219 Q609.1172,394.9219 608.2266,395.3438 Q607.3594,395.7656 606.6797,396.7031 Q606,397.6406 606,398.9297 L606,400.3125 Q606,401.8594 607.2656,402.8906 Q608.5313,403.9219 610.7813,403.9219 Q612.1172,403.9219 613.0547,403.6172 Q613.5938,403.4531 614.2031,402.9141 Q614.6016,402.6094 614.8125,402.5156 Q615.0234,402.4219 615.2813,402.4219 Q615.7734,402.4219 616.125,402.8203 Q616.5,403.1953 616.5,403.7344 Q616.5,404.25 615.9844,404.8594 Q615.2344,405.75 614.0391,406.2422 Q612.4688,406.9219 610.5469,406.9219 Q608.2969,406.9219 606.4922,406.0313 Q605.0391,405.3281 604.0078,403.8047 Q603,402.2813 603,400.4766 L603,398.8359 Q603,396.9609 603.8906,395.3203 Q604.8047,393.6797 606.375,392.8125 Q607.9688,391.9219 609.75,391.9219 Q610.8281,391.9219 611.7656,392.2969 Q612.7031,392.6719 613.5,393.4219 Z "/><text fill="#000000" font-family="sans-serif" font-size="18" lengthAdjust="spacingAndGlyphs" textLength="159" x="631.5" y="406.0371">RoboBatteryThread</text><line style="stroke: #A80036; stroke-width: 2.25;" x1="589.5" x2="793.5" y1="422.6719" y2="422.6719"/><line style="stroke: #A80036; stroke-width: 2.25;" x1="589.5" x2="793.5" y1="434.6719" y2="434.6719"/><ellipse cx="604.5" cy="451.1719" fill="#84BE84" rx="4.5" ry="4.5" style="stroke: #038048; stroke-width: 1.5;"/><text fill="#000000" font-family="sans-serif" font-size="16.5" lengthAdjust="spacingAndGlyphs" textLength="82.5" x="618" y="457.8003">isRunning()</text><ellipse cx="604.5" cy="471.9258" fill="#84BE84" rx="4.5" ry="4.5" style="stroke: #038048; stroke-width: 1.5;"/><text fill="#000000" font-family="sans-serif" font-size="16.5" lengthAdjust="spacingAndGlyphs" textLength="36" x="618" y="478.5542">run()</text><ellipse cx="604.5" cy="492.6797" fill="#84BE84" rx="4.5" ry="4.5" style="stroke: #038048; stroke-width: 1.5;"/><text fill="#000000" font-family="sans-serif" font-size="16.5" lengthAdjust="spacingAndGlyphs" textLength="67.5" x="618" y="499.3081">setTime()</text><!--MD5=[11515ce3a5e09d3d3b979fa2b282363f]
class Util.RoboProgressThread--><rect fill="#FEFECE" filter="url(#f1l0iaws2slr31)" height="134.2617" id="Util.RoboProgressThread" style="stroke: #A80036; stroke-width: 2.25;" width="228" x="847.5" y="374.6719"/><ellipse cx="870" cy="398.6719" fill="#ADD1B2" rx="16.5" ry="16.5" style="stroke: #A80036; stroke-width: 1.5;"/><path d="M873,393.4219 Q873.3047,392.6719 873.6563,392.2969 Q874.0078,391.9219 874.4063,391.9219 Q875.1094,391.9219 875.5547,392.3438 Q876,392.7656 876,393.75 L876,396.0938 Q876,397.0781 875.5781,397.5 Q875.1563,397.9219 874.5,397.9219 Q873.9141,397.9219 873.5391,397.6641 Q873.1641,397.4063 873,396.7266 Q872.9297,396.2578 872.6719,396 Q872.2031,395.5078 871.3594,395.2266 Q870.5156,394.9219 869.6719,394.9219 Q868.6172,394.9219 867.7266,395.3438 Q866.8594,395.7656 866.1797,396.7031 Q865.5,397.6406 865.5,398.9297 L865.5,400.3125 Q865.5,401.8594 866.7656,402.8906 Q868.0313,403.9219 870.2813,403.9219 Q871.6172,403.9219 872.5547,403.6172 Q873.0938,403.4531 873.7031,402.9141 Q874.1016,402.6094 874.3125,402.5156 Q874.5234,402.4219 874.7813,402.4219 Q875.2734,402.4219 875.625,402.8203 Q876,403.1953 876,403.7344 Q876,404.25 875.4844,404.8594 Q874.7344,405.75 873.5391,406.2422 Q871.9688,406.9219 870.0469,406.9219 Q867.7969,406.9219 865.9922,406.0313 Q864.5391,405.3281 863.5078,403.8047 Q862.5,402.2813 862.5,400.4766 L862.5,398.8359 Q862.5,396.9609 863.3906,395.3203 Q864.3047,393.6797 865.875,392.8125 Q867.4688,391.9219 869.25,391.9219 Q870.3281,391.9219 871.2656,392.2969 Q872.2031,392.6719 873,393.4219 Z "/><text fill="#000000" font-family="sans-serif" font-size="18" lengthAdjust="spacingAndGlyphs" textLength="180" x="891" y="406.0371">RoboProgressThread</text><line style="stroke: #A80036; stroke-width: 2.25;" x1="849" x2="1074" y1="422.6719" y2="422.6719"/><line style="stroke: #A80036; stroke-width: 2.25;" x1="849" x2="1074" y1="434.6719" y2="434.6719"/><ellipse cx="864" cy="451.1719" fill="#84BE84" rx="4.5" ry="4.5" style="stroke: #038048; stroke-width: 1.5;"/><text fill="#000000" font-family="sans-serif" font-size="16.5" lengthAdjust="spacingAndGlyphs" textLength="82.5" x="877.5" y="457.8003">isRunning()</text><ellipse cx="864" cy="471.9258" fill="#84BE84" rx="4.5" ry="4.5" style="stroke: #038048; stroke-width: 1.5;"/><text fill="#000000" font-family="sans-serif" font-size="16.5" lengthAdjust="spacingAndGlyphs" textLength="36" x="877.5" y="478.5542">run()</text><ellipse cx="864" cy="492.6797" fill="#84BE84" rx="4.5" ry="4.5" style="stroke: #038048; stroke-width: 1.5;"/><text fill="#000000" font-family="sans-serif" font-size="16.5" lengthAdjust="spacingAndGlyphs" textLength="67.5" x="877.5" y="499.3081">setTime()</text><!--MD5=[a01ab0e26b41bd4d5af6c5b69dd24f75]
class Util.RoboRechargeThread--><rect fill="#FEFECE" filter="url(#f1l0iaws2slr31)" height="134.2617" id="Util.RoboRechargeThread" style="stroke: #A80036; stroke-width: 2.25;" width="232.5" x="288.75" y="661.1719"/><ellipse cx="311.25" cy="685.1719" fill="#ADD1B2" rx="16.5" ry="16.5" style="stroke: #A80036; stroke-width: 1.5;"/><path d="M314.25,679.9219 Q314.5547,679.1719 314.9063,678.7969 Q315.2578,678.4219 315.6563,678.4219 Q316.3594,678.4219 316.8047,678.8438 Q317.25,679.2656 317.25,680.25 L317.25,682.5938 Q317.25,683.5781 316.8281,684 Q316.4063,684.4219 315.75,684.4219 Q315.1641,684.4219 314.7891,684.1641 Q314.4141,683.9063 314.25,683.2266 Q314.1797,682.7578 313.9219,682.5 Q313.4531,682.0078 312.6094,681.7266 Q311.7656,681.4219 310.9219,681.4219 Q309.8672,681.4219 308.9766,681.8438 Q308.1094,682.2656 307.4297,683.2031 Q306.75,684.1406 306.75,685.4297 L306.75,686.8125 Q306.75,688.3594 308.0156,689.3906 Q309.2813,690.4219 311.5313,690.4219 Q312.8672,690.4219 313.8047,690.1172 Q314.3438,689.9531 314.9531,689.4141 Q315.3516,689.1094 315.5625,689.0156 Q315.7734,688.9219 316.0313,688.9219 Q316.5234,688.9219 316.875,689.3203 Q317.25,689.6953 317.25,690.2344 Q317.25,690.75 316.7344,691.3594 Q315.9844,692.25 314.7891,692.7422 Q313.2188,693.4219 311.2969,693.4219 Q309.0469,693.4219 307.2422,692.5313 Q305.7891,691.8281 304.7578,690.3047 Q303.75,688.7813 303.75,686.9766 L303.75,685.3359 Q303.75,683.4609 304.6406,681.8203 Q305.5547,680.1797 307.125,679.3125 Q308.7188,678.4219 310.5,678.4219 Q311.5781,678.4219 312.5156,678.7969 Q313.4531,679.1719 314.25,679.9219 Z "/><text fill="#000000" font-family="sans-serif" font-size="18" lengthAdjust="spacingAndGlyphs" textLength="184.5" x="332.25" y="692.5371">RoboRechargeThread</text><line style="stroke: #A80036; stroke-width: 2.25;" x1="290.25" x2="519.75" y1="709.1719" y2="709.1719"/><line style="stroke: #A80036; stroke-width: 2.25;" x1="290.25" x2="519.75" y1="721.1719" y2="721.1719"/><ellipse cx="305.25" cy="737.6719" fill="#84BE84" rx="4.5" ry="4.5" style="stroke: #038048; stroke-width: 1.5;"/><text fill="#000000" font-family="sans-serif" font-size="16.5" lengthAdjust="spacingAndGlyphs" textLength="82.5" x="318.75" y="744.3003">isRunning()</text><ellipse cx="305.25" cy="758.4258" fill="#84BE84" rx="4.5" ry="4.5" style="stroke: #038048; stroke-width: 1.5;"/><text fill="#000000" font-family="sans-serif" font-size="16.5" lengthAdjust="spacingAndGlyphs" textLength="36" x="318.75" y="765.0542">run()</text><ellipse cx="305.25" cy="779.1797" fill="#84BE84" rx="4.5" ry="4.5" style="stroke: #038048; stroke-width: 1.5;"/><text fill="#000000" font-family="sans-serif" font-size="16.5" lengthAdjust="spacingAndGlyphs" textLength="67.5" x="318.75" y="785.8081">setTime()</text><!--MD5=[26bbee63e3bc80b6da455d7a93c4a24d]
class Util.RoboTimeThread--><rect fill="#FEFECE" filter="url(#f1l0iaws2slr31)" height="134.2617" id="Util.RoboTimeThread" style="stroke: #A80036; stroke-width: 2.25;" width="193.5" x="573.75" y="661.1719"/><ellipse cx="596.25" cy="685.1719" fill="#ADD1B2" rx="16.5" ry="16.5" style="stroke: #A80036; stroke-width: 1.5;"/><path d="M599.25,679.9219 Q599.5547,679.1719 599.9063,678.7969 Q600.2578,678.4219 600.6563,678.4219 Q601.3594,678.4219 601.8047,678.8438 Q602.25,679.2656 602.25,680.25 L602.25,682.5938 Q602.25,683.5781 601.8281,684 Q601.4063,684.4219 600.75,684.4219 Q600.1641,684.4219 599.7891,684.1641 Q599.4141,683.9063 599.25,683.2266 Q599.1797,682.7578 598.9219,682.5 Q598.4531,682.0078 597.6094,681.7266 Q596.7656,681.4219 595.9219,681.4219 Q594.8672,681.4219 593.9766,681.8438 Q593.1094,682.2656 592.4297,683.2031 Q591.75,684.1406 591.75,685.4297 L591.75,686.8125 Q591.75,688.3594 593.0156,689.3906 Q594.2813,690.4219 596.5313,690.4219 Q597.8672,690.4219 598.8047,690.1172 Q599.3438,689.9531 599.9531,689.4141 Q600.3516,689.1094 600.5625,689.0156 Q600.7734,688.9219 601.0313,688.9219 Q601.5234,688.9219 601.875,689.3203 Q602.25,689.6953 602.25,690.2344 Q602.25,690.75 601.7344,691.3594 Q600.9844,692.25 599.7891,692.7422 Q598.2188,693.4219 596.2969,693.4219 Q594.0469,693.4219 592.2422,692.5313 Q590.7891,691.8281 589.7578,690.3047 Q588.75,688.7813 588.75,686.9766 L588.75,685.3359 Q588.75,683.4609 589.6406,681.8203 Q590.5547,680.1797 592.125,679.3125 Q593.7188,678.4219 595.5,678.4219 Q596.5781,678.4219 597.5156,678.7969 Q598.4531,679.1719 599.25,679.9219 Z "/><text fill="#000000" font-family="sans-serif" font-size="18" lengthAdjust="spacingAndGlyphs" textLength="145.5" x="617.25" y="692.5371">RoboTimeThread</text><line style="stroke: #A80036; stroke-width: 2.25;" x1="575.25" x2="765.75" y1="709.1719" y2="709.1719"/><line style="stroke: #A80036; stroke-width: 2.25;" x1="575.25" x2="765.75" y1="721.1719" y2="721.1719"/><ellipse cx="590.25" cy="737.6719" fill="#84BE84" rx="4.5" ry="4.5" style="stroke: #038048; stroke-width: 1.5;"/><text fill="#000000" font-family="sans-serif" font-size="16.5" lengthAdjust="spacingAndGlyphs" textLength="82.5" x="603.75" y="744.3003">isRunning()</text><ellipse cx="590.25" cy="758.4258" fill="#84BE84" rx="4.5" ry="4.5" style="stroke: #038048; stroke-width: 1.5;"/><text fill="#000000" font-family="sans-serif" font-size="16.5" lengthAdjust="spacingAndGlyphs" textLength="36" x="603.75" y="765.0542">run()</text><ellipse cx="590.25" cy="779.1797" fill="#84BE84" rx="4.5" ry="4.5" style="stroke: #038048; stroke-width: 1.5;"/><text fill="#000000" font-family="sans-serif" font-size="16.5" lengthAdjust="spacingAndGlyphs" textLength="67.5" x="603.75" y="785.8081">setTime()</text><!--MD5=[63fab902b45703f145104fe04a7457f1]
class Util.SmartPhone--><rect fill="#FEFECE" filter="url(#f1l0iaws2slr31)" height="196.5234" id="Util.SmartPhone" style="stroke: #A80036; stroke-width: 2.25;" width="205.5" x="819.75" y="630.4219"/><ellipse cx="866.55" cy="654.4219" fill="#ADD1B2" rx="16.5" ry="16.5" style="stroke: #A80036; stroke-width: 1.5;"/><path d="M869.55,649.1719 Q869.8547,648.4219 870.2063,648.0469 Q870.5578,647.6719 870.9563,647.6719 Q871.6594,647.6719 872.1047,648.0938 Q872.55,648.5156 872.55,649.5 L872.55,651.8438 Q872.55,652.8281 872.1281,653.25 Q871.7063,653.6719 871.05,653.6719 Q870.4641,653.6719 870.0891,653.4141 Q869.7141,653.1563 869.55,652.4766 Q869.4797,652.0078 869.2219,651.75 Q868.7531,651.2578 867.9094,650.9766 Q867.0656,650.6719 866.2219,650.6719 Q865.1672,650.6719 864.2766,651.0938 Q863.4094,651.5156 862.7297,652.4531 Q862.05,653.3906 862.05,654.6797 L862.05,656.0625 Q862.05,657.6094 863.3156,658.6406 Q864.5813,659.6719 866.8313,659.6719 Q868.1672,659.6719 869.1047,659.3672 Q869.6438,659.2031 870.2531,658.6641 Q870.6516,658.3594 870.8625,658.2656 Q871.0734,658.1719 871.3313,658.1719 Q871.8234,658.1719 872.175,658.5703 Q872.55,658.9453 872.55,659.4844 Q872.55,660 872.0344,660.6094 Q871.2844,661.5 870.0891,661.9922 Q868.5188,662.6719 866.5969,662.6719 Q864.3469,662.6719 862.5422,661.7813 Q861.0891,661.0781 860.0578,659.5547 Q859.05,658.0313 859.05,656.2266 L859.05,654.5859 Q859.05,652.7109 859.9406,651.0703 Q860.8547,649.4297 862.425,648.5625 Q864.0188,647.6719 865.8,647.6719 Q866.8781,647.6719 867.8156,648.0469 Q868.7531,648.4219 869.55,649.1719 Z "/><text fill="#000000" font-family="sans-serif" font-size="18" lengthAdjust="spacingAndGlyphs" textLength="103.5" x="892.95" y="661.7871">SmartPhone</text><line style="stroke: #A80036; stroke-width: 2.25;" x1="821.25" x2="1023.75" y1="678.4219" y2="678.4219"/><ellipse cx="836.25" cy="694.9219" fill="none" rx="4.5" ry="4.5" style="stroke: #038048; stroke-width: 1.5;"/><text fill="#000000" font-family="sans-serif" font-size="16.5" lengthAdjust="spacingAndGlyphs" text-decoration="underline" textLength="114" x="849.75" y="701.5503">DEVICE_NR : int</text><line style="stroke: #A80036; stroke-width: 2.25;" x1="821.25" x2="1023.75" y1="711.1758" y2="711.1758"/><ellipse cx="836.25" cy="727.6758" fill="#84BE84" rx="4.5" ry="4.5" style="stroke: #038048; stroke-width: 1.5;"/><text fill="#000000" font-family="sans-serif" font-size="16.5" lengthAdjust="spacingAndGlyphs" text-decoration="underline" textLength="138" x="849.75" y="734.3042">getCleaningRobot()</text><ellipse cx="836.25" cy="748.4297" fill="#84BE84" rx="4.5" ry="4.5" style="stroke: #038048; stroke-width: 1.5;"/><text fill="#000000" font-family="sans-serif" font-size="16.5" lengthAdjust="spacingAndGlyphs" text-decoration="underline" textLength="123" x="849.75" y="755.0581">getDishwasher()</text><ellipse cx="836.25" cy="769.1836" fill="#84BE84" rx="4.5" ry="4.5" style="stroke: #038048; stroke-width: 1.5;"/><text fill="#000000" font-family="sans-serif" font-size="16.5" lengthAdjust="spacingAndGlyphs" text-decoration="underline" textLength="115.5" x="849.75" y="775.812">getMicroWave()</text><ellipse cx="836.25" cy="789.9375" fill="#84BE84" rx="4.5" ry="4.5" style="stroke: #038048; stroke-width: 1.5;"/><text fill="#000000" font-family="sans-serif" font-size="16.5" lengthAdjust="spacingAndGlyphs" text-decoration="underline" textLength="73.5" x="849.75" y="796.5659">getOven()</text><ellipse cx="836.25" cy="810.6914" fill="#84BE84" rx="4.5" ry="4.5" style="stroke: #038048; stroke-width: 1.5;"/><text fill="#000000" font-family="sans-serif" font-size="16.5" lengthAdjust="spacingAndGlyphs" text-decoration="underline" textLength="166.5" x="849.75" y="817.3198">getWashingMaschine()</text><!--MD5=[5f6bea60977109878c1a5479b7985aea]
class Util.UseSmartPhone--><rect fill="#FEFECE" filter="url(#f1l0iaws2slr31)" height="321.0469" id="Util.UseSmartPhone" style="stroke: #A80036; stroke-width: 2.25;" width="298.5" x="255.75" y="916.9219"/><ellipse cx="329.625" cy="940.9219" fill="#ADD1B2" rx="16.5" ry="16.5" style="stroke: #A80036; stroke-width: 1.5;"/><path d="M332.625,935.6719 Q332.9297,934.9219 333.2813,934.5469 Q333.6328,934.1719 334.0313,934.1719 Q334.7344,934.1719 335.1797,934.5938 Q335.625,935.0156 335.625,936 L335.625,938.3438 Q335.625,939.3281 335.2031,939.75 Q334.7813,940.1719 334.125,940.1719 Q333.5391,940.1719 333.1641,939.9141 Q332.7891,939.6563 332.625,938.9766 Q332.5547,938.5078 332.2969,938.25 Q331.8281,937.7578 330.9844,937.4766 Q330.1406,937.1719 329.2969,937.1719 Q328.2422,937.1719 327.3516,937.5938 Q326.4844,938.0156 325.8047,938.9531 Q325.125,939.8906 325.125,941.1797 L325.125,942.5625 Q325.125,944.1094 326.3906,945.1406 Q327.6563,946.1719 329.9063,946.1719 Q331.2422,946.1719 332.1797,945.8672 Q332.7188,945.7031 333.3281,945.1641 Q333.7266,944.8594 333.9375,944.7656 Q334.1484,944.6719 334.4063,944.6719 Q334.8984,944.6719 335.25,945.0703 Q335.625,945.4453 335.625,945.9844 Q335.625,946.5 335.1094,947.1094 Q334.3594,948 333.1641,948.4922 Q331.5938,949.1719 329.6719,949.1719 Q327.4219,949.1719 325.6172,948.2813 Q324.1641,947.5781 323.1328,946.0547 Q322.125,944.5313 322.125,942.7266 L322.125,941.0859 Q322.125,939.2109 323.0156,937.5703 Q323.9297,935.9297 325.5,935.0625 Q327.0938,934.1719 328.875,934.1719 Q329.9531,934.1719 330.8906,934.5469 Q331.8281,934.9219 332.625,935.6719 Z "/><text fill="#000000" font-family="sans-serif" font-size="18" lengthAdjust="spacingAndGlyphs" textLength="138" x="360.375" y="948.2871">UseSmartPhone</text><line style="stroke: #A80036; stroke-width: 2.25;" x1="257.25" x2="552.75" y1="964.9219" y2="964.9219"/><rect fill="none" height="9" style="stroke: #C82930; stroke-width: 1.5;" width="9" x="267.75" y="976.9219"/><text fill="#000000" font-family="sans-serif" font-size="16.5" lengthAdjust="spacingAndGlyphs" text-decoration="underline" textLength="219" x="285.75" y="988.0503">cleaningRobot : CleaningRobot</text><rect fill="none" height="9" style="stroke: #C82930; stroke-width: 1.5;" width="9" x="267.75" y="997.6758"/><text fill="#000000" font-family="sans-serif" font-size="16.5" lengthAdjust="spacingAndGlyphs" text-decoration="underline" textLength="222" x="285.75" y="1008.8042">deviceButtons : DeviceButtons</text><rect fill="none" height="9" style="stroke: #C82930; stroke-width: 1.5;" width="9" x="267.75" y="1018.4297"/><text fill="#000000" font-family="sans-serif" font-size="16.5" lengthAdjust="spacingAndGlyphs" text-decoration="underline" textLength="189" x="285.75" y="1029.5581">dishWasher : Dishwasher</text><rect fill="none" height="9" style="stroke: #C82930; stroke-width: 1.5;" width="9" x="267.75" y="1039.1836"/><text fill="#000000" font-family="sans-serif" font-size="16.5" lengthAdjust="spacingAndGlyphs" text-decoration="underline" textLength="175.5" x="285.75" y="1050.312">microWave : MicroWave</text><rect fill="none" height="9" style="stroke: #C82930; stroke-width: 1.5;" width="9" x="267.75" y="1059.9375"/><text fill="#000000" font-family="sans-serif" font-size="16.5" lengthAdjust="spacingAndGlyphs" text-decoration="underline" textLength="88.5" x="285.75" y="1071.0659">oven : Oven</text><rect fill="none" height="9" style="stroke: #C82930; stroke-width: 1.5;" width="9" x="267.75" y="1080.6914"/><text fill="#000000" font-family="sans-serif" font-size="16.5" lengthAdjust="spacingAndGlyphs" text-decoration="underline" textLength="259.5" x="285.75" y="1091.8198">washingMachine : WashingMachine</text><line style="stroke: #A80036; stroke-width: 2.25;" x1="257.25" x2="552.75" y1="1101.4453" y2="1101.4453"/><ellipse cx="272.25" cy="1117.9453" fill="#84BE84" rx="4.5" ry="4.5" style="stroke: #038048; stroke-width: 1.5;"/><text fill="#000000" font-family="sans-serif" font-size="16.5" lengthAdjust="spacingAndGlyphs" text-decoration="underline" textLength="72" x="285.75" y="1124.5737">getRobo()</text><ellipse cx="272.25" cy="1138.6992" fill="#84BE84" rx="4.5" ry="4.5" style="stroke: #038048; stroke-width: 1.5;"/><text fill="#000000" font-family="sans-serif" font-size="16.5" lengthAdjust="spacingAndGlyphs" text-decoration="underline" textLength="45" x="285.75" y="1145.3276">main()</text><rect fill="#F24D5C" height="9" style="stroke: #C82930; stroke-width: 1.5;" width="9" x="267.75" y="1154.9531"/><text fill="#000000" font-family="sans-serif" font-size="16.5" lengthAdjust="spacingAndGlyphs" text-decoration="underline" textLength="127.5" x="285.75" y="1166.0815">createUserInput()</text><rect fill="#F24D5C" height="9" style="stroke: #C82930; stroke-width: 1.5;" width="9" x="267.75" y="1175.707"/><text fill="#000000" font-family="sans-serif" font-size="16.5" lengthAdjust="spacingAndGlyphs" text-decoration="underline" textLength="135" x="285.75" y="1186.8354">displayMainMenu()</text><rect fill="#F24D5C" height="9" style="stroke: #C82930; stroke-width: 1.5;" width="9" x="267.75" y="1196.4609"/><text fill="#000000" font-family="sans-serif" font-size="16.5" lengthAdjust="spacingAndGlyphs" text-decoration="underline" textLength="91.5" x="285.75" y="1207.5894">displayTitle()</text><rect fill="#F24D5C" height="9" style="stroke: #C82930; stroke-width: 1.5;" width="9" x="267.75" y="1217.2148"/><text fill="#000000" font-family="sans-serif" font-size="16.5" lengthAdjust="spacingAndGlyphs" text-decoration="underline" textLength="102" x="285.75" y="1228.3433">validateInput()</text><!--MD5=[8dac795f9edbf65a524ac462449c98fb]
class java.lang.Runnable--><rect fill="#FEFECE" filter="url(#f1l0iaws2slr31)" height="72" id="java.lang.Runnable" style="stroke: #A80036; stroke-width: 2.25;" width="129" x="75" y="157.9219"/><ellipse cx="97.5" cy="181.9219" fill="#ADD1B2" rx="16.5" ry="16.5" style="stroke: #A80036; stroke-width: 1.5;"/><path d="M100.5,176.6719 Q100.8047,175.9219 101.1563,175.5469 Q101.5078,175.1719 101.9063,175.1719 Q102.6094,175.1719 103.0547,175.5938 Q103.5,176.0156 103.5,177 L103.5,179.3438 Q103.5,180.3281 103.0781,180.75 Q102.6563,181.1719 102,181.1719 Q101.4141,181.1719 101.0391,180.9141 Q100.6641,180.6563 100.5,179.9766 Q100.4297,179.5078 100.1719,179.25 Q99.7031,178.7578 98.8594,178.4766 Q98.0156,178.1719 97.1719,178.1719 Q96.1172,178.1719 95.2266,178.5938 Q94.3594,179.0156 93.6797,179.9531 Q93,180.8906 93,182.1797 L93,183.5625 Q93,185.1094 94.2656,186.1406 Q95.5313,187.1719 97.7813,187.1719 Q99.1172,187.1719 100.0547,186.8672 Q100.5938,186.7031 101.2031,186.1641 Q101.6016,185.8594 101.8125,185.7656 Q102.0234,185.6719 102.2813,185.6719 Q102.7734,185.6719 103.125,186.0703 Q103.5,186.4453 103.5,186.9844 Q103.5,187.5 102.9844,188.1094 Q102.2344,189 101.0391,189.4922 Q99.4688,190.1719 97.5469,190.1719 Q95.2969,190.1719 93.4922,189.2813 Q92.0391,188.5781 91.0078,187.0547 Q90,185.5313 90,183.7266 L90,182.0859 Q90,180.2109 90.8906,178.5703 Q91.8047,176.9297 93.375,176.0625 Q94.9688,175.1719 96.75,175.1719 Q97.8281,175.1719 98.7656,175.5469 Q99.7031,175.9219 100.5,176.6719 Z "/><text fill="#000000" font-family="sans-serif" font-size="18" lengthAdjust="spacingAndGlyphs" textLength="81" x="118.5" y="189.2871">Runnable</text><line style="stroke: #A80036; stroke-width: 2.25;" x1="76.5" x2="202.5" y1="205.9219" y2="205.9219"/><line style="stroke: #A80036; stroke-width: 2.25;" x1="76.5" x2="202.5" y1="217.9219" y2="217.9219"/><!--MD5=[a1764e55f4fd566e88728b5e78d65df6]
reverse link java.lang.Runnable to Util.MyThread--><path d="M139.5,260.1484 C139.5,285.7444 139.5,315.7084 139.5,343.7869 " fill="none" id="java.lang.Runnable&lt;-Util.MyThread" style="stroke: #A80036; stroke-width: 1.5; stroke-dasharray: 7.0,7.0;"/><polygon fill="none" points="129.0002,260.0404,139.5,230.0404,150.0002,260.0404,129.0002,260.0404" style="stroke: #A80036; stroke-width: 1.5;"/><!--MD5=[3dca560103e10c7271030671f138464c]
link Util.DeviceButtons to Util.RoboBatteryThread--><!--MD5=[0ece20ebeeb47b29beca789944d9ff28]
link Util.RoboBatteryThread to Util.RoboProgressThread--><!--MD5=[79594a76de0c8f71600213a6c60c8cb1]
link Util.DeviceButtons to Util.RoboRechargeThread--><!--MD5=[83b6112b2d77f98b3fa212efb5970805]
link Util.RoboRechargeThread to Util.RoboTimeThread--><!--MD5=[f2fb187f685d59e5100938b5a89dfe70]
link Util.RoboTimeThread to Util.SmartPhone--><!--MD5=[211978c1265635f6ddb2a993b4f73895]
link Util.RoboRechargeThread to Util.UseSmartPhone--><!--MD5=[e16fff583b568f7d506369e5584420de]
@startuml

title __UTIL's Class Diagram__\n

  namespace Util {
    class Util.DeviceButtons {
        ~ commandList : List<Command>
        + DeviceButtons()
        + addButtonCommand()
        + press()
        + pressUndo()
    }
  }
  

  namespace Util {
    class Util.MyThread {
        + running : boolean
        + seconds : int
        + MyThread()
        + isRunning()
        + run()
        + setTime()
    }
  }
  

  namespace Util {
    class Util.RoboBatteryThread {
        + isRunning()
        + run()
        + setTime()
    }
  }
  

  namespace Util {
    class Util.RoboProgressThread {
        + isRunning()
        + run()
        + setTime()
    }
  }
  

  namespace Util {
    class Util.RoboRechargeThread {
        + isRunning()
        + run()
        + setTime()
    }
  }
  

  namespace Util {
    class Util.RoboTimeThread {
        + isRunning()
        + run()
        + setTime()
    }
  }
  

  namespace Util {
    class Util.SmartPhone {
        {static} + DEVICE_NR : int
        {static} + getCleaningRobot()
        {static} + getDishwasher()
        {static} + getMicroWave()
        {static} + getOven()
        {static} + getWashingMaschine()
    }
  }
  

  namespace Util {
    class Util.UseSmartPhone {
        {static} - cleaningRobot : CleaningRobot
        {static} - deviceButtons : DeviceButtons
        {static} - dishWasher : Dishwasher
        {static} - microWave : MicroWave
        {static} - oven : Oven
        {static} - washingMachine : WashingMachine
        {static} + getRobo()
        {static} + main()
        {static} - createUserInput()
        {static} - displayMainMenu()
        {static} - displayTitle()
        {static} - validateInput()
    }
  }
  

  Util.MyThread .up.|> java.lang.Runnable


@enduml

PlantUML version 1.2019.11(Sun Sep 22 12:02:15 CEST 2019)
(GPL source distribution)
Java Runtime: OpenJDK Runtime Environment
JVM: OpenJDK 64-Bit Server VM
Java Version: 11.0.4+10-b304.77
Operating System: Windows 10
Default Encoding: Cp1252
Language: de
Country: CH
--></g></svg>